<?xml version="1.0" encoding="UTF-8" standalone="no"?>
<!-- Created with Inkscape (http://www.inkscape.org/) -->

<svg
   width="15.580287mm"
   height="15.610386mm"
   viewBox="0 0 15.580287 15.610386"
   version="1.1"
   id="svg5"
   sodipodi:docname="bubble medium.svg"
   inkscape:version="1.2.2 (b0a8486541, 2022-12-01)"
   xmlns:inkscape="http://www.inkscape.org/namespaces/inkscape"
   xmlns:sodipodi="http://sodipodi.sourceforge.net/DTD/sodipodi-0.dtd"
   xmlns="http://www.w3.org/2000/svg"
   xmlns:svg="http://www.w3.org/2000/svg">
  <sodipodi:namedview
     id="namedview7"
     pagecolor="#ffffff"
     bordercolor="#666666"
     borderopacity="1.0"
     inkscape:pageshadow="2"
     inkscape:pageopacity="0.0"
     inkscape:pagecheckerboard="0"
     inkscape:document-units="mm"
     showgrid="false"
     inkscape:zoom="0.64052329"
     inkscape:cx="-370.00996"
     inkscape:cy="-1.5612235"
     inkscape:window-width="2560"
     inkscape:window-height="1510"
     inkscape:window-x="1920"
     inkscape:window-y="54"
     inkscape:window-maximized="1"
     inkscape:current-layer="layer1"
     fit-margin-top="0"
     fit-margin-left="0"
     fit-margin-right="0"
     fit-margin-bottom="0"
     inkscape:showpageshadow="2"
     inkscape:deskcolor="#d1d1d1" />
  <defs
     id="defs2" />
  <g
     inkscape:label="Layer 1"
     inkscape:groupmode="layer"
     id="layer1"
     transform="translate(-72.371963,-98.082412)">
    <path
       id="path1537"
       style="fill:#000000;stroke-width:0.0751754"
       d="m 78.870494,113.57993 c -0.917945,-0.16799 -1.413297,-0.32472 -2.095713,-0.6631 -2.057164,-1.02003 -3.492484,-2.7327 -4.146511,-4.94773 -0.362354,-1.22721 -0.33825,-3.03856 0.05802,-4.36018 0.176779,-0.58957 0.67694,-1.63232 1.04974,-2.18852 0.339812,-0.50699 1.517469,-1.673401 2.018192,-1.998924 3.918583,-2.547498 8.93547,-1.353091 11.230212,2.673664 0.915204,1.60598 1.209487,3.76524 0.761709,5.58902 -0.85334,3.47568 -3.764328,5.84652 -7.368936,6.00159 -0.528752,0.0228 -0.975714,-0.009 -1.506717,-0.10582 z m 2.28362,-1.29147 c 0.965645,-0.1567 2.134928,-0.64934 2.906693,-1.22466 0.863289,-0.64353 1.709899,-1.76991 2.128308,-2.83158 0.322969,-0.81952 0.420278,-1.35732 0.421671,-2.33044 0.0016,-1.10906 -0.1634,-1.84265 -0.633995,-2.81909 -0.612671,-1.27123 -1.680737,-2.36791 -2.881333,-2.95852 -0.81865,-0.402722 -1.216232,-0.525735 -2.138917,-0.661783 -2.339276,-0.344929 -4.783335,0.771003 -6.171409,2.817803 -1.011365,1.49132 -1.363424,3.51774 -0.906287,5.21652 0.572672,2.12811 2.16673,3.83724 4.222543,4.52736 0.985106,0.33069 2.066815,0.42437 3.052726,0.26439 z m -4.855167,-4.84839 c -0.359431,-0.25176 -0.522041,-1.69224 -0.28959,-2.56529 0.35397,-1.32944 1.235739,-2.36956 2.471812,-2.91572 0.54523,-0.24091 0.877924,-0.24788 1.088023,-0.0228 0.397323,0.42567 0.250263,0.92828 -0.334235,1.14235 -0.983432,0.36016 -1.70535,1.15338 -1.924067,2.11411 -0.107896,0.47393 -0.109342,0.58883 -0.01806,1.43628 0.05559,0.51614 0.04979,0.54759 -0.135593,0.73296 -0.22432,0.22432 -0.600626,0.25856 -0.858278,0.0781 z" />
  </g>
</svg>
