<?xml version="1.0" encoding="UTF-8" standalone="no"?>
<!-- Generator: Adobe Illustrator 14.0.0, SVG Export Plug-In . SVG Version: 6.00 Build 43363)  -->

<svg
   version="1.1"
   id="Layer_2"
   x="0px"
   y="0px"
   width="173"
   height="120.67131"
   viewBox="0 0 173 120.67131"
   enable-background="new 0 0 864 864"
   xml:space="preserve"
   sodipodi:docname="bubble wand.svg"
   inkscape:version="1.2.2 (b0a8486541, 2022-12-01)"
   xmlns:inkscape="http://www.inkscape.org/namespaces/inkscape"
   xmlns:sodipodi="http://sodipodi.sourceforge.net/DTD/sodipodi-0.dtd"
   xmlns="http://www.w3.org/2000/svg"
   xmlns:svg="http://www.w3.org/2000/svg"><defs
   id="defs226" /><sodipodi:namedview
   id="namedview224"
   pagecolor="#ffffff"
   bordercolor="#666666"
   borderopacity="1.0"
   inkscape:showpageshadow="2"
   inkscape:pageopacity="0.0"
   inkscape:pagecheckerboard="0"
   inkscape:deskcolor="#d1d1d1"
   showgrid="false"
   inkscape:zoom="0.60671352"
   inkscape:cx="-403.81497"
   inkscape:cy="-247.23365"
   inkscape:window-width="2560"
   inkscape:window-height="1510"
   inkscape:window-x="1920"
   inkscape:window-y="54"
   inkscape:window-maximized="1"
   inkscape:current-layer="Layer_2" />
<path
   fill="#E27B91"
   d="M 42.148689,4.9271714 C 41.225611,4.2472577 39.948305,4.5791559 39.379613,5.5324776 39.246374,5.4509796 39.114826,5.3665399 38.979398,5.2876951 38.234596,4.8511496 37.474644,4.4600769 36.703632,4.109657 37.184422,3.0879451 36.71059,1.9116155 35.641765,1.4898354 34.580684,1.0738426 33.43883,1.7628814 33.147058,2.8192552 32.165128,2.5456378 31.17405,2.3399071 30.179696,2.1930342 30.357107,1.0530014 29.583408,0.04647909 28.43632,0.00347852 27.291083,-0.06196992 26.383437,0.80410042 26.40334,1.9293622 25.388015,1.9376218 24.37932,2.0169757 23.377335,2.149202 23.231514,1.0315888 22.203155,0.20139091 21.100545,0.50677361 19.986908,0.76789983 19.354753,1.8537704 19.676542,2.9279587 18.705456,3.2125964 17.753951,3.5594918 16.823179,3.9621222 16.383352,2.9543497 15.156288,2.4026797 14.165363,2.9672086 13.137287,3.4750068 12.875498,4.7792859 13.472704,5.7113479 12.6221,6.2477943 11.800784,6.8410053 11.014679,7.4852446 10.323349,6.6223027 9.002624,6.4614168 8.1900993,7.2713505 7.3554378,8.0573937 7.4330323,9.3531474 8.2822611,10.102136 7.6147085,10.848788 6.9852686,11.640307 6.4038868,12.479828 5.4829525,11.823358 4.2340747,12.074341 3.6197679,13.044442 3.0899743,14.054845 3.4869362,15.265848 4.4988102,15.750106 4.052161,16.667414 3.6610147,17.601739 3.3362617,18.548923 2.2628257,18.165646 1.1470284,18.754105 0.83181347,19.859 0.50942513,20.952565 1.3163718,22.025972 2.3924384,22.213487 2.3293547,22.576194 2.2715265,22.939976 2.224085,23.303877 2.1411614,23.946476 2.0883342,24.590121 2.055296,25.233433 0.96874662,25.195303 -0.01639703,26.051931 2.0692309e-4,27.17725 0.09455248,28.303688 1.0613271,29.1127 2.1629644,29.009263 c 0.1061634,1.009798 0.2656802,2.013169 0.4943962,2.999654 -1.0697248,0.264266 -1.72618927,1.341328 -1.4589532,2.437591 0.407077,1.050926 1.5614226,1.559951 2.5901777,1.167515 0.2032698,0.50669 0.4189855,1.008802 0.6554293,1.503289 0.201697,0.418901 0.4179501,0.831833 0.6433397,1.240245 -1.0073935,0.543258 -1.3435855,1.773874 -0.7275985,2.743562 0.6397757,0.953367 1.9289105,1.116923 2.8048583,0.420032 0.615642,0.793771 1.2824479,1.554363 2.0007232,2.276734 -0.8023247,0.787735 -0.8174069,2.09465 0.061364,2.828681 0.8453929,0.774864 2.1644209,0.529109 2.8085519,-0.363675 0.683122,0.50153 1.395836,0.974423 2.141905,1.411042 0.134654,0.07905 0.272645,0.148921 0.408718,0.225525 -0.557356,0.975544 -0.192363,2.19553 0.825304,2.718405 1.047368,0.454456 2.222571,-0.08076 2.605724,-1.126835 0.956445,0.356236 1.923462,0.654553 2.899753,0.887019 -0.279688,1.116918 0.416111,2.158809 1.545486,2.365999 1.112878,0.224445 2.098118,-0.71832 2.190964,-1.792209 1.015433,0.07869 2.02764,0.09281 3.035911,0.04588 0.05063,1.116211 0.999417,1.941634 2.134522,1.837925 1.140768,-0.05012 1.832002,-1.229292 1.617282,-2.30111 0.992673,-0.200967 1.971294,-0.459044 2.93244,-0.780776 0.349684,1.065476 1.488569,1.595626 2.551969,1.174853 1.078188,-0.384154 1.456402,-1.643424 0.935281,-2.64391 0.89581,-0.462009 1.767934,-0.97689 2.606425,-1.552343 0.620496,0.903046 1.916436,1.177003 2.791603,0.450926 0.866993,-0.750397 0.930308,-2.016405 0.150268,-2.828658 0.730161,-0.687642 1.427544,-1.420337 2.077242,-2.207348 l 87.64126,51.286254 c -0.46741,1.339082 -0.7913,2.706796 -0.97003,4.079923 -0.51468,3.967857 0.14722,7.972877 1.85349,11.532407 1.70324,3.55909 4.4725,6.67932 8.12627,8.81627 2.43411,1.42427 5.06103,2.29618 7.70477,2.63887 3.96786,0.51469 7.97337,-0.14694 11.53311,-1.85243 3.5577,-1.70535 6.67968,-4.47425 8.81507,-8.12762 1.42477,-2.43381 2.2966,-5.05948 2.63986,-7.7042 0.5144,-3.96736 -0.14722,-7.972868 -1.85377,-11.531908 -1.70352,-3.55861 -4.47222,-6.679814 -8.12677,-8.816554 -2.43381,-1.424761 -5.05976,-2.296104 -7.70371,-2.639571 -3.96842,-0.513705 -7.97344,0.148202 -11.53317,1.853692 -2.41697,1.157423 -4.62257,2.817717 -6.46455,4.901561 L 49.495564,35.291969 c 0.367086,-0.951483 0.669114,-1.917013 0.91259,-2.890871 1.091261,0.28905 2.1568,-0.391135 2.372131,-1.521036 0.262201,-1.11264 -0.671123,-2.107452 -1.757672,-2.208914 0.09047,-1.013204 0.121365,-2.026181 0.08529,-3.03405 1.121177,-0.03208 1.952326,-0.974949 1.849053,-2.113075 -0.05708,-1.143467 -1.167142,-1.858178 -2.275659,-1.644392 -0.190433,-0.995089 -0.433258,-1.978614 -0.743755,-2.941118 1.076004,-0.335111 1.61322,-1.469261 1.191332,-2.535269 -0.400226,-1.07636 -1.60087,-1.493886 -2.624879,-0.969365 C 48.0526,14.534397 47.54531,13.658172 46.981042,12.815019 47.935308,12.194053 48.156444,10.942087 47.473956,10.01631 46.73146,9.1401641 45.471381,9.0541347 44.638191,9.8410322 43.958786,9.1045179 43.226447,8.405381 42.448601,7.7466027 43.192826,6.8795989 43.078889,5.598141 42.148689,4.9271714 Z M 144.97217,90.09859 c 1.9559,-1.46086 4.30788,-2.316776 6.72481,-2.472807 2.41839,-0.155184 4.88327,0.376245 7.14066,1.695877 1.50605,0.881934 2.74696,2.013831 3.72121,3.319049 1.46232,1.956744 2.31649,4.308363 2.47252,6.725288 0.15441,2.418603 -0.37722,4.882713 -1.69616,7.141153 -0.88242,1.50578 -2.01375,2.74569 -3.31953,3.72092 -1.9559,1.46086 -4.30809,2.31601 -6.72452,2.47232 -2.41861,0.15441 -4.88376,-0.37652 -7.14221,-1.69545 -1.50578,-0.88243 -2.7459,-2.01453 -3.72015,-3.31975 -1.46164,-1.95569 -2.31678,-4.30787 -2.47183,-6.72423 -0.1549,-2.418893 0.37652,-4.883774 1.69546,-7.142212 0.88214,-1.505286 2.01424,-2.745413 3.31974,-3.720158 z M 37.9121,14.336835 c -0.0023,0.0011 -0.004,0.0028 -0.0057,0.0051 -0.771985,0.86078 -0.800758,2.011505 -0.231901,2.723388 0.616666,0.675467 1.73808,0.842129 2.700657,0.230532 0.01001,-0.006 0.01686,-0.01443 0.02636,-0.0207 0.573366,0.864735 1.062042,1.776589 1.462761,2.726511 -0.0098,0.0034 -0.01901,0.0045 -0.02789,0.0087 -1.032433,0.462173 -1.52331,1.495697 -1.320787,2.390636 0.298503,0.866732 1.306361,1.4643 2.405452,1.301903 0.0075,-0.0017 0.01476,-0.0051 0.0224,-0.006 0.09772,0.571826 0.176488,1.147081 0.213622,1.727694 0.02896,0.451107 0.03502,0.903379 0.02681,1.356574 -0.01244,1.1e-5 -0.02433,-0.0045 -0.03751,-0.004 -1.161106,5.15e-4 -1.967278,0.755319 -2.170395,1.647961 -0.120646,0.903674 0.624383,1.87274 1.675195,2.168483 0.0058,0.0011 0.01058,0.0011 0.01477,0.0028 -0.253489,0.984409 -0.597873,1.958798 -1.044245,2.909574 -0.01114,-0.0045 -0.0207,-0.01392 -0.03236,-0.01867 -1.052357,-0.468435 -2.158362,-0.140192 -2.631612,0.637637 -0.478041,0.781602 -0.227035,1.945577 0.632275,2.653347 0.0045,0.004 0.0085,0.0057 0.01267,0.0086 -0.648522,0.822311 -1.36308,1.566649 -2.132384,2.23496 -0.0017,-0.0023 -0.004,-0.0045 -0.0059,-0.008 -0.781965,-0.868887 -1.896823,-0.980159 -2.6928,-0.530404 -0.768071,0.487415 -0.973846,1.724085 -0.490787,2.699984 3.34e-4,0.0028 0.0028,0.0051 0.0045,0.0071 -0.91715,0.479738 -1.875303,0.869826 -2.861267,1.170044 -0.004,-0.01137 -0.0034,-0.02223 -0.0071,-0.03287 -0.358153,-1.101716 -1.336276,-1.6795 -2.237863,-1.543528 -0.904109,0.118841 -1.595083,1.145933 -1.54552,2.275257 -1.026181,0.06665 -2.059677,0.02715 -3.088019,-0.09816 0.0011,-0.0091 0.004,-0.01595 0.0051,-0.02501 0.115651,-1.137154 -0.528368,-2.129556 -1.417452,-2.311679 -0.865498,-0.279546 -1.910937,0.361288 -2.327999,1.410647 -0.0023,0.0045 -0.0023,0.0097 -0.004,0.01346 -0.888207,-0.331859 -1.763046,-0.734393 -2.613186,-1.231754 -0.05879,-0.03394 -0.113076,-0.07116 -0.171097,-0.105315 0.0011,-0.0017 0.0023,-0.0028 0.0034,-0.0045 0.574004,-0.995333 0.376578,-2.152541 -0.340939,-2.714428 -0.729629,-0.549944 -1.903967,-0.430339 -2.703254,0.353271 -0.0051,0.0045 -0.0069,0.0097 -0.0112,0.01375 -0.619641,-0.604678 -1.187955,-1.249613 -1.696941,-1.932808 -0.104427,-0.139332 -0.19626,-0.285763 -0.296252,-0.427109 0.0063,-0.004 0.01205,-0.0061 0.01731,-0.0096 0.91427,-0.668226 1.257319,-1.831521 0.768353,-2.599184 -0.366492,-0.836093 -1.537475,-1.186191 -2.596197,-0.792759 -0.0057,0.0017 -0.0094,0.0051 -0.01358,0.0065 -0.380324,-0.960359 -0.672378,-1.951403 -0.869606,-2.964132 0.0034,-5.48e-4 0.0061,-3.96e-4 0.0097,-0.0011 1.104205,-0.239137 1.909042,-1.165864 1.777704,-2.068695 -0.03711,-0.906553 -0.912398,-1.706525 -2.052917,-1.774479 -0.0084,-2.43e-4 -0.015784,0.0011 -0.023364,0.0011 0.040675,-1.024303 0.164755,-2.048159 0.400554,-3.063031 1.104562,0.232059 2.235113,-0.281255 2.501206,-1.150595 0.262535,-0.873362 -0.117743,-1.92318 -1.153378,-2.459049 -0.01301,-0.0068 -0.02783,-0.0095 -0.04062,-0.01561 0.170073,-0.342092 0.34947,-0.68337 0.546041,-1.019313 0.330773,-0.56613 0.69292,-1.101739 1.07713,-1.612202 0.0017,0.0017 0.0023,0.0028 0.004,0.0045 0.933555,0.674211 2.09474,0.592091 2.734069,-0.05589 0.618091,-0.670041 0.633411,-1.841596 -0.06835,-2.724933 -0.0045,-0.0051 -0.0091,-0.0092 -0.01335,-0.01426 0.215229,-0.178185 0.433949,-0.351093 0.656849,-0.51767 0.605058,-0.452849 1.241892,-0.856645 1.899601,-1.219652 0.0011,0.0017 0.0011,0.0034 0.0023,0.006 0.545882,0.938359 1.700635,1.465912 2.52573,1.080004 0.820332,-0.403682 1.345475,-1.378881 1.050671,-2.510003 -0.0028,-0.01335 -0.01018,-0.02421 -0.01352,-0.03655 0.994082,-0.279201 2.013118,-0.459073 3.042773,-0.5498484 4.69e-4,0.00509 -3.23e-4,0.00962 4.29e-4,0.013973 0.11999,1.0876754 0.955602,1.9790454 1.869035,2.0047284 0.917375,-0.05696 1.787508,-0.724549 1.978151,-1.873922 0.0023,-0.01256 3.33e-4,-0.02659 0.0023,-0.03994 1.011263,0.14814 2.015613,0.398767 3.004327,0.740967 -0.0034,0.0084 -0.0091,0.01567 -0.0116,0.02467 -0.343393,1.067722 0.08767,2.137068 0.888411,2.587615 0.839985,0.36673 1.975124,-0.01199 2.588226,-0.932475 0.0028,-0.0034 0.004,-0.0081 0.0063,-0.01205 0.888303,0.562509 1.704098,1.192899 2.445522,1.884218 z"
   id="path221"
   style="fill:#000000;stroke-width:0.565723" />
</svg>
