<?xml version="1.0" encoding="UTF-8" standalone="no"?>
<!-- Created with Inkscape (http://www.inkscape.org/) -->

<svg
   width="11.059855mm"
   height="11.1125mm"
   viewBox="0 0 11.059854 11.1125"
   version="1.1"
   id="svg5"
   sodipodi:docname="bubble smol.svg"
   inkscape:version="1.2.2 (b0a8486541, 2022-12-01)"
   xmlns:inkscape="http://www.inkscape.org/namespaces/inkscape"
   xmlns:sodipodi="http://sodipodi.sourceforge.net/DTD/sodipodi-0.dtd"
   xmlns="http://www.w3.org/2000/svg"
   xmlns:svg="http://www.w3.org/2000/svg">
  <sodipodi:namedview
     id="namedview7"
     pagecolor="#ffffff"
     bordercolor="#666666"
     borderopacity="1.0"
     inkscape:pageshadow="2"
     inkscape:pageopacity="0.0"
     inkscape:pagecheckerboard="0"
     inkscape:document-units="mm"
     showgrid="false"
     inkscape:zoom="0.64052329"
     inkscape:cx="-516.76497"
     inkscape:cy="157.68357"
     inkscape:window-width="2560"
     inkscape:window-height="1510"
     inkscape:window-x="1920"
     inkscape:window-y="54"
     inkscape:window-maximized="1"
     inkscape:current-layer="layer1"
     fit-margin-top="0"
     fit-margin-left="0"
     fit-margin-right="0"
     fit-margin-bottom="0"
     inkscape:showpageshadow="2"
     inkscape:deskcolor="#d1d1d1" />
  <defs
     id="defs2" />
  <g
     inkscape:label="Layer 1"
     inkscape:groupmode="layer"
     id="layer1"
     transform="translate(-38.824799,-57.19834)">
    <path
       id="path1549"
       style="fill:#000000;stroke-width:0.0677688"
       d="m 43.744652,68.244809 c -2.386194,-0.310237 -4.244961,-1.953067 -4.807072,-4.248623 -0.151316,-0.617948 -0.150223,-1.926458 0.0024,-2.549283 0.615898,-2.51783 2.802561,-4.249759 5.36406,-4.248562 0.999014,4.74e-4 1.68227,0.154274 2.507454,0.564449 1.850584,0.919876 2.973144,2.67752 3.061753,4.793919 0.02855,0.681391 0.01098,0.863044 -0.139661,1.445304 -0.201575,0.779151 -0.411363,1.262474 -0.796216,1.83435 -0.710028,1.055081 -1.779407,1.838092 -3.006872,2.201666 -0.413622,0.122514 -1.493338,0.295047 -1.692449,0.270445 -0.03825,-0.0047 -0.260157,-0.03338 -0.493121,-0.06367 z m 1.745072,-1.320415 c 1.290669,-0.388199 2.231178,-1.188882 2.782116,-2.368502 0.311613,-0.667204 0.403026,-1.087427 0.403026,-1.852743 0,-0.73738 -0.124425,-1.241793 -0.4835,-1.960123 -0.496587,-0.993425 -1.415013,-1.779888 -2.513747,-2.152565 -0.750598,-0.254593 -1.799914,-0.273992 -2.525922,-0.0467 -1.489747,0.466405 -2.614079,1.61835 -3.018561,3.092688 -0.187981,0.685199 -0.162427,1.733473 0.05878,2.411172 0.494362,1.514546 1.853138,2.69764 3.422122,2.979659 0.476203,0.0856 1.421396,0.03375 1.875684,-0.102891 z M 41.647755,63.96666 c -0.340926,-0.164747 -0.515997,-1.159675 -0.331888,-1.886107 0.252097,-0.994681 0.801302,-1.69091 1.680995,-2.131 0.570547,-0.285436 0.72174,-0.295097 0.996745,-0.06369 0.383445,0.322647 0.249839,0.885628 -0.249141,1.049795 -0.578717,0.190402 -0.983472,0.598253 -1.205225,1.21444 -0.08482,0.235692 -0.09997,0.436101 -0.06668,0.88232 0.04991,0.669031 0.02048,0.781058 -0.240585,0.916063 -0.221337,0.114456 -0.375084,0.119241 -0.584217,0.01818 z" />
  </g>
</svg>
