<?xml version="1.0" encoding="UTF-8" standalone="no"?>
<!-- Created with Inkscape (http://www.inkscape.org/) -->

<svg
   width="50.068718mm"
   height="27.414049mm"
   viewBox="0 0 50.068718 27.414049"
   version="1.1"
   id="svg5"
   inkscape:version="1.1.1 (3bf5ae0d25, 2021-09-20)"
   sodipodi:docname="cookie.svg"
   xmlns:inkscape="http://www.inkscape.org/namespaces/inkscape"
   xmlns:sodipodi="http://sodipodi.sourceforge.net/DTD/sodipodi-0.dtd"
   xmlns="http://www.w3.org/2000/svg"
   xmlns:svg="http://www.w3.org/2000/svg">
  <sodipodi:namedview
     id="namedview7"
     pagecolor="#ffffff"
     bordercolor="#666666"
     borderopacity="1.0"
     inkscape:pageshadow="2"
     inkscape:pageopacity="0.0"
     inkscape:pagecheckerboard="0"
     inkscape:document-units="mm"
     showgrid="false"
     inkscape:zoom="3.6233469"
     inkscape:cx="81.002457"
     inkscape:cy="61.683302"
     inkscape:window-width="1920"
     inkscape:window-height="1147"
     inkscape:window-x="-8"
     inkscape:window-y="22"
     inkscape:window-maximized="1"
     inkscape:current-layer="layer1"
     fit-margin-top="0"
     fit-margin-left="0"
     fit-margin-right="0"
     fit-margin-bottom="0" />
  <defs
     id="defs2" />
  <g
     inkscape:label="Layer 1"
     inkscape:groupmode="layer"
     id="layer1"
     transform="translate(-65.984806,-34.710995)">
    <path
       style="fill:#eca000;fill-opacity:1;stroke:none;stroke-width:0.565;stroke-linecap:butt;stroke-linejoin:miter;stroke-miterlimit:4;stroke-dasharray:none;stroke-opacity:1"
       d="m 78.564344,35.498809 c 3.512537,0.977534 3.708359,2.238207 4.872878,4.012416 4.669956,0.320634 12.519342,0.486565 15.86824,0.288554 1.539798,-1.866823 4.929448,-5.156411 9.733348,-4.353425 2.72073,0.502864 6.57225,3.218233 6.7218,6.078954 0.14954,2.860722 -1.36595,4.813314 -2.74721,6.647971 2.02075,2.989793 3.05375,5.807575 2.37283,8.240141 -1.99317,7.00349 -13.88824,6.245396 -16.75897,-0.06009 -5.069167,-0.121263 -11.669943,0.05809 -16.299463,0.496142 -1.30882,1.170721 -5.948369,6.895487 -11.898505,4.347096 -5.950136,-2.548391 -4.035803,-9.375879 -2.128655,-12.137515 -2.34285,-2.601282 -3.611694,-8.709823 1.614618,-12.219372 2.806711,-2.093221 5.935042,-2.204641 8.649089,-1.340866 2.714047,0.863775 0,-5e-6 0,-6e-6 z"
       id="path869"
       sodipodi:nodetypes="zccczcccczcczz" />
    <g
       aria-label="COOK IE"
       id="text6012"
       style="font-size:10.5833px;line-height:1.25;font-family:'Anxiety Management';-inkscape-font-specification:'Anxiety Management';letter-spacing:0.679979px;word-spacing:0px;fill:#000000;stroke-width:0.264583" />
    <path
       id="path8088"
       style="color:#000000;fill:#a05a2c;-inkscape-stroke:none"
       d="m 76.492187,34.769531 c -2.215255,-0.238885 -4.574995,0.230238 -6.734375,1.835938 -0.0016,0.0011 -0.0023,0.0028 -0.0039,0.0039 -2.681273,1.80272 -3.72292,4.308677 -3.767578,6.675781 -0.04316,2.287508 0.833104,4.411773 1.998047,5.785156 -0.957457,1.448481 -1.87447,3.767878 -1.847656,6.140625 0.02767,2.44866 1.112567,4.931637 4.18164,6.246094 6.071394,2.600325 10.84785,-3.148257 12.128907,-4.328125 4.569876,-0.427365 11.030206,-0.602724 16.041015,-0.488281 1.552303,3.162264 5.242233,4.912899 8.839853,5.015625 1.83447,0.05238 3.64573,-0.319846 5.14062,-1.166016 1.49489,-0.846169 2.67054,-2.176687 3.18945,-4 0.70176,-2.507003 -0.35766,-5.341747 -2.32031,-8.296875 1.35339,-1.796526 2.85626,-3.791413 2.70508,-6.683593 -0.0811,-1.551969 -1.13999,-2.995439 -2.49805,-4.125 -1.35806,-1.129562 -3.02878,-1.953179 -4.45508,-2.216797 h -0.002 -0.002 c -4.8696,-0.813968 -8.29947,2.434583 -9.900397,4.347656 -3.322469,0.188365 -10.957686,0.02711 -15.595703,-0.285156 -0.518075,-0.81238 -0.868015,-1.557138 -1.50586,-2.220703 -0.485725,-0.505312 -1.256979,-0.932524 -2.25,-1.328125 0.0048,-0.01512 0.0215,-0.06835 0.02148,-0.06836 -2.31e-4,-7.3e-5 -0.0016,1.02e-4 -0.002,0 -0.0015,-4.63e-4 -0.0093,-0.0031 -0.01172,-0.0039 -0.0072,-0.0023 -0.0346,-0.01172 -0.04687,-0.01563 -0.01413,-0.0045 -0.10741,-0.0348 -0.126953,-0.04102 -0.338664,-0.107785 -1.013265,-0.321514 -1.015625,-0.322265 -7.1e-4,-1.98e-4 -0.0012,1.98e-4 -0.002,0 -0.0041,-0.0011 -0.0057,-0.0028 -0.0098,-0.0039 v 0.002 c -0.692249,-0.219671 -1.411996,-0.37957 -2.148438,-0.458985 z m -2.179687,0.56836 c 1.426443,-0.175366 2.842228,0.0084 4.166016,0.429687 0,0 0.0096,0.0039 0.0098,0.0039 1.727354,0.48072 2.595924,1.013397 3.189453,1.63086 0.59353,0.617462 0.928322,1.35698 1.523438,2.263672 l 0.07617,0.117187 0.140625,0.0098 c 4.684888,0.321659 12.520155,0.489157 15.904297,0.289062 l 0.123046,-0.0078 0.07813,-0.09375 c 1.513505,-1.834943 4.808235,-5.031963 9.464845,-4.25586 1.29443,0.239245 2.91005,1.024734 4.19531,2.09375 1.28527,1.069017 2.22651,2.413907 2.29493,3.722657 0.14399,2.754663 -1.30836,4.625857 -2.69141,6.46289 l -0.12109,0.160156 0.11328,0.167969 c 1.99964,2.95857 2.97964,5.699249 2.33398,8.00586 -0.47804,1.677008 -1.5369,2.878161 -2.92187,3.662109 -1.38572,0.784371 -3.10039,1.141688 -4.84766,1.091797 -3.49455,-0.09978 -7.08282,-1.83276 -8.458986,-4.855469 l -0.07422,-0.162109 -0.175781,-0.0039 c -5.081681,-0.121562 -11.686598,0.0583 -16.333985,0.498047 l -0.0918,0.0078 -0.07031,0.0625 c -1.402643,1.254644 -5.837128,6.766012 -11.597656,4.298828 -2.881057,-1.233931 -3.813936,-3.439835 -3.839844,-5.732422 -0.02591,-2.292587 0.915201,-4.658717 1.832031,-5.986328 l 0.126953,-0.183594 -0.15039,-0.166015 c -1.114806,-1.237776 -1.99879,-3.360794 -1.957032,-5.574219 0.04176,-2.213426 0.978137,-4.514118 3.519532,-6.220703 l 0.0059,-0.0039 0.0059,-0.0039 c 1.364959,-1.017974 2.802073,-1.55315 4.228516,-1.728515 z m 32.33216,8.528542 c 0.0595,-0.0012 0.0879,0.02411 0.0879,0.04134 l 0.0413,-0.02067 h 0.0879 c 0.19637,0.141249 0.30489,0.229098 0.32556,0.263549 v 0.06201 c -0.0448,0.103353 -0.22567,0.248046 -0.5426,0.43408 -0.7338,0.289387 -1.1162,0.434081 -1.14721,0.434081 -0.0413,0 -0.24459,0.08613 -0.60978,0.258381 l -0.43408,0.08785 c 0,0.08613 0.11541,0.303168 0.34623,0.651121 0.23427,0.372069 0.3514,0.596 0.3514,0.671792 0.11369,0.299722 0.19292,0.539155 0.23771,0.7183 h 0.062 c 0.81304,-0.434081 1.60196,-0.766531 2.36677,-0.997352 h 0.062 c 0.32039,0.08613 0.53055,0.179144 0.63046,0.279052 0,0.02411 0.0138,0.0534 0.0413,0.08785 v 0.06718 c -0.0655,0.08268 -0.23083,0.18259 -0.4961,0.299723 -0.0689,0.110243 -0.27905,0.211873 -0.63045,0.30489 -0.31695,0.275607 -0.49781,0.41341 -0.5426,0.41341 -0.0413,0 -0.35828,0.07924 -0.95084,0.237711 -0.0689,0 -0.17742,-0.03617 -0.32556,-0.10852 v 0.02067 c 0.0999,0.458196 0.19292,1.050751 0.27905,1.777664 -0.0138,0.05512 -0.0207,0.113686 -0.0207,0.175699 0.0379,0.21704 0.074,0.32556 0.10852,0.32556 0.43408,-0.21704 0.87505,-0.477144 1.32291,-0.780311 0.24116,-0.08613 0.53744,-0.217041 0.88883,-0.39274 0.31695,-0.06546 0.52711,-0.144697 0.63046,-0.237711 0.17225,0.01378 0.28766,0.04995 0.34623,0.108521 0.0275,-0.01378 0.0499,-0.02067 0.0672,-0.02067 0,0.03101 0.0362,0.07407 0.10852,0.129191 0,0.02067 0.0207,0.04996 0.062,0.08785 v 0.06201 c -0.11369,0.117133 -0.17053,0.19637 -0.17053,0.237711 -0.28939,0.151583 -0.50644,0.304889 -0.65113,0.459918 -0.21359,0.08268 -0.34451,0.146416 -0.39274,0.191203 -0.48575,0.382404 -0.86816,0.614947 -1.14721,0.697629 -0.20671,0.206705 -0.40997,0.329006 -0.60978,0.366902 -0.19981,0 -0.40824,-0.05857 -0.62528,-0.1757 -0.0965,0.03101 -0.16192,0.04651 -0.19637,0.04651 -0.39274,0 -0.58911,-0.253214 -0.58911,-0.759641 l 0.0258,-0.04134 -0.19637,-0.82682 c -0.0379,-0.134359 -0.074,-0.37207 -0.10852,-0.713133 -0.0861,-0.285942 -0.12919,-0.466809 -0.12919,-0.542601 l 0.0207,-0.155028 c -0.20671,-0.685572 -0.38757,-1.162716 -0.5426,-1.431433 -0.0448,-0.05167 -0.11026,-0.196367 -0.19637,-0.434081 -0.26872,-0.42719 -0.60117,-0.888831 -0.99736,-1.384924 l -0.12919,-0.21704 c 0.0758,-0.158474 0.2136,-0.237711 0.41341,-0.237711 h 0.17054 c 0.11713,0 0.27733,0.08613 0.48059,0.258381 h 0.062 c 0.13091,0 0.5426,-0.144693 1.23506,-0.43408 0.0551,0 0.32385,-0.09302 0.80615,-0.279052 0.0138,0 0.0345,-0.0086 0.062,-0.02584 0.0861,0.01033 0.12919,0.02584 0.12919,0.04651 0.0758,-0.03101 0.24843,-0.08238 0.52193,-0.08785 z m -5.59642,-0.02584 c 0.35553,0.02188 0.56672,0.134359 0.63562,0.310057 0.0517,0.04134 0.0775,0.06718 0.0775,0.07751 v 0.02067 c -0.062,0.06201 -0.0999,0.12058 -0.11368,0.1757 l -0.62012,0.232543 c -0.0379,0.06546 -0.17911,0.136084 -0.42374,0.211872 v 0.04134 c 0.2067,0.313503 0.33417,0.62356 0.3824,0.930173 0.3514,0.868161 0.53227,1.512392 0.5426,1.932693 0.0103,0 0.0362,0.201537 0.0775,0.604612 -0.0103,0.02067 -0.0155,0.04651 -0.0155,0.07751 v 0.0155 c 0,0.02756 0.0448,0.149861 0.13436,0.366902 0,0.01378 -0.007,0.03445 -0.0207,0.06201 0,0.144694 0.0327,0.415133 0.0982,0.811318 0.0138,0.285942 0.0327,0.428913 0.0568,0.428913 0.67523,-0.168809 1.03008,-0.253214 1.06453,-0.253214 l 0.0982,0.02067 c 0.0517,-0.01378 0.10334,-0.02067 0.15503,-0.02067 0.31006,0.05167 0.46509,0.148136 0.46509,0.289387 -0.12747,0.241156 -0.3669,0.428913 -0.7183,0.563271 -0.0689,0 -0.53399,0.155029 -1.39526,0.465087 -0.0724,0.03789 -0.14297,0.05684 -0.21187,0.05684 -0.43753,-0.18948 -0.65629,-0.396185 -0.65629,-0.620115 0.17915,-0.07579 0.26872,-0.204983 0.26872,-0.387572 -0.0345,-0.05857 -0.0861,-0.335896 -0.15503,-0.831988 0.0138,-0.03789 0.0276,-0.05684 0.0413,-0.05684 -0.0792,-0.527098 -0.18259,-1.083479 -0.31006,-1.669144 0,-0.141248 -0.0586,-0.425467 -0.1757,-0.852658 0,-0.01033 0.007,-0.0155 0.0207,-0.0155 -0.13091,-0.564994 -0.31867,-1.107595 -0.563265,-1.627802 l -0.0362,-0.04134 -0.62012,0.175699 c -0.0069,0.02411 -0.07232,0.04995 -0.19637,0.07751 -0.265273,-0.08268 -0.484037,-0.249769 -0.65629,-0.50126 l -0.0207,-0.09818 v -0.02067 c 0.2446,-0.141249 0.56155,-0.270439 0.95085,-0.387572 0.27216,-0.165364 0.465083,-0.261826 0.57877,-0.289387 0.399625,-0.05857 0.690735,-0.136081 0.873325,-0.232543 0.24805,-0.02756 0.37726,-0.04197 0.38757,-0.04134 z M 92.5962,43.8716 q 0.568439,0 0.842323,0.625283 0.07235,0.03101 0.39274,0.744139 0,0.134358 0.155028,0.589109 l 0.02067,0.139526 q -0.02067,0.170532 -0.02067,0.19637 0,0.139526 0.217041,0.666624 0.02067,0.103352 0.02067,0.113687 -0.02067,0.04134 -0.02067,0.06201 0.06201,0 0.06201,0.07751 0.248046,-0.268716 0.723468,-0.904334 0.134358,-0.08268 0.253214,-0.310058 l 0.80615,-0.862994 q 0.573606,-0.485757 0.687294,-0.666623 0,-0.04651 0.175699,-0.07752 0.28422,0 0.506428,0.232543 v 0.07752 q 0,0.211872 -0.273885,0.41341 0,0.118855 -0.568439,0.60978 -0.07235,0.08268 -0.134358,0.232543 -0.180867,0.175699 -0.728635,0.904335 -0.237711,0.165364 -0.527098,0.589109 0.103352,0.05168 0.449583,0.547769 0.118856,0.175699 0.80615,0.625282 l 0.645954,0.532266 q 0,0.09819 0.470254,0.485757 0.253213,0.124023 0.273884,0.237711 l 0.449583,0.351398 q 0,0.02067 0.118856,0.160197 v 0.03617 q -0.253214,0.273884 -0.428913,0.273884 H 97.71215 l -0.428913,-0.17569 Q 96.477088,49.674845 96.16703,49.416464 95.893146,49.127077 95.598591,48.94621 95.03532,48.506962 95.030152,48.475956 l -0.335896,-0.408243 -0.273884,0.03617 q 0,0.03617 0.21704,0.568439 -0.02067,0.10852 -0.02067,0.160196 l 0.02067,0.03617 q -0.02067,0.04134 -0.02067,0.06201 l 0.02067,0.09819 h -0.02067 l 0.07751,0.387572 -0.02067,0.118855 v 0.02067 q 0.07751,0.527098 0.118855,0.527098 v 0.160196 l 0.05684,0.351399 -0.03617,0.118855 q 0.03617,0.253214 0.03617,0.310058 0,0.237711 -0.253214,0.237711 h -0.02067 q -0.465087,0 -0.547769,-0.330728 0,-0.113688 -0.175699,-0.925006 -0.08268,-0.552936 -0.155029,-0.862993 0,-0.134359 -0.02067,-0.155029 0.02067,-0.03617 0.02067,-0.07751 -0.118855,-0.361734 -0.21704,-0.961179 -0.05168,-0.284219 -0.09819,-0.315225 0,-0.02067 0.02067,-0.05684 0,-0.129191 -0.217041,-0.981849 -0.05684,-0.273884 -0.05684,-0.351399 V 46.2022 l 0.0155,-0.113688 Q 93.03028,45.762952 92.849414,45.029149 92.746061,44.868952 92.5962,44.46071 q -0.07235,0 -0.175699,-0.511595 0.113687,-0.07751 0.175699,-0.07751 z m -3.754718,-0.03101 q 1.162717,0.08785 2.010207,0.671791 0.330728,0.232543 0.459919,0.738971 0,0.06718 0.372069,0.599445 0.279052,0.852658 0.485757,1.710484 0,0.289387 -0.04651,0.651121 0,0.0155 0.02584,0.134358 -0.02584,0.439249 -0.07235,0.439249 l 0.02584,0.04651 q -0.346231,1.782831 -0.558104,1.782831 -0.490924,0.645954 -1.477941,0.645954 h -0.232543 q -0.408243,0 -1.038693,-0.253214 -0.80615,-0.527098 -1.018023,-0.997352 -0.671791,-1.028358 -0.671791,-1.570958 -0.02067,0 -0.113688,-0.645954 h 0.02067 l -0.02067,-0.04651 q 0,-0.351399 -0.04651,-0.552937 0.160197,-1.384923 0.299723,-1.550288 0,-0.279051 0.645953,-1.038693 v -0.02584 l -0.04651,-0.06718 q 0.253213,-0.547768 0.604612,-0.625283 0.0155,-0.02584 0.392739,-0.04651 z m 0.113688,0.671791 0.04651,0.06718 q -0.919838,1.018023 -0.945676,1.689814 -0.118855,0.418578 -0.139526,0.878497 0,0.02067 0.02067,0.02067 0,0.02584 -0.02067,0.07235 0,2.3306 1.710485,3.581165 l 0.09302,0.04651 q 0.273884,0 0.80615,-0.578774 0.485757,-0.800982 0.485757,-1.710485 v -0.299722 q 0,-0.10852 0.02584,-0.232543 -0.02584,-0.08268 -0.02584,-0.206705 v -0.206705 q 0,-0.02584 0.02584,-0.02584 -0.09302,-0.356567 -0.165364,-0.971514 -0.06201,-0.09818 -0.227376,-0.666624 L 90.133395,44.832782 Q 89.678644,44.326355 89.53395,44.326355 h -0.06718 q -0.346231,0.04651 -0.511595,0.186034 z M 82.735495,43.84059 q 1.162716,0.08785 2.010207,0.671791 0.330728,0.232543 0.459919,0.738971 0,0.06718 0.372069,0.599445 0.279052,0.852658 0.485757,1.710484 0,0.289387 -0.04651,0.651121 0,0.0155 0.02584,0.134358 -0.02584,0.439249 -0.07235,0.439249 l 0.02584,0.04651 q -0.346231,1.782831 -0.558103,1.782831 -0.490925,0.645954 -1.477942,0.645954 h -0.232543 q -0.408242,0 -1.038693,-0.253214 -0.806149,-0.527098 -1.018022,-0.997352 -0.671792,-1.028358 -0.671792,-1.570958 -0.02067,0 -0.113687,-0.645954 h 0.02067 l -0.02067,-0.04651 q 0,-0.351399 -0.04651,-0.552937 0.160196,-1.384923 0.299722,-1.550288 0,-0.279051 0.645954,-1.038693 v -0.02584 l -0.04651,-0.06718 q 0.253214,-0.547768 0.604612,-0.625283 0.0155,-0.02584 0.39274,-0.04651 z m 0.113688,0.671791 0.04651,0.06718 q -0.919837,1.018023 -0.945675,1.689814 -0.118856,0.418578 -0.139526,0.878497 0,0.02067 0.02067,0.02067 0,0.02584 -0.02067,0.07235 0,2.3306 1.710484,3.581165 l 0.09302,0.04651 q 0.273885,0 0.80615,-0.578774 0.485757,-0.800982 0.485757,-1.710485 v -0.299722 q 0,-0.10852 0.02584,-0.232543 -0.02584,-0.08268 -0.02584,-0.206705 v -0.206705 q 0,-0.02584 0.02584,-0.02584 -0.09302,-0.356567 -0.165364,-0.971514 -0.06201,-0.09818 -0.227375,-0.666624 L 84.027402,44.832779 Q 83.57265,44.326352 83.427957,44.326352 h -0.06718 q -0.346231,0.04651 -0.511594,0.186034 z M 78.443345,43.8716 q 0.490925,0.05168 0.816485,0.279052 v 0.07751 q 0,0.09819 -0.842323,0.43408 -0.0052,0.03617 -0.485757,0.279052 -0.211873,0.170532 -0.687294,0.687295 -0.232543,0.206705 -0.330728,0.382404 -0.60978,0.625283 -0.60978,1.121375 -0.310058,0.759641 -0.330728,1.581294 v 0.07751 q 0,0.52193 0.330728,1.297074 0.372069,0.614948 0.635618,0.614948 0.366901,0 1.658808,-0.666624 0.470254,-0.506427 0.811317,-0.506427 0.01034,0.05168 0.05168,0.05168 0.175699,-0.07751 0.284219,-0.07751 h 0.124023 q 0.07752,0.0155 0.07752,0.201537 0,0.273884 -0.434081,0.563271 -1.018023,0.992185 -1.886184,0.992185 h -0.05168 q -1.095537,-0.10852 -1.400427,-0.30489 -0.341063,-0.155029 -0.816485,-0.713133 -0.289387,-0.366901 -0.356566,-0.842323 -0.165364,0 -0.227376,-1.198889 l 0.02584,-0.124023 -0.02584,-0.05168 q 0.06718,-0.527098 0.253214,-0.790646 0.08268,-0.542601 0.356566,-1.018023 l 0.58911,-0.842323 q 0.893999,-0.940508 1.34875,-1.121375 0.346231,-0.21704 1.121375,-0.382405 z" />
  </g>
</svg>
