<?xml version="1.0" encoding="UTF-8" standalone="no"?>
<!-- Created with Inkscape (http://www.inkscape.org/) -->

<svg
   width="50.068718mm"
   height="27.414049mm"
   viewBox="0 0 50.068718 27.414049"
   version="1.1"
   id="svg5"
   inkscape:version="1.1.1 (3bf5ae0d25, 2021-09-20)"
   sodipodi:docname="cookie bite bite bite.svg"
   xmlns:inkscape="http://www.inkscape.org/namespaces/inkscape"
   xmlns:sodipodi="http://sodipodi.sourceforge.net/DTD/sodipodi-0.dtd"
   xmlns="http://www.w3.org/2000/svg"
   xmlns:svg="http://www.w3.org/2000/svg">
  <sodipodi:namedview
     id="namedview7"
     pagecolor="#ffffff"
     bordercolor="#666666"
     borderopacity="1.0"
     inkscape:pageshadow="2"
     inkscape:pageopacity="0.0"
     inkscape:pagecheckerboard="0"
     inkscape:document-units="mm"
     showgrid="false"
     inkscape:zoom="3.6233469"
     inkscape:cx="65.823121"
     inkscape:cy="61.95929"
     inkscape:window-width="1920"
     inkscape:window-height="1147"
     inkscape:window-x="-8"
     inkscape:window-y="22"
     inkscape:window-maximized="1"
     inkscape:current-layer="layer1"
     fit-margin-top="0"
     fit-margin-left="0"
     fit-margin-right="0"
     fit-margin-bottom="0"
     inkscape:snap-global="false" />
  <defs
     id="defs2" />
  <g
     inkscape:label="Layer 1"
     inkscape:groupmode="layer"
     id="layer1"
     transform="translate(-65.984806,-34.710995)">
    <path
       id="path869"
       style="fill:#eca000;fill-opacity:1;stroke:none;stroke-width:2.13543;stroke-linecap:butt;stroke-linejoin:miter;stroke-miterlimit:4;stroke-dasharray:none;stroke-opacity:1"
       d="M 157.75977 2.3164062 C 150.66969 2.184864 144.53297 4.3749912 139.44141 7.3925781 C 151.77954 14.348735 147.76158 20.949175 146.65234 27.613281 C 151.61464 33.578706 153.23207 40.687765 148.32031 50.027344 C 151.08568 61.012813 147.65795 69.176077 141.04688 75.886719 C 140.09274 82.653457 137.71875 88.602726 132.89648 93.146484 C 150.11646 105.644 180.62861 103.41086 186.71484 82.025391 C 189.2884 72.83144 185.38357 62.180864 177.74609 50.880859 C 182.9666 43.946723 188.6941 36.568037 188.12891 25.755859 C 187.56368 14.943688 173.00768 4.6798852 162.72461 2.7792969 C 161.02244 2.4947743 159.36665 2.3462187 157.75977 2.3164062 z "
       transform="matrix(0.26458333,0,0,0.26458333,65.984806,34.710995)" />
    <g
       aria-label="COOK IE"
       id="text6012"
       style="font-size:10.5833px;line-height:1.25;font-family:'Anxiety Management';-inkscape-font-specification:'Anxiety Management';letter-spacing:0.679979px;word-spacing:0px;fill:#000000;stroke-width:0.264583" />
    <path
       id="path8088"
       style="color:#000000;fill:#a05a2c;stroke-width:3.77953;-inkscape-stroke:none"
       d="M 156.4082 1.25 C 149.39965 1.4014301 143.35189 3.732037 138.34375 6.8125 C 139.10855 7.2148446 139.81468 7.6156429 140.4707 8.015625 C 146.45176 4.5860231 153.86727 2.3877063 162.5332 3.8320312 C 167.42554 4.7362643 173.531 7.7037646 178.38867 11.744141 C 183.24639 15.78452 186.8039 20.867996 187.0625 25.814453 C 187.60671 36.225778 182.1179 43.297118 176.89062 50.240234 L 176.43359 50.845703 L 176.86133 51.480469 C 184.41902 62.662466 188.12193 73.022335 185.68164 81.740234 C 183.87488 88.078532 179.8732 92.617125 174.63867 95.580078 C 169.4013 98.54463 162.92221 99.895596 156.31836 99.707031 C 148.23729 99.476292 140.02644 96.931956 133.67578 92.376953 C 133.1921 92.876082 132.67576 93.356908 132.13672 93.824219 C 138.88849 98.844725 147.6418 101.59383 156.25781 101.83984 C 163.19124 102.03782 170.03752 100.63172 175.6875 97.433594 C 181.33748 94.235475 185.78095 89.205715 187.74219 82.314453 C 190.39451 72.839166 186.39055 62.126019 178.97266 50.957031 C 184.08783 44.167012 189.7667 36.626387 189.19531 25.695312 C 188.88879 19.829605 184.88673 14.374676 179.75391 10.105469 C 174.62108 5.8362576 168.30676 2.722914 162.91602 1.7265625 L 162.9082 1.7265625 L 162.90234 1.7265625 C 161.1769 1.4381486 159.4997 1.2852989 157.87109 1.25 C 157.37912 1.2393368 156.8912 1.2395642 156.4082 1.25 z M 153.67578 34.603516 C 152.64208 34.62419 151.98961 34.818344 151.70312 34.935547 C 151.70312 34.857424 151.54026 34.798808 151.21484 34.759766 C 151.11091 34.824925 151.03263 34.857422 150.98047 34.857422 C 150.85249 34.906785 150.80166 34.922853 150.68164 34.96875 C 150.99936 36.101408 151.18688 37.277099 151.25195 38.496094 C 151.92458 38.237612 152.61338 37.971711 153.67578 37.552734 C 154.87363 36.849614 155.55724 36.302735 155.72656 35.912109 L 155.72656 35.677734 C 155.64844 35.547526 155.23828 35.215495 154.49609 34.681641 L 154.16406 34.681641 L 154.00781 34.759766 C 154.00781 34.694644 153.90066 34.59898 153.67578 34.603516 z M 158.10938 44.447266 C 155.23303 45.315349 152.26582 46.564621 149.20898 48.193359 C 148.93893 48.795657 148.6473 49.405594 148.32031 50.027344 C 149.42335 54.409188 149.52607 58.335697 148.84961 61.90625 C 149.11215 62.007126 149.40923 62.064453 149.75 62.064453 C 149.8802 62.064453 150.12746 62.005875 150.49219 61.888672 C 151.3125 62.331368 152.10028 62.552734 152.85547 62.552734 C 153.61066 62.409505 154.37889 61.947263 155.16016 61.166016 C 156.21483 60.853517 157.66019 59.974603 159.49609 58.529297 C 159.67838 58.360023 160.1732 58.119132 160.98047 57.806641 C 161.52733 57.220704 162.34765 56.641272 163.44141 56.068359 C 163.44141 55.91211 163.65624 55.612629 164.08594 55.169922 L 164.08594 54.935547 C 163.92984 54.792341 163.85156 54.681638 163.85156 54.603516 C 163.57823 54.395184 163.44141 54.232438 163.44141 54.115234 C 163.37602 54.115234 163.29144 54.141277 163.1875 54.193359 C 162.96613 53.971989 162.52993 53.835285 161.87891 53.783203 C 161.48829 54.134752 160.69402 54.434233 159.49609 54.681641 C 158.16801 55.3457 157.04819 55.840485 156.13672 56.166016 C 154.44402 57.311844 152.77734 58.294926 151.13672 59.115234 C 151.00625 59.115234 150.86981 58.705074 150.72656 57.884766 C 150.72656 57.650386 150.75253 57.429031 150.80469 57.220703 C 150.47916 54.473315 150.12757 52.233718 149.75 50.501953 L 149.75 50.423828 C 150.3099 50.697277 150.72006 50.833984 150.98047 50.833984 C 153.22007 50.235039 154.41812 49.935547 154.57422 49.935547 C 154.7435 49.935547 155.42708 49.414711 156.625 48.373047 C 157.95313 48.021487 158.7474 47.63737 159.00781 47.220703 C 160.01041 46.777996 160.63525 46.400382 160.88281 46.087891 L 160.88281 45.833984 C 160.77888 45.70378 160.72656 45.593078 160.72656 45.501953 C 160.34895 45.124348 159.55467 44.772796 158.34375 44.447266 L 158.10938 44.447266 z "
       transform="matrix(0.26458333,0,0,0.26458333,65.984806,34.710995)" />
    <path
       style="fill:#eca000;stroke:none;stroke-width:0.264583px;stroke-linecap:butt;stroke-linejoin:miter;stroke-opacity:1;fill-opacity:1"
       d="m 70.877267,57.639842 c -0.09717,-0.03955 -1.028278,-0.140071 -1.095327,-0.07302 -0.04178,0.04178 0,0.309498 0,0.365109 0,0.112956 -0.03674,0.327923 0,0.438131 0.02434,0.04868 0.04868,0.09736 0.07302,0.146044 0.04868,0.02434 0.121703,0.02434 0.146043,0.07302 0.08384,0.16769 -0.137139,0.625138 0.07302,0.730218 0.153817,0.07691 0.217965,-0.267013 0.365109,-0.365109 0.259809,-0.173206 0.0227,-0.06044 0.365109,-0.146043 0.110428,-0.02761 0.07302,-1.018022 0.07302,-1.168349 z"
       id="path9264" />
    <path
       style="fill:#eca000;stroke:none;stroke-width:0.264583px;stroke-linecap:butt;stroke-linejoin:miter;stroke-opacity:1;fill-opacity:1"
       d="m 73.944183,55.52221 c -0.343445,0.06497 -0.391213,0.06526 -0.511153,0.365108 -0.0653,0.163259 -0.07479,0.295617 -0.146043,0.438131 -0.187454,0.374906 0.394942,0.349672 0.43813,0.292088 0.05585,-0.07447 0.678449,-0.938658 0.511153,-1.022306 -0.08976,-0.04488 -0.194725,-0.04868 -0.292087,-0.07302 z"
       id="path9268" />
    <path
       style="fill:#eca000;stroke:none;stroke-width:0.264583px;stroke-linecap:butt;stroke-linejoin:miter;stroke-opacity:1;fill-opacity:1"
       d="m 79.420818,56.690558 c 0.351768,0.406433 0.819896,0.754375 1.387414,0.511153 0.11073,-0.04746 -0.05872,-0.423827 -0.07302,-0.438131 -0.03442,-0.03442 -0.102502,0.02177 -0.146044,0 -0.343991,-0.171995 -0.705001,-0.188858 -1.168349,-0.07302 z"
       id="path9270" />
    <path
       style="fill:#eca000;stroke:none;stroke-width:0.264583px;stroke-linecap:butt;stroke-linejoin:miter;stroke-opacity:1;fill-opacity:1"
       d="m 90.155023,36.171431 c -0.423603,0.61007 -0.166691,0.918464 0.146044,1.60648 0.02014,0.04432 0,-0.09736 0,-0.146044 0,-0.0019 0.06185,-0.499978 0.07302,-0.511152 0.04868,-0.04868 0.243406,0.04868 0.292087,0 0.03442,-0.03442 0,-0.09736 0,-0.146044 0,-0.651874 -0.156584,-0.250497 -0.365109,-0.511153 -0.068,-0.085 -0.09736,-0.194724 -0.146044,-0.292087 z"
       id="path16535" />
    <path
       style="fill:#eca000;stroke:none;stroke-width:0.264583px;stroke-linecap:butt;stroke-linejoin:miter;stroke-opacity:1;fill-opacity:1"
       d="m 95.339572,36.901649 c -0.486812,0.170384 -0.971137,0.348053 -1.460436,0.511153 -0.09521,0.03174 -0.236419,-0.01048 -0.292087,0.07302 -0.148074,0.222109 1.573837,0.397751 1.679501,0.292087 0.146169,-0.14617 0.07302,-0.686243 0.07302,-0.876262 z"
       id="path16537" />
  </g>
</svg>
