<?xml version="1.0" encoding="UTF-8" standalone="no"?>
<!-- Created with Inkscape (http://www.inkscape.org/) -->

<svg
   width="50.068718mm"
   height="27.414049mm"
   viewBox="0 0 50.068718 27.414049"
   version="1.1"
   id="svg5"
   inkscape:version="1.1.1 (3bf5ae0d25, 2021-09-20)"
   sodipodi:docname="cookie bite bite.svg"
   xmlns:inkscape="http://www.inkscape.org/namespaces/inkscape"
   xmlns:sodipodi="http://sodipodi.sourceforge.net/DTD/sodipodi-0.dtd"
   xmlns="http://www.w3.org/2000/svg"
   xmlns:svg="http://www.w3.org/2000/svg">
  <sodipodi:namedview
     id="namedview7"
     pagecolor="#ffffff"
     bordercolor="#666666"
     borderopacity="1.0"
     inkscape:pageshadow="2"
     inkscape:pageopacity="0.0"
     inkscape:pagecheckerboard="0"
     inkscape:document-units="mm"
     showgrid="false"
     inkscape:zoom="3.6233469"
     inkscape:cx="41.812171"
     inkscape:cy="45.400014"
     inkscape:window-width="1920"
     inkscape:window-height="1147"
     inkscape:window-x="-8"
     inkscape:window-y="22"
     inkscape:window-maximized="1"
     inkscape:current-layer="layer1"
     fit-margin-top="0"
     fit-margin-left="0"
     fit-margin-right="0"
     fit-margin-bottom="0"
     inkscape:snap-global="false" />
  <defs
     id="defs2" />
  <g
     inkscape:label="Layer 1"
     inkscape:groupmode="layer"
     id="layer1"
     transform="translate(-65.984806,-34.710995)">
    <path
       id="path869"
       style="fill:#eca000;fill-opacity:1;stroke:none;stroke-width:2.13543;stroke-linecap:butt;stroke-linejoin:miter;stroke-miterlimit:4;stroke-dasharray:none;stroke-opacity:1"
       d="M 157.75977 2.3164062 C 142.2266 2.028219 131.20966 12.838186 125.93555 19.232422 C 118.38033 19.679141 104.76088 19.628745 91.257812 19.263672 C 98.421509 27.47954 93.681738 32.561504 91.269531 38.255859 C 94.701153 45.215368 94.611738 52.505526 87.654297 60.439453 C 87.767192 70.847198 83.323596 77.69128 76.404297 82.601562 C 91.626872 81.747201 109.10249 81.455499 123.37305 81.796875 C 134.22305 105.62863 179.1816 108.49527 186.71484 82.025391 C 189.2884 72.83144 185.38357 62.180864 177.74609 50.880859 C 182.9666 43.946723 188.6941 36.568037 188.12891 25.755859 C 187.56368 14.943687 173.00768 4.6798852 162.72461 2.7792969 C 161.02244 2.4947743 159.36665 2.3462187 157.75977 2.3164062 z "
       transform="matrix(0.26458333,0,0,0.26458333,65.984806,34.710995)" />
    <g
       aria-label="COOK IE"
       id="text6012"
       style="font-size:10.5833px;line-height:1.25;font-family:'Anxiety Management';-inkscape-font-specification:'Anxiety Management';letter-spacing:0.679979px;word-spacing:0px;fill:#000000;stroke-width:0.264583" />
    <path
       id="path8088"
       style="color:#000000;fill:#a05a2c;stroke-width:3.77953;-inkscape-stroke:none"
       d="M 157.87109 1.25 C 142.12794 0.90877769 130.96591 11.607505 125.48242 18.160156 C 117.75644 18.598176 103.86015 18.532198 90.228516 18.144531 C 90.967222 18.905119 91.637947 19.647156 92.185547 20.357422 C 105.37783 20.700894 118.5475 20.741427 126 20.300781 L 126.46484 20.271484 L 126.75977 19.916016 C 132.4801 12.980798 144.93342 0.89872866 162.5332 3.8320312 C 167.42554 4.7362643 173.531 7.7037649 178.38867 11.744141 C 183.24639 15.78452 186.8039 20.867996 187.0625 25.814453 C 187.60671 36.225778 182.1179 43.297118 176.89062 50.240234 L 176.43359 50.845703 L 176.86133 51.480469 C 184.41902 62.662466 188.12193 73.022335 185.68164 81.740234 C 183.87488 88.078532 179.8732 92.617125 174.63867 95.580078 C 169.4013 98.54463 162.92221 99.895596 156.31836 99.707031 C 143.11061 99.32991 129.54696 92.779881 124.3457 81.355469 L 124.06641 80.742188 L 123.40234 80.728516 C 109.58535 80.397991 92.817898 80.666695 77.939453 81.457031 C 76.903701 82.284609 75.819756 83.075456 74.658203 83.804688 C 90.084476 82.881477 108.10667 82.54614 122.84766 82.882812 C 128.71463 94.834676 142.66051 101.45159 156.25781 101.83984 C 163.19124 102.03782 170.03752 100.63172 175.6875 97.433594 C 181.33748 94.235475 185.78095 89.205715 187.74219 82.314453 C 190.39451 72.839166 186.39055 62.126019 178.97266 50.957031 C 184.08783 44.167012 189.7667 36.626387 189.19531 25.695312 C 188.88879 19.829604 184.88673 14.374676 179.75391 10.105469 C 174.62108 5.8362578 168.30676 2.722914 162.91602 1.7265625 L 162.9082 1.7265625 L 162.90234 1.7265625 C 161.1769 1.4381486 159.4997 1.2852989 157.87109 1.25 z M 132.52344 34.505859 C 132.48447 34.503478 131.99611 34.557946 131.05859 34.662109 C 130.36849 35.02669 129.26821 35.319649 127.75781 35.541016 C 127.32813 35.645183 126.59895 36.009768 125.57031 36.634766 C 124.09894 37.077473 122.90103 37.565755 121.97656 38.099609 L 121.97656 38.177734 L 122.05469 38.548828 C 122.70572 39.499345 123.53255 40.130868 124.53516 40.443359 C 125.00401 40.339196 125.25127 40.241515 125.27734 40.150391 L 127.62109 39.486328 L 127.75781 39.642578 C 128.68227 41.608715 129.39194 43.659511 129.88672 45.794922 C 129.83494 45.794922 129.80859 45.814473 129.80859 45.853516 C 130.25118 47.468096 130.47266 48.542321 130.47266 49.076172 C 130.95443 51.289709 131.34519 53.392584 131.64453 55.384766 C 131.59275 55.384766 131.54044 55.456403 131.48828 55.599609 C 131.7488 57.474603 131.94383 58.522774 132.07422 58.744141 C 132.07422 59.434241 131.7357 59.922534 131.05859 60.208984 C 131.05859 61.055334 131.88541 61.836589 133.53906 62.552734 C 133.79947 62.552734 134.06621 62.481097 134.33984 62.337891 C 137.59504 61.166018 139.35287 60.580078 139.61328 60.580078 C 140.94141 60.072268 141.84636 59.362628 142.32812 58.451172 C 142.32812 57.91731 141.74219 57.55271 140.57031 57.357422 C 140.37495 57.357422 140.17977 57.383465 139.98438 57.435547 L 139.61328 57.357422 C 139.48308 57.357422 138.14189 57.676435 135.58984 58.314453 C 135.49876 58.314453 135.42716 57.774085 135.375 56.693359 C 135.12744 55.195967 135.00391 54.173828 135.00391 53.626953 C 135.05569 53.522789 135.08203 53.44466 135.08203 53.392578 C 134.74354 52.572266 134.57422 52.110023 134.57422 52.005859 L 134.57422 51.947266 C 134.57422 51.8301 134.59388 51.73242 134.63281 51.654297 C 134.47672 50.130864 134.37877 49.369141 134.33984 49.369141 C 134.3008 47.780601 133.61719 45.345692 132.28906 42.064453 C 132.10678 40.905601 131.62498 39.733721 130.84375 38.548828 L 130.84375 38.392578 C 131.76834 38.106135 132.30207 37.839205 132.44531 37.591797 L 134.78906 36.712891 C 134.84114 36.504563 134.98442 36.283197 135.21875 36.048828 L 135.21875 35.970703 C 135.21875 35.931661 135.12118 35.83398 134.92578 35.677734 C 134.66537 35.013679 133.86717 34.588555 132.52344 34.505859 z M 153.67578 34.603516 C 152.64208 34.62419 151.98961 34.818344 151.70312 34.935547 C 151.70312 34.857424 151.54026 34.798808 151.21484 34.759766 C 151.11091 34.824925 151.03263 34.857422 150.98047 34.857422 C 149.1576 35.560535 148.14185 35.912109 147.93359 35.912109 C 145.31642 37.005856 143.7604 37.552734 143.26562 37.552734 L 143.03125 37.552734 C 142.26302 36.901707 141.65754 36.576172 141.21484 36.576172 L 140.57031 36.576172 C 139.81513 36.576172 139.2943 36.875653 139.00781 37.474609 L 139.49609 38.294922 C 140.9935 40.169919 142.25 41.91472 143.26562 43.529297 C 143.59108 44.427743 143.83849 44.974634 144.00781 45.169922 C 144.59375 46.185545 145.27733 47.98894 146.05859 50.580078 L 145.98047 51.166016 C 145.98047 51.452474 146.14333 52.136071 146.46875 53.216797 C 146.59922 54.505854 146.73566 55.404296 146.87891 55.912109 L 147.62109 59.037109 L 147.52344 59.193359 C 147.52344 61.107414 148.26563 62.064453 149.75 62.064453 C 149.8802 62.064453 150.12746 62.005875 150.49219 61.888672 C 151.3125 62.331368 152.10028 62.552734 152.85547 62.552734 C 153.61066 62.409505 154.37889 61.947263 155.16016 61.166016 C 156.21483 60.853517 157.66019 59.974603 159.49609 58.529297 C 159.67838 58.360023 160.1732 58.119132 160.98047 57.806641 C 161.52733 57.220704 162.34765 56.641272 163.44141 56.068359 C 163.44141 55.91211 163.65624 55.612629 164.08594 55.169922 L 164.08594 54.935547 C 163.92984 54.792341 163.85156 54.681638 163.85156 54.603516 C 163.57823 54.395184 163.44141 54.232438 163.44141 54.115234 C 163.37602 54.115234 163.29144 54.141277 163.1875 54.193359 C 162.96613 53.971989 162.52993 53.835285 161.87891 53.783203 C 161.48829 54.134752 160.69402 54.434233 159.49609 54.681641 C 158.16801 55.3457 157.04819 55.840485 156.13672 56.166016 C 154.44402 57.311844 152.77734 58.294926 151.13672 59.115234 C 151.00625 59.115234 150.86981 58.705074 150.72656 57.884766 C 150.72656 57.650386 150.75253 57.429031 150.80469 57.220703 C 150.47916 54.473315 150.12757 52.233718 149.75 50.501953 L 149.75 50.423828 C 150.3099 50.697277 150.72006 50.833984 150.98047 50.833984 C 153.22007 50.235039 154.41812 49.935547 154.57422 49.935547 C 154.7435 49.935547 155.42708 49.414711 156.625 48.373047 C 157.95313 48.021487 158.7474 47.63737 159.00781 47.220703 C 160.01041 46.777996 160.63525 46.400382 160.88281 46.087891 L 160.88281 45.833984 C 160.77888 45.70378 160.72656 45.593078 160.72656 45.501953 C 160.34895 45.124348 159.55467 44.772796 158.34375 44.447266 L 158.10938 44.447266 C 155.21875 45.31966 152.23697 46.576176 149.16406 48.216797 L 148.92969 48.216797 C 148.7604 47.539713 148.46094 46.634761 148.03125 45.501953 C 148.03125 45.215495 147.58855 44.369136 146.70312 42.962891 C 145.83074 41.647793 145.39453 40.827484 145.39453 40.501953 L 147.03516 40.169922 C 148.4154 39.518894 149.18375 39.193359 149.33984 39.193359 C 149.45705 39.193359 150.90236 38.646481 153.67578 37.552734 C 154.87363 36.849614 155.55724 36.302735 155.72656 35.912109 L 155.72656 35.677734 C 155.64844 35.547526 155.23828 35.215495 154.49609 34.681641 L 154.16406 34.681641 L 154.00781 34.759766 C 154.00781 34.694644 153.90066 34.59898 153.67578 34.603516 z M 100.57812 34.623047 C 100.42188 34.623047 100.20052 34.720715 99.914062 34.916016 C 100.17447 36.205074 100.39584 36.849609 100.57812 36.849609 C 100.95573 37.878251 101.27474 38.594401 101.53516 38.998047 C 101.99088 40.846999 102.36201 42.181644 102.64844 43.001953 L 102.58984 43.431641 L 102.58984 43.587891 C 102.58984 43.783204 102.66147 44.225914 102.80469 44.916016 C 103.35156 47.064445 103.625 48.301432 103.625 48.626953 C 103.57292 48.71809 103.54687 48.789715 103.54688 48.841797 C 103.66406 48.919922 103.78775 49.317061 103.91797 50.033203 C 104.16536 51.543616 104.4388 52.75456 104.73828 53.666016 C 104.73828 53.770179 104.71224 53.867847 104.66016 53.958984 C 104.71224 54.011066 104.73828 54.20638 104.73828 54.544922 C 104.92058 55.326168 105.11589 56.413416 105.32422 57.806641 C 105.76692 59.850906 105.98828 61.016276 105.98828 61.302734 C 106.19661 62.136065 106.88672 62.552734 108.05859 62.552734 L 108.13672 62.552734 C 108.77474 62.552734 109.09375 62.253254 109.09375 61.654297 C 109.09375 61.511068 109.04817 61.120441 108.95703 60.482422 L 109.09375 60.033203 L 108.87891 58.705078 L 108.87891 58.099609 C 108.77473 58.099609 108.62499 57.435543 108.42969 56.107422 L 108.42969 56.029297 L 108.50781 55.580078 L 108.21484 54.115234 L 108.29297 54.115234 L 108.21484 53.744141 C 108.21484 53.692059 108.24089 53.613929 108.29297 53.509766 L 108.21484 53.373047 C 108.21484 53.24284 108.24089 53.041014 108.29297 52.767578 C 107.7461 51.426428 107.47266 50.710278 107.47266 50.619141 L 108.50781 50.482422 L 109.77734 52.025391 C 109.79037 52.103516 110.50652 52.695968 111.92578 53.802734 C 112.66797 54.258462 113.38412 54.850914 114.07422 55.580078 C 114.85547 56.231117 116.26173 57.468104 118.29297 59.291016 L 119.91406 59.955078 L 120.89062 59.955078 C 121.33333 59.955078 121.8737 59.610023 122.51172 58.919922 L 122.51172 58.783203 C 122.21224 58.431639 122.0625 58.229816 122.0625 58.177734 L 120.36328 56.849609 C 120.3112 56.563151 119.96614 56.263671 119.32812 55.951172 C 118.14324 54.974625 117.55078 54.362642 117.55078 54.115234 L 115.10938 52.103516 C 113.37761 50.970708 112.36198 50.182941 112.0625 49.740234 C 111.19011 48.490246 110.6237 47.800139 110.36328 47.669922 C 111.09245 46.602218 111.75651 45.860025 112.35547 45.443359 C 113.73567 43.607426 114.65365 42.468097 115.10938 42.025391 C 115.26561 41.647783 115.43489 41.354812 115.61719 41.146484 C 117.04947 39.909508 117.76562 39.141274 117.76562 38.841797 C 118.45573 38.333985 118.80078 37.813148 118.80078 37.279297 L 118.80078 36.986328 C 118.24089 36.400393 117.60286 36.107422 116.88672 36.107422 C 116.44401 36.185557 116.22266 36.2832 116.22266 36.400391 C 115.9362 36.856116 115.07031 37.695967 113.625 38.919922 L 110.57812 42.181641 C 110.27866 42.754562 109.95963 43.145188 109.62109 43.353516 C 108.42318 44.955073 107.51172 46.094405 106.88672 46.771484 C 106.88672 46.576184 106.80859 46.478516 106.65234 46.478516 C 106.65234 46.426434 106.67839 46.348304 106.73047 46.244141 C 106.73047 46.2181 106.70443 46.074868 106.65234 45.814453 C 106.10547 44.486332 105.83203 43.646483 105.83203 43.294922 C 105.83203 43.229818 105.85807 42.982421 105.91016 42.552734 L 105.83203 42.025391 C 105.44141 40.879561 105.24609 40.137368 105.24609 39.798828 C 104.43881 38.001968 103.94402 37.064464 103.76172 36.986328 C 103.07162 35.410812 102.01041 34.623047 100.57812 34.623047 z M 92.306641 36.058594 C 91.944102 36.786534 91.583333 37.515086 91.269531 38.255859 L 93.203125 42.552734 C 93.619795 43.985034 93.906254 44.824883 94.0625 45.072266 C 94.244784 46.621738 94.453119 47.845704 94.6875 48.744141 C 94.622391 48.744141 94.589844 48.776688 94.589844 48.841797 L 94.589844 49.623047 C 94.589844 49.935551 94.622391 50.195969 94.6875 50.404297 C 94.622391 50.716796 94.589844 51.009767 94.589844 51.283203 L 94.589844 52.416016 C 94.589844 54.707677 93.977861 56.862637 92.753906 58.880859 C 91.412764 60.339188 90.397133 61.068359 89.707031 61.068359 L 89.355469 60.892578 C 88.917269 60.572203 88.506928 60.233274 88.113281 59.884766 C 87.957925 60.069758 87.817136 60.253759 87.654297 60.439453 C 87.660422 61.004096 87.643243 61.549683 87.623047 62.09375 C 88.588185 62.392054 89.433359 62.552734 90.136719 62.552734 L 91.015625 62.552734 C 93.502597 62.552734 95.36459 61.738929 96.601562 60.111328 C 97.135416 60.111328 97.838544 57.865219 98.710938 53.373047 L 98.613281 53.197266 C 98.730472 53.197266 98.82161 52.643879 98.886719 51.537109 C 98.82161 51.237625 98.789062 51.068352 98.789062 51.029297 C 98.906253 50.117841 98.964844 49.297523 98.964844 48.568359 C 98.444012 46.406908 97.832029 44.251945 97.128906 42.103516 C 96.19141 40.762375 95.722656 40.007163 95.722656 39.837891 C 95.397136 38.561852 94.817705 37.630857 93.984375 37.044922 C 93.450039 36.676751 92.890711 36.348499 92.306641 36.058594 z "
       transform="matrix(0.26458333,0,0,0.26458333,65.984806,34.710995)" />
    <path
       style="fill:#eca000;stroke:none;stroke-width:0.264583px;stroke-linecap:butt;stroke-linejoin:miter;stroke-opacity:1;fill-opacity:1"
       d="m 70.877267,57.639842 c -0.09717,-0.03955 -1.028278,-0.140071 -1.095327,-0.07302 -0.04178,0.04178 0,0.309498 0,0.365109 0,0.112956 -0.03674,0.327923 0,0.438131 0.02434,0.04868 0.04868,0.09736 0.07302,0.146044 0.04868,0.02434 0.121703,0.02434 0.146043,0.07302 0.08384,0.16769 -0.137139,0.625138 0.07302,0.730218 0.153817,0.07691 0.217965,-0.267013 0.365109,-0.365109 0.259809,-0.173206 0.0227,-0.06044 0.365109,-0.146043 0.110428,-0.02761 0.07302,-1.018022 0.07302,-1.168349 z"
       id="path9264" />
    <path
       style="fill:#eca000;stroke:none;stroke-width:0.264583px;stroke-linecap:butt;stroke-linejoin:miter;stroke-opacity:1;fill-opacity:1"
       d="m 73.944183,55.52221 c -0.343445,0.06497 -0.391213,0.06526 -0.511153,0.365108 -0.0653,0.163259 -0.07479,0.295617 -0.146043,0.438131 -0.187454,0.374906 0.394942,0.349672 0.43813,0.292088 0.05585,-0.07447 0.678449,-0.938658 0.511153,-1.022306 -0.08976,-0.04488 -0.194725,-0.04868 -0.292087,-0.07302 z"
       id="path9268" />
    <path
       style="fill:#eca000;stroke:none;stroke-width:0.264583px;stroke-linecap:butt;stroke-linejoin:miter;stroke-opacity:1;fill-opacity:1"
       d="m 79.420818,56.690558 c 0.351768,0.406433 0.819896,0.754375 1.387414,0.511153 0.11073,-0.04746 -0.05872,-0.423827 -0.07302,-0.438131 -0.03442,-0.03442 -0.102502,0.02177 -0.146044,0 -0.343991,-0.171995 -0.705001,-0.188858 -1.168349,-0.07302 z"
       id="path9270" />
  </g>
</svg>
