<?xml version="1.0" encoding="UTF-8" standalone="no"?>
<!-- Created with Inkscape (http://www.inkscape.org/) -->

<svg
   width="50.068718mm"
   height="27.414049mm"
   viewBox="0 0 50.068718 27.414049"
   version="1.1"
   id="svg5"
   inkscape:version="1.1.1 (3bf5ae0d25, 2021-09-20)"
   sodipodi:docname="cookie bite.svg"
   xmlns:inkscape="http://www.inkscape.org/namespaces/inkscape"
   xmlns:sodipodi="http://sodipodi.sourceforge.net/DTD/sodipodi-0.dtd"
   xmlns="http://www.w3.org/2000/svg"
   xmlns:svg="http://www.w3.org/2000/svg">
  <sodipodi:namedview
     id="namedview7"
     pagecolor="#ffffff"
     bordercolor="#666666"
     borderopacity="1.0"
     inkscape:pageshadow="2"
     inkscape:pageopacity="0.0"
     inkscape:pagecheckerboard="0"
     inkscape:document-units="mm"
     showgrid="false"
     inkscape:zoom="3.6233469"
     inkscape:cx="-15.593318"
     inkscape:cy="69.96294"
     inkscape:window-width="1920"
     inkscape:window-height="1147"
     inkscape:window-x="-8"
     inkscape:window-y="22"
     inkscape:window-maximized="1"
     inkscape:current-layer="layer1"
     fit-margin-top="0"
     fit-margin-left="0"
     fit-margin-right="0"
     fit-margin-bottom="0" />
  <defs
     id="defs2" />
  <g
     inkscape:label="Layer 1"
     inkscape:groupmode="layer"
     id="layer1"
     transform="translate(-65.984806,-34.710995)">
    <path
       id="path869"
       style="fill:#eca000;fill-opacity:1;stroke:none;stroke-width:2.13543;stroke-linecap:butt;stroke-linejoin:miter;stroke-miterlimit:4;stroke-dasharray:none;stroke-opacity:1"
       d="M 35.490234 1.0605469 C 28.589588 1.0822206 21.485495 3.1003053 14.855469 8.0449219 C 7.1342856 13.229815 3.1756348 19.916334 1.7324219 26.724609 C 3.1800787 27.772622 4.7295166 29.231533 6.4121094 31.224609 C 23.916148 29.415682 23.682823 37.830375 26.369141 44.5625 C 33.704134 47.094039 38.770725 52.336009 39.408203 62.869141 C 47.464871 70.832681 48.762001 79.590955 46.583984 88.755859 C 47.511751 90.922823 48.243582 93.094466 48.734375 95.271484 C 55.053639 90.813765 59.610735 85.60484 61.769531 83.673828 C 79.26693 82.018199 104.21399 81.338558 123.37305 81.796875 C 134.22305 105.62863 179.1816 108.49527 186.71484 82.025391 C 189.2884 72.83144 185.38357 62.180864 177.74609 50.880859 C 182.9666 43.946723 188.6941 36.568037 188.12891 25.755859 C 187.56368 14.943686 173.00768 4.6798852 162.72461 2.7792969 C 144.56814 -0.25561084 131.75526 12.176713 125.93555 19.232422 C 113.27829 19.98081 83.611165 19.354423 65.960938 18.142578 C 61.559606 11.436906 60.820652 6.6731323 47.544922 2.9785156 C 43.698241 1.7542676 39.630622 1.0475426 35.490234 1.0605469 z "
       transform="matrix(0.26458333,0,0,0.26458333,65.984806,34.710995)" />
    <g
       aria-label="COOK IE"
       id="text6012"
       style="font-size:10.5833px;line-height:1.25;font-family:'Anxiety Management';-inkscape-font-specification:'Anxiety Management';letter-spacing:0.679979px;word-spacing:0px;fill:#000000;stroke-width:0.264583" />
    <path
       id="path8088"
       style="color:#000000;fill:#a05a2c;stroke-width:3.77953;-inkscape-stroke:none"
       d="M 34.955078 0.005859375 C 28.023171 0.13386806 20.890933 2.2292665 14.259766 7.1601562 C 14.253718 7.1643137 14.252141 7.1716238 14.246094 7.1757812 C 6.4795758 12.397501 2.3614797 19.180495 0.78125 26.091797 C 1.3902909 26.469508 2.0183905 26.920203 2.6660156 27.453125 C 3.9514539 20.721137 7.7469917 14.103802 15.449219 8.9316406 L 15.470703 8.9179688 L 15.494141 8.9023438 C 20.653041 5.054883 26.083329 3.0319375 31.474609 2.3691406 C 36.86589 1.70634 42.21741 2.4018748 47.220703 3.9941406 C 47.220703 3.9941406 47.257057 4.0078125 47.257812 4.0078125 C 53.786395 5.824707 57.069241 7.8381566 59.3125 10.171875 C 61.555763 12.50559 62.821055 15.301648 65.070312 18.728516 L 65.357422 19.169922 L 65.888672 19.207031 C 83.595335 20.42275 113.20954 21.057046 126 20.300781 L 126.46484 20.271484 L 126.75977 19.916016 C 132.4801 12.980798 144.93342 0.89872857 162.5332 3.8320312 C 167.42554 4.7362643 173.531 7.7037652 178.38867 11.744141 C 183.24639 15.78452 186.8039 20.867996 187.0625 25.814453 C 187.60671 36.225778 182.1179 43.297118 176.89062 50.240234 L 176.43359 50.845703 L 176.86133 51.480469 C 184.41902 62.662466 188.12193 73.022335 185.68164 81.740234 C 183.87488 88.078532 179.8732 92.617125 174.63867 95.580078 C 169.4013 98.54463 162.92221 99.895596 156.31836 99.707031 C 143.11061 99.32991 129.54696 92.779881 124.3457 81.355469 L 124.06641 80.742188 L 123.40234 80.728516 C 104.19599 80.269069 79.230943 80.949292 61.666016 82.611328 L 61.320312 82.640625 L 61.054688 82.876953 C 58.786785 84.905559 54.416369 89.876997 48.458984 94.173828 C 48.655113 94.920739 48.8261 95.667784 48.964844 96.416016 C 55.449998 91.9415 60.101168 86.680631 62.220703 84.728516 C 79.492675 83.113278 103.90917 82.450272 122.84766 82.882812 C 128.71463 94.834676 142.66051 101.45159 156.25781 101.83984 C 163.19124 102.03782 170.03752 100.63172 175.6875 97.433594 C 181.33748 94.235475 185.78095 89.205715 187.74219 82.314453 C 190.39451 72.839166 186.39055 62.126019 178.97266 50.957031 C 184.08783 44.167012 189.7667 36.626387 189.19531 25.695312 C 188.88879 19.829603 184.88673 14.374676 179.75391 10.105469 C 174.62108 5.836258 168.30676 2.722914 162.91602 1.7265625 L 162.9082 1.7265625 L 162.90234 1.7265625 C 144.49756 -1.349852 131.53317 10.929644 125.48242 18.160156 C 112.92506 18.872087 84.068576 18.262249 66.539062 17.082031 C 64.580984 14.011619 63.258409 11.195462 60.847656 8.6875 C 59.011845 6.7776594 56.0969 5.1631536 52.34375 3.6679688 C 52.361892 3.6108223 52.423904 3.410194 52.423828 3.4101562 C 52.422955 3.4098803 52.417527 3.4105418 52.416016 3.4101562 C 52.410346 3.4084063 52.382193 3.3975549 52.373047 3.3945312 C 52.345834 3.3858383 52.241687 3.3507155 52.195312 3.3359375 C 52.141908 3.3189296 51.788707 3.2051493 51.714844 3.1816406 C 50.434854 2.7742642 47.885873 1.9657291 47.876953 1.9628906 C 47.87427 1.9621423 47.872164 1.963639 47.869141 1.9628906 C 47.853645 1.9587331 47.847527 1.9533762 47.832031 1.9492188 L 47.832031 1.9570312 C 45.215657 1.1267787 42.496293 0.52085431 39.712891 0.22070312 C 38.143025 0.051414542 36.554749 -0.02368109 34.955078 0.005859375 z M 63.310547 34.505859 C 62.360021 34.557941 61.865227 34.616532 61.826172 34.681641 C 60.94076 34.876954 60.179035 35.664719 59.541016 37.044922 L 59.716797 37.298828 L 59.716797 37.396484 C 58.089196 39.310543 57.275391 40.619145 57.275391 41.322266 C 56.923829 41.738933 56.546222 43.692071 56.142578 47.181641 C 56.259769 47.689453 56.318359 48.38607 56.318359 49.271484 L 56.396484 49.447266 L 56.318359 49.447266 C 56.552733 51.074866 56.695965 51.888672 56.748047 51.888672 C 56.748047 53.255853 57.594405 55.235034 59.287109 57.826172 C 59.820963 59.011064 61.103524 60.267582 63.134766 61.595703 C 64.723304 62.233723 66.031906 62.552734 67.060547 62.552734 L 67.939453 62.552734 C 70.426425 62.552734 72.288414 61.738929 73.525391 60.111328 C 74.059241 60.111328 74.762373 57.865219 75.634766 53.373047 L 75.537109 53.197266 C 75.6543 53.197266 75.745438 52.643879 75.810547 51.537109 C 75.745438 51.237625 75.712891 51.068352 75.712891 51.029297 C 75.830081 50.117841 75.888672 49.297523 75.888672 48.568359 C 75.36784 46.406908 74.755858 44.251945 74.052734 42.103516 C 73.115238 40.762375 72.646484 40.007163 72.646484 39.837891 C 72.320964 38.561852 71.741534 37.630857 70.908203 37.044922 C 68.772793 35.573574 66.240225 34.727214 63.310547 34.505859 z M 86.386719 34.505859 C 85.436195 34.557941 84.941399 34.616532 84.902344 34.681641 C 84.016929 34.876954 83.255205 35.664719 82.617188 37.044922 L 82.792969 37.298828 L 82.792969 37.396484 C 81.165371 39.310543 80.351562 40.619145 80.351562 41.322266 C 80.000001 41.738933 79.622396 43.692071 79.21875 47.181641 C 79.335941 47.689453 79.394531 48.38607 79.394531 49.271484 L 79.472656 49.447266 L 79.394531 49.447266 C 79.628907 51.074866 79.772137 51.888672 79.824219 51.888672 C 79.824219 53.255853 80.67058 55.235034 82.363281 57.826172 C 82.897134 59.011064 84.179693 60.267582 86.210938 61.595703 C 87.799473 62.233723 89.108075 62.552734 90.136719 62.552734 L 91.015625 62.552734 C 93.502597 62.552734 95.364589 61.738929 96.601562 60.111328 C 97.135416 60.111328 97.838544 57.865219 98.710938 53.373047 L 98.613281 53.197266 C 98.730472 53.197266 98.82161 52.643879 98.886719 51.537109 C 98.82161 51.237625 98.789062 51.068352 98.789062 51.029297 C 98.906253 50.117841 98.964844 49.297523 98.964844 48.568359 C 98.444012 46.406908 97.832029 44.251945 97.128906 42.103516 C 96.19141 40.762375 95.722656 40.007163 95.722656 39.837891 C 95.397136 38.561852 94.817705 37.630857 93.984375 37.044922 C 91.848967 35.573574 89.316399 34.727214 86.386719 34.505859 z M 132.52344 34.505859 C 132.48447 34.503478 131.99611 34.557946 131.05859 34.662109 C 130.36849 35.02669 129.26821 35.319649 127.75781 35.541016 C 127.32813 35.645183 126.59895 36.009768 125.57031 36.634766 C 124.09894 37.077473 122.90103 37.565755 121.97656 38.099609 L 121.97656 38.177734 L 122.05469 38.548828 C 122.70572 39.499345 123.53255 40.130868 124.53516 40.443359 C 125.00401 40.339196 125.25127 40.241515 125.27734 40.150391 L 127.62109 39.486328 L 127.75781 39.642578 C 128.68227 41.608715 129.39194 43.659511 129.88672 45.794922 C 129.83494 45.794922 129.80859 45.814473 129.80859 45.853516 C 130.25118 47.468096 130.47266 48.542321 130.47266 49.076172 C 130.95443 51.289709 131.34519 53.392584 131.64453 55.384766 C 131.59275 55.384766 131.54044 55.456403 131.48828 55.599609 C 131.7488 57.474603 131.94383 58.522774 132.07422 58.744141 C 132.07422 59.434241 131.7357 59.922534 131.05859 60.208984 C 131.05859 61.055334 131.88541 61.836589 133.53906 62.552734 C 133.79947 62.552734 134.06621 62.481097 134.33984 62.337891 C 137.59504 61.166018 139.35287 60.580078 139.61328 60.580078 C 140.94141 60.072268 141.84635 59.362628 142.32812 58.451172 C 142.32812 57.91731 141.74219 57.55271 140.57031 57.357422 C 140.37495 57.357422 140.17978 57.383465 139.98438 57.435547 L 139.61328 57.357422 C 139.48308 57.357422 138.14189 57.676435 135.58984 58.314453 C 135.49876 58.314453 135.42716 57.774085 135.375 56.693359 C 135.12744 55.195967 135.00391 54.173828 135.00391 53.626953 C 135.05569 53.522789 135.08203 53.44466 135.08203 53.392578 C 134.74354 52.572266 134.57422 52.110023 134.57422 52.005859 L 134.57422 51.947266 C 134.57422 51.8301 134.59388 51.73242 134.63281 51.654297 C 134.47672 50.130864 134.37877 49.369141 134.33984 49.369141 C 134.3008 47.780601 133.61719 45.345692 132.28906 42.064453 C 132.10678 40.905601 131.62498 39.733721 130.84375 38.548828 L 130.84375 38.392578 C 131.76834 38.106135 132.30207 37.839205 132.44531 37.591797 L 134.78906 36.712891 C 134.84114 36.504563 134.98442 36.283197 135.21875 36.048828 L 135.21875 35.970703 C 135.21875 35.931661 135.12118 35.83398 134.92578 35.677734 C 134.66537 35.013679 133.86717 34.588555 132.52344 34.505859 z M 153.67578 34.603516 C 152.64208 34.62419 151.98961 34.818344 151.70312 34.935547 C 151.70312 34.857424 151.54026 34.798808 151.21484 34.759766 C 151.11091 34.824925 151.03263 34.857422 150.98047 34.857422 C 149.1576 35.560535 148.14185 35.912109 147.93359 35.912109 C 145.31642 37.005856 143.7604 37.552734 143.26562 37.552734 L 143.03125 37.552734 C 142.26302 36.901707 141.65754 36.576172 141.21484 36.576172 L 140.57031 36.576172 C 139.81513 36.576172 139.2943 36.875653 139.00781 37.474609 L 139.49609 38.294922 C 140.9935 40.169919 142.24999 41.91472 143.26562 43.529297 C 143.59108 44.427743 143.83849 44.974634 144.00781 45.169922 C 144.59375 46.185545 145.27733 47.98894 146.05859 50.580078 L 145.98047 51.166016 C 145.98047 51.452474 146.14333 52.136071 146.46875 53.216797 C 146.59922 54.505854 146.73566 55.404296 146.87891 55.912109 L 147.62109 59.037109 L 147.52344 59.193359 C 147.52344 61.107414 148.26563 62.064453 149.75 62.064453 C 149.8802 62.064453 150.12746 62.005875 150.49219 61.888672 C 151.3125 62.331368 152.10028 62.552734 152.85547 62.552734 C 153.61066 62.409505 154.37889 61.947263 155.16016 61.166016 C 156.21483 60.853517 157.66019 59.974603 159.49609 58.529297 C 159.67838 58.360023 160.1732 58.119132 160.98047 57.806641 C 161.52733 57.220704 162.34765 56.641272 163.44141 56.068359 C 163.44141 55.91211 163.65624 55.612629 164.08594 55.169922 L 164.08594 54.935547 C 163.92984 54.792341 163.85156 54.681638 163.85156 54.603516 C 163.57823 54.395184 163.44141 54.232438 163.44141 54.115234 C 163.37602 54.115234 163.29144 54.141277 163.1875 54.193359 C 162.96613 53.971989 162.52993 53.835285 161.87891 53.783203 C 161.48829 54.134752 160.69402 54.434233 159.49609 54.681641 C 158.16801 55.3457 157.04819 55.840485 156.13672 56.166016 C 154.44402 57.311844 152.77734 58.294926 151.13672 59.115234 C 151.00625 59.115234 150.86981 58.705074 150.72656 57.884766 C 150.72656 57.650386 150.75253 57.429031 150.80469 57.220703 C 150.47916 54.473315 150.12757 52.233718 149.75 50.501953 L 149.75 50.423828 C 150.3099 50.697277 150.72006 50.833984 150.98047 50.833984 C 153.22007 50.235039 154.41812 49.935547 154.57422 49.935547 C 154.7435 49.935547 155.42708 49.414711 156.625 48.373047 C 157.95313 48.021487 158.7474 47.63737 159.00781 47.220703 C 160.01041 46.777996 160.63525 46.400382 160.88281 46.087891 L 160.88281 45.833984 C 160.77888 45.70378 160.72656 45.593078 160.72656 45.501953 C 160.34895 45.124348 159.55467 44.772796 158.34375 44.447266 L 158.10938 44.447266 C 155.21875 45.31966 152.23697 46.576176 149.16406 48.216797 L 148.92969 48.216797 C 148.7604 47.539713 148.46094 46.634761 148.03125 45.501953 C 148.03125 45.215495 147.58855 44.369136 146.70312 42.962891 C 145.83073 41.647793 145.39453 40.827484 145.39453 40.501953 L 147.03516 40.169922 C 148.4154 39.518894 149.18375 39.193359 149.33984 39.193359 C 149.45705 39.193359 150.90236 38.646481 153.67578 37.552734 C 154.87363 36.849614 155.55724 36.302735 155.72656 35.912109 L 155.72656 35.677734 C 155.64844 35.547526 155.23828 35.215495 154.49609 34.681641 L 154.16406 34.681641 L 154.00781 34.759766 C 154.00781 34.694644 153.90066 34.59898 153.67578 34.603516 z M 47.087891 34.623047 C 45.134772 35.039715 43.722002 35.521487 42.849609 36.068359 C 41.70378 36.524087 40.004549 37.936857 37.751953 40.306641 L 35.525391 43.490234 C 34.835284 44.688148 34.386062 45.970707 34.177734 47.337891 C 33.926989 47.693112 33.721692 48.150072 33.556641 48.695312 C 36.690853 51.5962 38.746254 55.786234 39.308594 61.759766 C 40.259864 62.08492 41.756607 62.349665 43.806641 62.552734 L 44.001953 62.552734 C 46.189445 62.552734 48.565762 61.302728 51.130859 58.802734 C 52.224607 58.07357 52.771484 57.36393 52.771484 56.673828 C 52.771484 56.205073 52.673842 55.951164 52.478516 55.912109 L 52.009766 55.912109 C 51.736329 55.912109 51.378253 56.009777 50.935547 56.205078 C 50.831383 56.205078 50.766288 56.139983 50.740234 56.009766 C 49.880863 56.009766 48.85872 56.647792 47.673828 57.923828 C 44.418629 59.603511 42.328772 60.443359 41.404297 60.443359 C 40.740236 60.443359 39.93945 59.668616 39.001953 58.119141 C 38.168623 56.166022 37.751953 54.531896 37.751953 53.216797 L 37.751953 52.923828 C 37.804035 50.853521 38.220705 48.861322 39.001953 46.947266 C 39.001953 45.69727 39.770187 44.284501 41.306641 42.708984 C 41.554036 42.266278 41.970706 41.784503 42.556641 41.263672 C 43.754552 39.961592 44.620444 39.095703 45.154297 38.666016 C 46.365149 38.054029 46.977132 37.702465 46.990234 37.611328 C 49.112623 36.764991 50.173828 36.218111 50.173828 35.970703 L 50.173828 35.677734 C 49.353519 35.104829 48.324867 34.753264 47.087891 34.623047 z M 100.57812 34.623047 C 100.42187 34.623047 100.20052 34.720715 99.914062 34.916016 C 100.17447 36.205074 100.39583 36.849609 100.57812 36.849609 C 100.95573 37.878251 101.27474 38.594401 101.53516 38.998047 C 101.99088 40.846999 102.36201 42.181644 102.64844 43.001953 L 102.58984 43.431641 L 102.58984 43.587891 C 102.58984 43.783204 102.66147 44.225914 102.80469 44.916016 C 103.35156 47.064445 103.625 48.301432 103.625 48.626953 C 103.57292 48.71809 103.54688 48.789715 103.54688 48.841797 C 103.66407 48.919922 103.78775 49.317061 103.91797 50.033203 C 104.16536 51.543616 104.4388 52.75456 104.73828 53.666016 C 104.73828 53.770179 104.71224 53.867847 104.66016 53.958984 C 104.71224 54.011066 104.73828 54.20638 104.73828 54.544922 C 104.92058 55.326168 105.11589 56.413416 105.32422 57.806641 C 105.76692 59.850906 105.98828 61.016276 105.98828 61.302734 C 106.19661 62.136065 106.88672 62.552734 108.05859 62.552734 L 108.13672 62.552734 C 108.77474 62.552734 109.09375 62.253254 109.09375 61.654297 C 109.09375 61.511068 109.04817 61.120441 108.95703 60.482422 L 109.09375 60.033203 L 108.87891 58.705078 L 108.87891 58.099609 C 108.77473 58.099609 108.62499 57.435543 108.42969 56.107422 L 108.42969 56.029297 L 108.50781 55.580078 L 108.21484 54.115234 L 108.29297 54.115234 L 108.21484 53.744141 C 108.21484 53.692059 108.24089 53.613929 108.29297 53.509766 L 108.21484 53.373047 C 108.21484 53.24284 108.24089 53.041014 108.29297 52.767578 C 107.7461 51.426428 107.47266 50.710278 107.47266 50.619141 L 108.50781 50.482422 L 109.77734 52.025391 C 109.79037 52.103516 110.50652 52.695968 111.92578 53.802734 C 112.66797 54.258462 113.38412 54.850914 114.07422 55.580078 C 114.85547 56.231117 116.26173 57.468104 118.29297 59.291016 L 119.91406 59.955078 L 120.89062 59.955078 C 121.33333 59.955078 121.8737 59.610023 122.51172 58.919922 L 122.51172 58.783203 C 122.21224 58.431639 122.0625 58.229816 122.0625 58.177734 L 120.36328 56.849609 C 120.3112 56.563151 119.96614 56.263671 119.32812 55.951172 C 118.14323 54.974625 117.55078 54.362642 117.55078 54.115234 L 115.10938 52.103516 C 113.37761 50.970708 112.36198 50.182941 112.0625 49.740234 C 111.19011 48.490246 110.6237 47.800139 110.36328 47.669922 C 111.09245 46.602218 111.75651 45.860025 112.35547 45.443359 C 113.73567 43.607426 114.65365 42.468097 115.10938 42.025391 C 115.26562 41.647783 115.43489 41.354812 115.61719 41.146484 C 117.04947 39.909508 117.76562 39.141274 117.76562 38.841797 C 118.45573 38.333985 118.80078 37.813148 118.80078 37.279297 L 118.80078 36.986328 C 118.24089 36.400393 117.60286 36.107422 116.88672 36.107422 C 116.44401 36.185557 116.22266 36.2832 116.22266 36.400391 C 115.9362 36.856116 115.07031 37.695967 113.625 38.919922 L 110.57812 42.181641 C 110.27865 42.754562 109.95963 43.145188 109.62109 43.353516 C 108.42318 44.955073 107.51172 46.094405 106.88672 46.771484 C 106.88672 46.576184 106.80859 46.478516 106.65234 46.478516 C 106.65234 46.426434 106.67839 46.348304 106.73047 46.244141 C 106.73047 46.2181 106.70443 46.074868 106.65234 45.814453 C 106.10547 44.486332 105.83203 43.646483 105.83203 43.294922 C 105.83203 43.229818 105.85807 42.982421 105.91016 42.552734 L 105.83203 42.025391 C 105.44141 40.879561 105.24609 40.137368 105.24609 39.798828 C 104.43881 38.001968 103.94402 37.064464 103.76172 36.986328 C 103.07162 35.410812 102.01041 34.623047 100.57812 34.623047 z M 65.673828 36.341797 L 65.927734 36.341797 C 66.292315 36.341797 67.047528 36.979823 68.193359 38.255859 L 70.126953 42.552734 C 70.543621 43.985034 70.830082 44.824883 70.986328 45.072266 C 71.168612 46.621738 71.376947 47.845704 71.611328 48.744141 C 71.546219 48.744141 71.513672 48.776688 71.513672 48.841797 L 71.513672 49.623047 C 71.513672 49.935551 71.546219 50.195969 71.611328 50.404297 C 71.546219 50.716796 71.513672 51.009767 71.513672 51.283203 L 71.513672 52.416016 C 71.513672 54.707677 70.901689 56.862637 69.677734 58.880859 C 68.336594 60.339188 67.320963 61.068359 66.630859 61.068359 L 66.279297 60.892578 C 61.969416 57.741548 59.814453 53.2298 59.814453 47.357422 C 59.866535 47.240231 59.892578 47.149093 59.892578 47.083984 C 59.840496 47.083984 59.814453 47.057941 59.814453 47.005859 C 59.866535 45.847008 60.042317 44.740232 60.341797 43.685547 C 60.4069 41.992845 61.598316 39.863925 63.916016 37.298828 L 63.740234 37.044922 C 64.156897 36.693365 64.801435 36.458987 65.673828 36.341797 z M 88.75 36.341797 L 89.003906 36.341797 C 89.36849 36.341797 90.123702 36.979823 91.269531 38.255859 L 93.203125 42.552734 C 93.619795 43.985034 93.906254 44.824883 94.0625 45.072266 C 94.244784 46.621738 94.453119 47.845704 94.6875 48.744141 C 94.622391 48.744141 94.589844 48.776688 94.589844 48.841797 L 94.589844 49.623047 C 94.589844 49.935551 94.622391 50.195969 94.6875 50.404297 C 94.622391 50.716796 94.589844 51.009767 94.589844 51.283203 L 94.589844 52.416016 C 94.589844 54.707677 93.977861 56.862637 92.753906 58.880859 C 91.412764 60.339188 90.397133 61.068359 89.707031 61.068359 L 89.355469 60.892578 C 85.045585 57.741548 82.890625 53.2298 82.890625 47.357422 C 82.942707 47.240231 82.96875 47.149093 82.96875 47.083984 C 82.916668 47.083984 82.890625 47.057941 82.890625 47.005859 C 82.942709 45.847008 83.118492 44.740232 83.417969 43.685547 C 83.483072 41.992845 84.674485 39.863925 86.992188 37.298828 L 86.816406 37.044922 C 87.233071 36.693365 87.877607 36.458987 88.75 36.341797 z "
       transform="matrix(0.26458333,0,0,0.26458333,65.984806,34.710995)" />
  </g>
</svg>
