<?xml version="1.0" encoding="UTF-8" standalone="no"?>
<!-- Created with Inkscape (http://www.inkscape.org/) -->

<svg
   width="169.536"
   height="140"
   viewBox="0 0 44.856399 37.041666"
   version="1.1"
   id="svg7782"
   xml:space="preserve"
   inkscape:version="1.2.2 (b0a8486541, 2022-12-01)"
   sodipodi:docname="dinos 3.svg"
   xmlns:inkscape="http://www.inkscape.org/namespaces/inkscape"
   xmlns:sodipodi="http://sodipodi.sourceforge.net/DTD/sodipodi-0.dtd"
   xmlns="http://www.w3.org/2000/svg"
   xmlns:svg="http://www.w3.org/2000/svg"><sodipodi:namedview
     id="namedview7784"
     pagecolor="#ffffff"
     bordercolor="#666666"
     borderopacity="1.0"
     inkscape:showpageshadow="2"
     inkscape:pageopacity="0.0"
     inkscape:pagecheckerboard="0"
     inkscape:deskcolor="#d1d1d1"
     inkscape:document-units="mm"
     showgrid="false"
     inkscape:zoom="0.84096521"
     inkscape:cx="788.37982"
     inkscape:cy="497.04791"
     inkscape:window-width="2560"
     inkscape:window-height="1510"
     inkscape:window-x="0"
     inkscape:window-y="54"
     inkscape:window-maximized="1"
     inkscape:current-layer="layer1" /><defs
     id="defs7779" /><g
     inkscape:label="Layer 1"
     inkscape:groupmode="layer"
     id="layer1"
     transform="translate(225.32987,281.68487)"><g
       id="g54695"
       transform="matrix(-0.14847341,0.11411357,0.11411357,0.14847341,-225.28988,-215.26463)"><path
         style="fill:#39b22d;fill-opacity:1;stroke:none;stroke-width:0.264583px;stroke-linecap:butt;stroke-linejoin:miter;stroke-opacity:1"
         d="m -109.55159,-118.00646 c -1.00032,-6.03811 -5.12595,-8.01034 -9.97385,-7.9071 -3.23605,0.0689 -7.03888,0.16273 -9.39378,-2.43377 -5.30135,-4.28751 -10.48983,-8.77798 -15.86132,-12.93936 0,0 -7.38841,-5.27833 -15.66061,-7.23778 -3.44019,-0.81488 -16.2134,-2.6937 -19.19174,4.09004 -4.14744,9.44658 -3.8343,19.37106 -6.37103,28.31568 -2.02729,3.72215 -3.93931,8.21734 -8.96622,7.26917 -2.58392,0.86514 -6.53919,-0.41061 -7.95376,2.37588 -1.70555,2.64834 -3.75627,5.12885 -5.24669,7.881796 -0.092,1.335191 -1.73722,3.009506 -0.39335,4.03119 1.07755,0.986037 1.9247,2.547924 3.13598,3.199748 3.2952,-0.177121 6.33465,-1.70652 9.51356,-2.498514 2.96266,1.232256 6.54713,1.502176 8.88797,3.696769 1.42399,1.335026 1.07604,4.021672 2.5925,5.250661 1.91386,1.551059 4.88268,2.765997 7.16068,1.828258 4.78344,-1.9691 5.03172,-9.045479 7.97602,-13.312046 1.52828,-3.083557 4.93929,-4.372082 7.45238,-6.514822 3.12429,-2.77007 6.60587,-4.71956 10.92091,-3.98583 2.43742,0.17888 6.11392,-1.31799 6.12112,2.20264 0.37625,1.63336 0.88907,3.18609 2.31187,4.20164 1.00185,1.265724 2.04407,2.349184 3.59072,1.155324 2.89314,-1.072004 5.85309,-2.012194 8.30181,-3.961154 2.16387,-1.28727 4.24489,-3.82488 6.61041,-2.10389 l 10.661,-5.3683 c 1.43162,-2.13071 4.52295,-2.72408 3.77542,-7.23623 z"
         id="path8140"
         sodipodi:nodetypes="ssccssccsccccaaaccccsccccs" /><path
         style="fill:#39b22d;fill-opacity:1;stroke:#41cd33;stroke-width:0.264583px;stroke-linecap:butt;stroke-linejoin:miter;stroke-opacity:1"
         d="m -175.86173,-146.27335 11.01222,26.02887"
         id="path30407" /><path
         style="fill:#39b22d;fill-opacity:1;stroke:#41cd33;stroke-width:0.264583px;stroke-linecap:butt;stroke-linejoin:miter;stroke-opacity:1"
         d="m -171.30111,-146.38459 8.23135,24.69406"
         id="path30409" /><path
         style="fill:#39b22d;fill-opacity:1;stroke:#41cd33;stroke-width:0.264583px;stroke-linecap:butt;stroke-linejoin:miter;stroke-opacity:1"
         d="m -167.0742,-147.49693 c 0,0 6.4516,25.91763 6.22913,25.25023"
         id="path30411" /><path
         style="fill:#39b22d;fill-opacity:1;stroke:#41cd33;stroke-width:0.264583px;stroke-linecap:butt;stroke-linejoin:miter;stroke-opacity:1"
         d="m -161.95742,-146.82952 3.11457,25.36146"
         id="path30413" /><path
         style="fill:#39b22d;fill-opacity:1;stroke:#41cd33;stroke-width:0.264583px;stroke-linecap:butt;stroke-linejoin:miter;stroke-opacity:1"
         d="m -157.28557,-145.04977 0.33371,22.5806"
         id="path30415" /><path
         style="fill:#39b22d;fill-opacity:1;stroke:#41cd33;stroke-width:0.264583px;stroke-linecap:butt;stroke-linejoin:miter;stroke-opacity:1"
         d="m -153.8373,-143.27002 -0.22247,20.02221"
         id="path30417" /><path
         style="fill:#39b22d;fill-opacity:1;stroke:#41cd33;stroke-width:0.264583px;stroke-linecap:butt;stroke-linejoin:miter;stroke-opacity:1"
         d="m -151.2789,-142.38015 -1.33482,16.46271"
         id="path30419" /><path
         style="fill:#39b22d;fill-opacity:1;stroke:#41cd33;stroke-width:0.264583px;stroke-linecap:butt;stroke-linejoin:miter;stroke-opacity:1"
         d="m -148.16434,-141.2678 -3.78197,14.90542"
         id="path30421" /><path
         style="fill:#39b22d;fill-opacity:1;stroke:#41cd33;stroke-width:0.264583px;stroke-linecap:butt;stroke-linejoin:miter;stroke-opacity:1"
         d="m -145.82841,-138.59817 -4.78309,12.45826"
         id="path30423" /><path
         style="fill:#39b22d;fill-opacity:1;stroke:#41cd33;stroke-width:0.264583px;stroke-linecap:butt;stroke-linejoin:miter;stroke-opacity:1"
         d="m -142.04644,-137.37459 -5.00555,8.23135"
         id="path30425" /><path
         style="fill:#39b22d;fill-opacity:1;stroke:#41cd33;stroke-width:0.264583px;stroke-linecap:butt;stroke-linejoin:miter;stroke-opacity:1"
         d="m -177.97518,-141.49027 12.12456,23.91542"
         id="path30427" /><path
         style="fill:#39b22d;fill-opacity:1;stroke:#41cd33;stroke-width:0.264583px;stroke-linecap:butt;stroke-linejoin:miter;stroke-opacity:1"
         d="m -180.08864,-135.92854 13.79308,20.46714"
         id="path30429" /><path
         style="fill:#39b22d;fill-opacity:1;stroke:#41cd33;stroke-width:0.264583px;stroke-linecap:butt;stroke-linejoin:miter;stroke-opacity:1"
         d="m -180.97851,-129.69941 14.79418,15.35036"
         id="path30431" /><path
         style="fill:#39b22d;fill-opacity:1;stroke:#41cd33;stroke-width:0.264583px;stroke-linecap:butt;stroke-linejoin:miter;stroke-opacity:1"
         d="m -182.09086,-124.13769 16.46271,11.12345"
         id="path30433" /><path
         style="fill:#39b22d;fill-opacity:1;stroke:#41cd33;stroke-width:0.264583px;stroke-linecap:butt;stroke-linejoin:miter;stroke-opacity:1"
         d="m -182.53579,-118.57596 15.01665,6.34036"
         id="path30435" /><path
         style="fill:#39b22d;fill-opacity:1;stroke:#41cd33;stroke-width:0.264583px;stroke-linecap:butt;stroke-linejoin:miter;stroke-opacity:1"
         d="m -183.87061,-113.23671 c 0,0 13.57061,2.55839 14.01555,2.00222"
         id="path30437" /><path
         style="fill:#318612;fill-opacity:1;stroke:none;stroke-width:0.264583px;stroke-linecap:butt;stroke-linejoin:miter;stroke-opacity:1"
         d="m -109.55159,-118.00646 c -1.00032,-6.03811 -5.12595,-8.01034 -9.97385,-7.9071 -3.23605,0.0689 -7.03888,0.16273 -9.39378,-2.43377 -5.30135,-4.28751 -4.0364,-3.16872 -9.72626,-6.88295 -8.85065,-4.82875 -21.33309,2.33713 -25.02051,7.39199 -5.35258,7.66514 -0.69622,1.69137 -12.27013,13.05667 -2.02729,3.72215 -14.00711,6.88021 -19.03402,5.93204 -2.58392,0.86514 -6.53919,-0.41061 -7.95376,2.37588 -1.70555,2.64834 -3.75627,5.12885 -5.24669,7.881796 -0.092,1.335191 -1.73722,3.009506 -0.39335,4.03119 1.07755,0.986037 1.9247,2.547924 3.13598,3.199748 3.2952,-0.177121 6.33465,-1.70652 9.51356,-2.498514 2.96266,1.232256 6.54713,1.502176 8.88797,3.696769 1.42399,1.335026 1.07604,4.021672 2.5925,5.250661 1.91386,1.551059 4.88268,2.765997 7.16068,1.828258 4.78344,-1.9691 5.03172,-9.045479 7.97602,-13.312046 1.52828,-3.083557 4.93929,-4.372082 7.45238,-6.514822 3.12429,-2.77007 6.60587,-4.71956 10.92091,-3.98583 2.43742,0.17888 6.11392,-1.31799 6.12112,2.20264 0.37625,1.63336 0.88907,3.18609 2.31187,4.20164 1.00185,1.265724 2.04407,2.349184 3.59072,1.155324 2.89314,-1.072004 5.85309,-2.012194 8.30181,-3.961154 2.16387,-1.28727 4.24489,-3.82488 6.61041,-2.10389 l 10.661,-5.3683 c 1.43162,-2.13071 4.52295,-2.72408 3.77542,-7.23623 z"
         id="path8238"
         sodipodi:nodetypes="sscccccsccccaaaccccsccccs" /></g><g
       id="g54675"
       transform="matrix(0.03075483,-0.18471708,0.18471708,0.03075483,-202.14983,-266.65511)"><path
         style="fill:#ec0101;fill-opacity:1;stroke:none;stroke-width:0.264583px;stroke-linecap:butt;stroke-linejoin:miter;stroke-opacity:1"
         d="m -27.029981,-3.8932072 c 6.186414,-1.9846999 10.125193,12.5579326 14.430346,19.3482412 0.908493,6.457018 4.4251902,12.678481 3.1251483,19.338973 5.0321624,3.431306 2.8141371,9.231836 3.2357136,13.82262 3.2076113,5.029083 -1.3154496,9.652742 0.8337204,14.560413 0.4847968,5.237239 -0.6185719,9.409065 -2.4779157,14.157028 -1.2579364,3.212228 -4.0118866,4.220622 -3.7013356,8.21732 -1.530951,4.574084 -5.34093,8.116356 -6.1956,12.964761 -3.870715,3.719931 -3.014779,10.895691 -7.593087,14.096731 -1.099888,1.35429 0.70662,8.8993 -5.561038,9.88573 -6.083393,-0.40846 -10.666975,-10.12276 -11.053693,-16.67774 1.475455,-9.01655 -5.037464,-14.649486 -4.706479,-18.39573 -1.549702,-4.549148 -0.815096,-11.748478 4.418779,-10.127249 3.732415,-4.942707 3.555169,-17.422849 3.695918,-23.202793 -2.044353,-6.073215 -6.968683,-11.53102 -6.074872,-18.318581 -0.433771,-0.953622 0.665521,-3.377726 0.254707,-4.189081 -1.914731,-3.781578 1.362784,-4.661531 7.59082,-6.322846 -0.11619,-6.841287 1.559502,-14.903052 3.337018,-21.4774146 1.010957,-3.7391504 3.083701,-6.4198474 6.444251,-7.6953289"
         id="path39831"
         sodipodi:nodetypes="cccccscccccccccscsc" /><path
         id="path39835"
         style="fill:#f95253;fill-opacity:1;stroke:none;stroke-width:0.264583px;stroke-linecap:butt;stroke-linejoin:miter;stroke-opacity:1"
         d="m -33.506886,51.440148 c -0.04826,6.807391 -0.533806,13.658167 -0.388684,20.435591 -0.683202,1.342003 -1.366403,2.684005 -2.049605,4.026008 -0.895922,-4.751277 -0.895754,-9.674574 0.04861,-14.407813 0.317925,-3.145394 -1.265522,-6.736031 0.732602,-9.530189 0.347917,-0.575537 1.110359,-0.600169 1.578427,-0.208979 m 1.651739,-49.7097458 c 0.576801,4.0113876 1.153603,8.0227748 1.730404,12.0341628 -0.970075,1.415784 -1.940149,2.831568 -2.910224,4.247352 1.11214,6.300121 4.769856,11.738877 6.475412,17.853144 2.650385,4.107269 0.968194,9.138074 -0.841351,13.205269 -1.725615,3.889062 0.29051,8.1825 -0.848283,12.183738 -0.443189,4.760905 -0.05677,9.616203 0.869997,14.285138 0.83247,2.694364 2.56052,5.614083 1.472832,8.448701 -1.535651,1.270119 -1.786413,-3.107638 -2.841679,-4.271923 -1.478041,-3.113443 -2.596785,-6.427086 -2.606143,-9.910165 -0.608796,-5.910283 -0.573398,-11.917597 0.454389,-17.764374 0.871549,-3.122459 3.071018,-5.641985 4.151669,-8.677381 0.157555,-5.855636 -4.254585,-10.23917 -7.312193,-14.756798 -3.029506,-2.425576 -2.056151,-6.652817 -0.909359,-9.78043 1.225811,-2.805304 1.066486,-5.848615 1.629424,-8.781709 0.494918,-2.7715945 1.005302,-5.5404463 1.485105,-8.3147248 z" /></g><path
       style="fill:#e6d543;fill-opacity:1;stroke-width:0.0145854"
       d="m -214.16034,-259.75364 c 1.75762,-0.59764 -1.11128,-4.02951 1.00236,-3.75904 0.38062,1.91844 3.01694,3.68119 4.74173,2.35702 0.73088,-1.60653 -3.19063,-2.1663 -1.63349,-4.21865 0.51751,-1.72285 -0.75137,-4.32633 1.38106,-5.25499 0.93349,-0.32124 3.84612,-1.41487 2.63638,-2.31347 -2.58062,1.6283 -3.30974,-2.51295 -0.8332,-3.11098 1.21339,-0.68149 3.53865,-2.1803 1.74142,-3.39597 1.19434,-2.41833 -2.30121,-2.92123 -3.49667,-1.27873 -2.13765,0.20915 -2.40163,2.38207 -2.76749,4.06547 -0.69737,2.50532 -3.83524,2.66419 -5.25178,4.60446 -1.80534,1.84144 -2.53337,4.35943 -3.58697,6.63128 -0.7503,1.98009 -2.92566,2.29407 -4.50113,1.98335 0.77469,2.06006 3.38995,2.15394 5.07418,1.20901 1.21725,-0.56836 2.40532,-2.67248 2.64295,-0.20729 0.0972,1.56877 0.90473,3.49599 2.85065,2.68853 z m -11.00971,-4.16319 h -0.014 z m -0.14585,-0.49591 h -0.014 z m 6.05295,-3.15774 h -0.0117 z"
       id="path54833"
       sodipodi:nodetypes="cssssssccscscsccccccccccccc" /><path
       style="fill:#e6de96;fill-opacity:1;stroke:none;stroke-width:0.0495458px;stroke-linecap:butt;stroke-linejoin:miter;stroke-opacity:1"
       d="m -211.37362,-269.48413 c 0.29431,-0.1911 1.04005,-0.0674 0.96165,0.42832 -0.35532,0.84512 -0.10209,2.08767 -0.20655,3.19348 -0.47725,0.60843 -2.16832,0.4198 -2.74912,0.29735 -0.28019,-0.11309 -0.40467,-0.43855 -0.35569,-0.72261 0.59865,-1.00158 0.99097,-3.00362 2.29225,-3.23595 0.0229,-0.004 0.0369,0.0502 0.0575,0.0394 0,0 0,0 0,0 z"
       id="path57182"
       sodipodi:nodetypes="accccaaa" /></g></svg>
