<?xml version="1.0" encoding="UTF-8" standalone="no"?>
<!-- Created with Inkscape (http://www.inkscape.org/) -->

<svg
   width="169.536"
   height="140"
   viewBox="0 0 44.856398 37.041667"
   version="1.1"
   id="svg7782"
   xml:space="preserve"
   inkscape:version="1.2.2 (b0a8486541, 2022-12-01)"
   sodipodi:docname="dinos 1.svg"
   xmlns:inkscape="http://www.inkscape.org/namespaces/inkscape"
   xmlns:sodipodi="http://sodipodi.sourceforge.net/DTD/sodipodi-0.dtd"
   xmlns="http://www.w3.org/2000/svg"
   xmlns:svg="http://www.w3.org/2000/svg"><sodipodi:namedview
     id="namedview7784"
     pagecolor="#ffffff"
     bordercolor="#666666"
     borderopacity="1.0"
     inkscape:showpageshadow="2"
     inkscape:pageopacity="0.0"
     inkscape:pagecheckerboard="0"
     inkscape:deskcolor="#d1d1d1"
     inkscape:document-units="mm"
     showgrid="false"
     inkscape:zoom="0.92947506"
     inkscape:cx="796.68625"
     inkscape:cy="484.14424"
     inkscape:window-width="2560"
     inkscape:window-height="1510"
     inkscape:window-x="0"
     inkscape:window-y="54"
     inkscape:window-maximized="1"
     inkscape:current-layer="layer1" /><defs
     id="defs7779" /><g
     inkscape:label="Layer 1"
     inkscape:groupmode="layer"
     id="layer1"
     transform="translate(225.32987,281.68487)"><g
       id="g54695"
       transform="matrix(-0.14847341,0.11411357,0.11411357,0.14847341,-225.28988,-215.26463)"><path
         style="fill:#39b22d;fill-opacity:1;stroke:none;stroke-width:0.264583px;stroke-linecap:butt;stroke-linejoin:miter;stroke-opacity:1"
         d="m -109.55159,-118.00646 c -1.00032,-6.03811 -5.12595,-8.01034 -9.97385,-7.9071 -3.23605,0.0689 -7.03888,0.16273 -9.39378,-2.43377 -5.30135,-4.28751 -10.48983,-8.77798 -15.86132,-12.93936 0,0 -7.38841,-5.27833 -15.66061,-7.23778 -3.44019,-0.81488 -16.2134,-2.6937 -19.19174,4.09004 -4.14744,9.44658 -3.8343,19.37106 -6.37103,28.31568 -2.02729,3.72215 -3.93931,8.21734 -8.96622,7.26917 -2.58392,0.86514 -6.53919,-0.41061 -7.95376,2.37588 -1.70555,2.64834 -3.75627,5.12885 -5.24669,7.881796 -0.092,1.335191 -1.73722,3.009506 -0.39335,4.03119 1.07755,0.986037 1.9247,2.547924 3.13598,3.199748 3.2952,-0.177121 6.33465,-1.70652 9.51356,-2.498514 2.96266,1.232256 6.54713,1.502176 8.88797,3.696769 1.42399,1.335026 1.07604,4.021672 2.5925,5.250661 1.91386,1.551059 4.88268,2.765997 7.16068,1.828258 4.78344,-1.9691 5.03172,-9.045479 7.97602,-13.312046 1.52828,-3.083557 4.93929,-4.372082 7.45238,-6.514822 3.12429,-2.77007 6.60587,-4.71956 10.92091,-3.98583 2.43742,0.17888 6.11392,-1.31799 6.12112,2.20264 0.37625,1.63336 0.88907,3.18609 2.31187,4.20164 1.00185,1.265724 2.04407,2.349184 3.59072,1.155324 2.89314,-1.072004 5.85309,-2.012194 8.30181,-3.961154 2.16387,-1.28727 4.24489,-3.82488 6.61041,-2.10389 l 10.661,-5.3683 c 1.43162,-2.13071 4.52295,-2.72408 3.77542,-7.23623 z"
         id="path8140"
         sodipodi:nodetypes="ssccssccsccccaaaccccsccccs" /><path
         style="fill:#39b22d;fill-opacity:1;stroke:#41cd33;stroke-width:0.264583px;stroke-linecap:butt;stroke-linejoin:miter;stroke-opacity:1"
         d="m -175.86173,-146.27335 11.01222,26.02887"
         id="path30407" /><path
         style="fill:#39b22d;fill-opacity:1;stroke:#41cd33;stroke-width:0.264583px;stroke-linecap:butt;stroke-linejoin:miter;stroke-opacity:1"
         d="m -171.30111,-146.38459 8.23135,24.69406"
         id="path30409" /><path
         style="fill:#39b22d;fill-opacity:1;stroke:#41cd33;stroke-width:0.264583px;stroke-linecap:butt;stroke-linejoin:miter;stroke-opacity:1"
         d="m -167.0742,-147.49693 c 0,0 6.4516,25.91763 6.22913,25.25023"
         id="path30411" /><path
         style="fill:#39b22d;fill-opacity:1;stroke:#41cd33;stroke-width:0.264583px;stroke-linecap:butt;stroke-linejoin:miter;stroke-opacity:1"
         d="m -161.95742,-146.82952 3.11457,25.36146"
         id="path30413" /><path
         style="fill:#39b22d;fill-opacity:1;stroke:#41cd33;stroke-width:0.264583px;stroke-linecap:butt;stroke-linejoin:miter;stroke-opacity:1"
         d="m -157.28557,-145.04977 0.33371,22.5806"
         id="path30415" /><path
         style="fill:#39b22d;fill-opacity:1;stroke:#41cd33;stroke-width:0.264583px;stroke-linecap:butt;stroke-linejoin:miter;stroke-opacity:1"
         d="m -153.8373,-143.27002 -0.22247,20.02221"
         id="path30417" /><path
         style="fill:#39b22d;fill-opacity:1;stroke:#41cd33;stroke-width:0.264583px;stroke-linecap:butt;stroke-linejoin:miter;stroke-opacity:1"
         d="m -151.2789,-142.38015 -1.33482,16.46271"
         id="path30419" /><path
         style="fill:#39b22d;fill-opacity:1;stroke:#41cd33;stroke-width:0.264583px;stroke-linecap:butt;stroke-linejoin:miter;stroke-opacity:1"
         d="m -148.16434,-141.2678 -3.78197,14.90542"
         id="path30421" /><path
         style="fill:#39b22d;fill-opacity:1;stroke:#41cd33;stroke-width:0.264583px;stroke-linecap:butt;stroke-linejoin:miter;stroke-opacity:1"
         d="m -145.82841,-138.59817 -4.78309,12.45826"
         id="path30423" /><path
         style="fill:#39b22d;fill-opacity:1;stroke:#41cd33;stroke-width:0.264583px;stroke-linecap:butt;stroke-linejoin:miter;stroke-opacity:1"
         d="m -142.04644,-137.37459 -5.00555,8.23135"
         id="path30425" /><path
         style="fill:#39b22d;fill-opacity:1;stroke:#41cd33;stroke-width:0.264583px;stroke-linecap:butt;stroke-linejoin:miter;stroke-opacity:1"
         d="m -177.97518,-141.49027 12.12456,23.91542"
         id="path30427" /><path
         style="fill:#39b22d;fill-opacity:1;stroke:#41cd33;stroke-width:0.264583px;stroke-linecap:butt;stroke-linejoin:miter;stroke-opacity:1"
         d="m -180.08864,-135.92854 13.79308,20.46714"
         id="path30429" /><path
         style="fill:#39b22d;fill-opacity:1;stroke:#41cd33;stroke-width:0.264583px;stroke-linecap:butt;stroke-linejoin:miter;stroke-opacity:1"
         d="m -180.97851,-129.69941 14.79418,15.35036"
         id="path30431" /><path
         style="fill:#39b22d;fill-opacity:1;stroke:#41cd33;stroke-width:0.264583px;stroke-linecap:butt;stroke-linejoin:miter;stroke-opacity:1"
         d="m -182.09086,-124.13769 16.46271,11.12345"
         id="path30433" /><path
         style="fill:#39b22d;fill-opacity:1;stroke:#41cd33;stroke-width:0.264583px;stroke-linecap:butt;stroke-linejoin:miter;stroke-opacity:1"
         d="m -182.53579,-118.57596 15.01665,6.34036"
         id="path30435" /><path
         style="fill:#39b22d;fill-opacity:1;stroke:#41cd33;stroke-width:0.264583px;stroke-linecap:butt;stroke-linejoin:miter;stroke-opacity:1"
         d="m -183.87061,-113.23671 c 0,0 13.57061,2.55839 14.01555,2.00222"
         id="path30437" /><path
         style="fill:#318612;fill-opacity:1;stroke:none;stroke-width:0.264583px;stroke-linecap:butt;stroke-linejoin:miter;stroke-opacity:1"
         d="m -109.55159,-118.00646 c -1.00032,-6.03811 -5.12595,-8.01034 -9.97385,-7.9071 -3.23605,0.0689 -7.03888,0.16273 -9.39378,-2.43377 -5.30135,-4.28751 -4.0364,-3.16872 -9.72626,-6.88295 -8.85065,-4.82875 -21.33309,2.33713 -25.02051,7.39199 -5.35258,7.66514 -0.69622,1.69137 -12.27013,13.05667 -2.02729,3.72215 -14.00711,6.88021 -19.03402,5.93204 -2.58392,0.86514 -6.53919,-0.41061 -7.95376,2.37588 -1.70555,2.64834 -3.75627,5.12885 -5.24669,7.881796 -0.092,1.335191 -1.73722,3.009506 -0.39335,4.03119 1.07755,0.986037 1.9247,2.547924 3.13598,3.199748 3.2952,-0.177121 6.33465,-1.70652 9.51356,-2.498514 2.96266,1.232256 6.54713,1.502176 8.88797,3.696769 1.42399,1.335026 1.07604,4.021672 2.5925,5.250661 1.91386,1.551059 4.88268,2.765997 7.16068,1.828258 4.78344,-1.9691 5.03172,-9.045479 7.97602,-13.312046 1.52828,-3.083557 4.93929,-4.372082 7.45238,-6.514822 3.12429,-2.77007 6.60587,-4.71956 10.92091,-3.98583 2.43742,0.17888 6.11392,-1.31799 6.12112,2.20264 0.37625,1.63336 0.88907,3.18609 2.31187,4.20164 1.00185,1.265724 2.04407,2.349184 3.59072,1.155324 2.89314,-1.072004 5.85309,-2.012194 8.30181,-3.961154 2.16387,-1.28727 4.24489,-3.82488 6.61041,-2.10389 l 10.661,-5.3683 c 1.43162,-2.13071 4.52295,-2.72408 3.77542,-7.23623 z"
         id="path8238"
         sodipodi:nodetypes="sscccccsccccaaaccccsccccs" /></g></g></svg>
