<?xml version="1.0" encoding="UTF-8" standalone="no"?>
<svg
   viewBox="0 0 169.311 108"
   version="1.1"
   id="svg3090"
   sodipodi:docname="heart staker bang.svg"
   width="169.311"
   height="108"
   inkscape:version="1.2.2 (b0a8486541, 2022-12-01)"
   xmlns:inkscape="http://www.inkscape.org/namespaces/inkscape"
   xmlns:sodipodi="http://sodipodi.sourceforge.net/DTD/sodipodi-0.dtd"
   xmlns:xlink="http://www.w3.org/1999/xlink"
   xmlns="http://www.w3.org/2000/svg"
   xmlns:svg="http://www.w3.org/2000/svg"
   xmlns:rdf="http://www.w3.org/1999/02/22-rdf-syntax-ns#"
   xmlns:cc="http://creativecommons.org/ns#"
   xmlns:dc="http://purl.org/dc/elements/1.1/">
  <sodipodi:namedview
     id="namedview3092"
     pagecolor="#ffffff"
     bordercolor="#666666"
     borderopacity="1.0"
     inkscape:pageshadow="2"
     inkscape:pageopacity="0.0"
     inkscape:pagecheckerboard="0"
     showgrid="false"
     fit-margin-top="0"
     fit-margin-left="0"
     fit-margin-right="0"
     fit-margin-bottom="0"
     inkscape:zoom="0.86626506"
     inkscape:cx="122.94159"
     inkscape:cy="308.21975"
     inkscape:window-width="2560"
     inkscape:window-height="1510"
     inkscape:window-x="0"
     inkscape:window-y="54"
     inkscape:window-maximized="1"
     inkscape:current-layer="svg3090"
     inkscape:showpageshadow="2"
     inkscape:deskcolor="#d1d1d1" />
  <defs
     id="defs3070">
    <filter
       id="filter7822-1"
       x="-0.024291376"
       y="-0.023715489"
       width="1.0485827"
       height="1.047431">
      <feGaussianBlur
         stdDeviation="4.02484"
         id="feGaussianBlur3057" />
    </filter>
    <radialGradient
       cx="680.13922"
       cy="815.23541"
       gradientTransform="matrix(1.21338,-3.4589524e-7,3.8323164e-7,1.34436,-145.12998,-280.73133)"
       gradientUnits="userSpaceOnUse"
       id="radialGradient3945"
       r="198.82812">
      <stop
         offset="0"
         stop-color="#fc0"
         id="stop3060" />
      <stop
         offset="1"
         stop-color="#e40039"
         stop-opacity=".96471"
         id="stop3062" />
    </radialGradient>
    <radialGradient
       cx="680.13922"
       cy="815.23541"
       gradientTransform="matrix(1.49474,0.01418,-0.00972,1.02424,-328.71668,-29.5429)"
       gradientUnits="userSpaceOnUse"
       id="radialGradient3947"
       r="136.69724">
      <stop
         offset="0"
         stop-color="#ffd600"
         id="stop3065" />
      <stop
         offset="1"
         stop-color="#fc0"
         stop-opacity="0"
         id="stop3067" />
    </radialGradient>
    <radialGradient
       inkscape:collect="always"
       xlink:href="#radialGradient3945"
       id="radialGradient3153"
       gradientUnits="userSpaceOnUse"
       gradientTransform="matrix(1.7300375,0.92111268,-1.0767377,1.8782729,8.224403,-1847.5702)"
       cx="680.13922"
       cy="815.23541"
       r="198.82812" />
    <radialGradient
       inkscape:collect="always"
       xlink:href="#radialGradient3947"
       id="radialGradient3155"
       gradientUnits="userSpaceOnUse"
       gradientTransform="matrix(2.1198431,1.1545136,-0.83420332,1.4236382,-454.71787,-1635.9885)"
       cx="680.13922"
       cy="815.23541"
       r="136.69724" />
  </defs>
  <title
     id="title3072">Pow</title>
  <g
     id="g1604"
     transform="matrix(0.17314434,0,0,0.17314434,30.672936,0)">
    <path
       d="m 567.14707,77.21703 c -3e-5,-10e-6 -120.25886,84.35819 -175.34498,71.73342 C 366.40443,143.12986 338.17542,107.74776 318.2262,77.75037 303.3012,36.68327 293.99931,0 293.99931,0 c 0,0 -9.98419,160.8282 -47.93149,190.23312 -0.15942,0.12356 -0.33471,0.24067 -0.49807,0.36159 -54.83302,-3.34839 -153.116726,-56.6196 -153.116726,-56.6196 0,0 24.892166,26.50427 47.858366,57.22262 C 82.459564,178.9913 24.462354,157.72559 24.462354,157.72559 c 0,0 126.913866,94.68648 126.897816,135.83369 -0.002,4.33117 -0.51373,8.88324 -1.49525,13.56462 C 99.564134,349.73814 0,391.62586 0,391.62586 c 0,0 54.172394,-5.78007 107.04585,-4.83704 -31.684406,41.69013 -68.752726,76.51353 -68.752726,76.51353 0,0 124.650956,-37.8569 168.252786,-13.50761 3.50227,1.9557 6.89823,4.53042 10.21302,7.54609 4.29139,66.4595 -18.16912,166.41622 -18.16912,166.41622 0,0 29.16904,-51.55175 61.41845,-93.24067 16.30742,41.30364 25.5909,82.0665 25.5909,82.0665 0,0 11.59776,-96.50909 43.8998,-134.70847 42.22769,-0.237 102.10422,32.15129 140.41351,55.95361 27.37846,28.91762 47.1168,55.57426 47.1168,55.57426 0,0 -7.34515,-14.4392 -16.24273,-35.37484 3.96146,2.75491 6.29703,4.43535 6.29703,4.43535 0,0 -22.70144,-45.73903 -34.48222,-90.90371 -4.19314,-21.92195 -4.89443,-42.34965 1.34715,-56.72565 18.282,-42.10817 133.88828,-79.5592 133.88828,-79.5592 0,0 -26.42359,1.97771 -57.5573,-0.84077 37.42202,-20.72149 73.27618,-34.89807 73.27618,-34.89807 0,0 -140.93033,7.52993 -160.62961,-36.51421 -1.06799,-2.38783 -1.83235,-4.91362 -2.37077,-7.53083 19.43263,-52.4097 79.53037,-126.05265 79.53037,-126.05265 0,0 -14.00844,9.04155 -33.65621,20.26175 28.97718,-37.82599 60.71763,-68.48242 60.71763,-68.48242 z"
       fill="url(#radialGradient3945)"
       fill-rule="evenodd"
       id="path3076"
       style="fill:url(#radialGradient3153);stroke-width:1.61247" />
    <path
       d="m 494.14421,159.03152 c -2e-5,-1e-5 -85.66691,53.69293 -122.98402,43.06477 -17.20517,-4.90008 -35.24345,-30.21115 -47.80361,-51.52886 -8.69799,-28.74504 -13.70282,-54.27864 -13.70282,-54.27864 0,0 -12.88457,110.14449 -40.02104,129.00125 -0.11404,0.0791 -0.2387,0.15345 -0.35523,0.23076 -37.49155,-4.24576 -102.91827,-44.33291 -102.91827,-44.33291 0,0 16.08223,19.09309 30.68506,41.01318 -39.23015,-10.43888 -78.22008,-27.10717 -78.22008,-27.10717 0,0 83.51385,69.55762 81.95882,97.82765 -0.16377,2.97572 -0.68581,6.0851 -1.53482,9.26668 -36.10705,27.4941 -105.983046,52.74146 -105.983046,52.74146 0,0 37.380886,-2.0495 73.618376,0.47411 -23.30094,27.51964 -50.03772,50.13041 -50.03772,50.13041 0,0 86.9351,-21.58797 115.93363,-3.31177 2.32928,1.46795 4.56241,3.3574 6.72329,5.54694 0.45014,45.81394 -18.70934,113.69342 -18.70934,113.69342 0,0 21.94535,-34.3844 45.63384,-61.88313 9.6375,28.9566 14.47662,57.29247 14.47662,57.29247 0,0 11.57793,-65.89614 35.17159,-90.99548 28.97842,1.3352 68.84025,25.71204 94.22847,43.42467 17.69733,20.83942 30.2382,39.85434 30.2382,39.85434 0,0 -4.49721,-10.18115 -9.81559,-24.88085 2.6143,2.03334 4.15351,3.27075 4.15351,3.27075 0,0 -13.85756,-32.23082 -20.24474,-63.6796 -2.05401,-15.21044 -1.76855,-29.2704 3.05282,-38.92614 14.12213,-28.28229 94.83705,-49.91227 94.83705,-49.91227 0,0 -18.20163,0.42145 -39.45459,-2.61951 26.45027,-12.90936 51.57934,-21.37758 51.57934,-21.37758 0,0 -96.96523,0.17398 -108.82682,-30.78582 -0.64306,-1.67847 -1.07266,-3.44096 -1.34381,-5.25825 15.29806,-35.31925 59.29047,-83.78442 59.29047,-83.78442 0,0 -9.94952,5.71516 -23.84954,12.7271 21.29868,-24.96078 44.224,-44.89756 44.224,-44.89756 z"
       fill="url(#radialGradient3947)"
       fill-rule="evenodd"
       opacity="0.61058"
       id="path3078"
       style="fill:url(#radialGradient3155);stroke-width:1.61247" />
  </g>
  <metadata
     id="metadata3094">
    <rdf:RDF>
      <cc:Work
         rdf:about="">
        <dc:title>Pow</dc:title>
      </cc:Work>
    </rdf:RDF>
  </metadata>
</svg>
