<?xml version="1.0" encoding="UTF-8" standalone="no"?>
<!-- Created with Inkscape (http://www.inkscape.org/) -->

<svg
   width="103.60399mm"
   height="140mm"
   viewBox="0 0 103.60399 140"
   version="1.1"
   id="svg55450"
   xml:space="preserve"
   inkscape:version="1.2.2 (b0a8486541, 2022-12-01)"
   sodipodi:docname="key zappies.svg"
   xmlns:inkscape="http://www.inkscape.org/namespaces/inkscape"
   xmlns:sodipodi="http://sodipodi.sourceforge.net/DTD/sodipodi-0.dtd"
   xmlns="http://www.w3.org/2000/svg"
   xmlns:svg="http://www.w3.org/2000/svg"><sodipodi:namedview
     id="namedview55452"
     pagecolor="#ffffff"
     bordercolor="#666666"
     borderopacity="1.0"
     inkscape:showpageshadow="2"
     inkscape:pageopacity="0.0"
     inkscape:pagecheckerboard="0"
     inkscape:deskcolor="#d1d1d1"
     inkscape:document-units="mm"
     showgrid="false"
     inkscape:zoom="1"
     inkscape:cx="291.5"
     inkscape:cy="215"
     inkscape:window-width="2560"
     inkscape:window-height="1510"
     inkscape:window-x="0"
     inkscape:window-y="54"
     inkscape:window-maximized="1"
     inkscape:current-layer="layer1" /><defs
     id="defs55447"><filter
       inkscape:label="Cracked Lava"
       inkscape:menu="Materials"
       inkscape:menu-tooltip="A volcanic texture, a little like leather"
       style="color-interpolation-filters:sRGB"
       id="filter152717"
       x="-0.086542405"
       y="-0.044363976"
       width="1.1815695"
       height="1.0930774"><feGaussianBlur
         result="result0"
         in="SourceGraphic"
         stdDeviation="0.5"
         id="feGaussianBlur152685" /><feTurbulence
         baseFrequency="0.042"
         seed="488"
         numOctaves="7"
         result="result1"
         id="feTurbulence152687" /><feDisplacementMap
         result="result5"
         xChannelSelector="R"
         scale="0"
         in2="result1"
         in="result1"
         yChannelSelector="G"
         id="feDisplacementMap152689" /><feComposite
         result="result2"
         operator="in"
         in2="result5"
         in="result0"
         id="feComposite152691" /><feSpecularLighting
         lighting-color="#ffe688"
         surfaceScale="2"
         result="result4"
         specularConstant="2"
         specularExponent="65"
         in="result2"
         id="feSpecularLighting152695"><feDistantLight
           elevation="62"
           azimuth="225"
           id="feDistantLight152693" /></feSpecularLighting><feComposite
         k1="2.5"
         k3="1"
         k2="-0.5"
         in2="result2"
         in="result4"
         operator="arithmetic"
         result="result91"
         id="feComposite152697"
         k4="0" /><feBlend
         result="fbSourceGraphic"
         mode="multiply"
         in2="result91"
         id="feBlend152699" /><feColorMatrix
         values="1 0 0 -1 0 1 0 1 -1 0 1 0 0 -1 0 -2 -0.5 0 5 -2"
         in="fbSourceGraphic"
         result="fbSourceGraphicAlpha"
         id="feColorMatrix152701" /><feGaussianBlur
         stdDeviation="8"
         in="fbSourceGraphicAlpha"
         result="result0"
         id="feGaussianBlur152703" /><feOffset
         dx="2"
         dy="2"
         in="result0"
         result="result3"
         id="feOffset152705" /><feSpecularLighting
         in="result0"
         result="result1"
         lighting-color="#ffffff"
         surfaceScale="4"
         specularConstant="0.80000001"
         specularExponent="15"
         id="feSpecularLighting152709"><fePointLight
           x="-5000"
           y="-10000"
           z="20000"
           id="fePointLight152707" /></feSpecularLighting><feComposite
         in2="fbSourceGraphicAlpha"
         in="result1"
         result="result2"
         operator="in"
         id="feComposite152711" /><feComposite
         in="fbSourceGraphic"
         result="result4"
         operator="arithmetic"
         k2="2"
         k3="2"
         in2="result2"
         id="feComposite152713"
         k1="0"
         k4="0" /><feBlend
         mode="darken"
         in2="result4"
         id="feBlend152715" /></filter></defs><g
     inkscape:label="Layer 1"
     inkscape:groupmode="layer"
     id="layer1"
     transform="translate(656.55408,48.064627)"><path
       style="fill:none;stroke:#000000;stroke-width:1;stroke-linecap:butt;stroke-linejoin:miter;stroke-dasharray:none;stroke-opacity:1"
       d="m -566.53971,-29.461112 8.06152,17.776693 -12.19563,13.4358721 c 0,0 4.34082,12.1956379 3.51399,12.6090489 -0.82682,0.413412 -14.6761,15.50293 -14.6761,15.50293 l 4.13411,11.782226 -9.30176,20.050456 7.028,19.223632"
       id="path8954" /><path
       style="fill:none;stroke:#000000;stroke-width:1;stroke-linecap:butt;stroke-linejoin:miter;stroke-dasharray:none;stroke-opacity:1"
       d="m -645.08789,-24.70688 -5.58105,18.190104 c 0,0 9.30176,7.23470047 8.88835,8.2682291 -0.41342,1.0335286 -2.06706,16.9498699 -2.06706,16.9498699 l 8.47493,6.407877 -3.92741,18.39681 c 0,0 12.19564,11.162109 11.36882,10.955403 -0.82682,-0.206705 -6.61458,17.363281 -6.61458,17.363281 l 8.47493,9.508464"
       id="path9510" /><path
       style="fill:none;stroke:#000000;stroke-width:1;stroke-linecap:butt;stroke-linejoin:miter;stroke-dasharray:none;stroke-opacity:1"
       d="m -569.64031,-32.975109 7.64812,11.782226 -6.40788,11.9889326 6.82129,7.2347004 -14.67611,12.815755 4.96094,17.569987 -8.06152,-2.687175 -6.61459,15.50293 5.78776,11.782226 -9.50846,10.541992 c 0,0 5.78776,16.743164 4.96094,16.329753"
       id="path10238" /><path
       style="fill:none;stroke:#000000;stroke-width:1;stroke-linecap:butt;stroke-linejoin:miter;stroke-dasharray:none;stroke-opacity:1"
       d="m -638.88672,-37.315929 -9.71517,16.123046 3.7207,9.71517 -2.06706,16.5364577 5.58106,2.6871745 -6.20117,9.3017578 12.19563,7.027995 -5.37435,9.095052 9.30176,4.34082 -1.86035,13.435872 10.12858,9.715169 -2.89388,9.301758 -2.48047,16.123047"
       id="path10240" /><path
       style="fill:none;stroke:#000000;stroke-width:1;stroke-linecap:butt;stroke-linejoin:miter;stroke-dasharray:none;stroke-opacity:1"
       d="m -563.64568,-33.801932 4.54753,14.262695 -5.78776,11.575521 c 0,0 5.78776,11.3688149 4.96093,11.5755206 -0.82682,0.2067058 -13.84928,11.5755204 -13.84928,11.5755204 l 5.58105,12.402344 -11.98893,10.541992 4.54753,15.709635 -12.40235,11.162109 -7.02799,10.748698"
       id="path10242"
       sodipodi:nodetypes="cccscccccc" /><path
       style="fill:none;stroke:#000000;stroke-width:1;stroke-linecap:butt;stroke-linejoin:miter;stroke-dasharray:none;stroke-opacity:1"
       d="m -652.73585,-32.354992 6.40788,11.782227 -3.7207,8.474934 7.64811,15.0895185 -8.26823,13.6425775 14.26269,13.435873 -7.4414,19.223632 10.7487,8.268229 -1.03353,12.402344 11.98893,13.642578"
       id="path10244"
       sodipodi:nodetypes="cccccccccc" /><path
       style="fill:none;stroke:#000000;stroke-width:1;stroke-linecap:butt;stroke-linejoin:miter;stroke-dasharray:none;stroke-opacity:1"
       d="m -573.15396,79.886218 -10.12858,-7.648112 13.22916,-4.960938 -2.06705,-16.949869 8.26822,-13.435872 -10.74869,-7.441407 c 0,0 22.53092,-9.715169 21.08398,-10.955403 -1.44694,-1.240234 -13.64258,-14.0559895 -13.64258,-14.0559895 l 11.36882,-5.16764312 -7.44141,-8.06152338 8.68164,-8.061523 -15.91634,-10.541992 11.57552,-14.882813"
       id="path10342" /><path
       style="fill:none;stroke:#000000;stroke-width:1;stroke-linecap:butt;stroke-linejoin:miter;stroke-dasharray:none;stroke-opacity:1"
       d="m -632.68521,82.780098 5.99446,-10.541992 -8.26823,-2.480469 7.85482,-15.916341 -13.64258,-3.720703 7.85482,-18.190104 -22.53092,-3.307291 13.43587,-11.988933 c 0,0 -4.34082,-6.407877 -4.75423,-7.6481115 -0.41341,-1.2402343 3.30729,-10.1285806 3.30729,-10.1285806 l -9.71517,-15.7096349 6.82129,-10.541992 -2.06706,-13.022461"
       id="path10344" /><path
       style="fill:none;stroke:#000000;stroke-width:1;stroke-linecap:butt;stroke-linejoin:miter;stroke-dasharray:none;stroke-opacity:1"
       d="m -632.06522,84.227038 c 0,-0.826823 7.64812,-14.055989 7.64812,-14.055989 l -14.2627,-13.229167 10.54199,-3.513997 -15.70963,-14.882813 9.50846,-14.882812 c 0,0 -11.78222,-5.374349 -11.78222,-6.201172 0,-0.826823 4.34082,-9.9218746 4.34082,-9.9218746 l -12.81576,-12.1956378 7.028,-12.4023436 -5.37435,-9.095052 9.92187,-14.055989"
       id="path10346" /><path
       style="fill:none;stroke:#000000;stroke-width:1;stroke-linecap:butt;stroke-linejoin:miter;stroke-dasharray:none;stroke-opacity:1"
       d="m -579.35525,85.260567 -8.47494,-14.882813 6.20117,-4.960937 c 0,0 -12.60905,-15.50293 -11.78222,-16.743164 0.82682,-1.240234 12.81575,-11.988932 12.81575,-11.988932 l 4.34082,-14.676107 12.40234,-9.921875 -10.9554,-6.6145828 10.33529,-3.3072916 -7.2347,-10.7486978 10.74869,-14.6761068 -11.36881,-8.68164 3.10059,-5.374349"
       id="path10348" /></g></svg>
