<?xml version="1.0" encoding="UTF-8" standalone="no"?>
<!-- Created with Inkscape (http://www.inkscape.org/) -->

<svg
   width="33.072918mm"
   height="18.434568mm"
   viewBox="0 0 33.072917 18.434568"
   version="1.1"
   id="svg6520"
   inkscape:version="1.2.2 (b0a8486541, 2022-12-01)"
   sodipodi:docname="noisemaker.svg"
   xmlns:inkscape="http://www.inkscape.org/namespaces/inkscape"
   xmlns:sodipodi="http://sodipodi.sourceforge.net/DTD/sodipodi-0.dtd"
   xmlns="http://www.w3.org/2000/svg"
   xmlns:svg="http://www.w3.org/2000/svg">
  <sodipodi:namedview
     id="namedview6522"
     pagecolor="#ffffff"
     bordercolor="#666666"
     borderopacity="1.0"
     inkscape:pageshadow="2"
     inkscape:pageopacity="0.0"
     inkscape:pagecheckerboard="0"
     inkscape:document-units="mm"
     showgrid="false"
     inkscape:snap-global="false"
     fit-margin-top="5"
     fit-margin-left="5"
     fit-margin-right="5"
     fit-margin-bottom="5"
     inkscape:zoom="1.8116734"
     inkscape:cx="86.660211"
     inkscape:cy="70.100935"
     inkscape:window-width="2560"
     inkscape:window-height="1510"
     inkscape:window-x="0"
     inkscape:window-y="54"
     inkscape:window-maximized="1"
     inkscape:current-layer="layer1"
     inkscape:showpageshadow="2"
     inkscape:deskcolor="#d1d1d1" />
  <defs
     id="defs6517" />
  <g
     inkscape:label="Layer 1"
     inkscape:groupmode="layer"
     id="layer1"
     transform="translate(-23.62621,-67.961661)">
    <g
       id="g2679"
       transform="matrix(0.36640905,0,0,0.36640905,14.969353,43.059893)">
      <path
         id="path6651"
         style="fill:#f63a11;stroke-width:0.999999"
         d="m 326.875,300.13477 -3.125,1.34765 c -3.27712,1.41312 -14.61844,6.71586 -30.625,14.32031 -5.22501,2.48231 -12.20002,5.75358 -15.5,7.26758 -3.30002,1.51398 -11.62501,5.44667 -18.5,8.74024 -6.875,3.29358 -14.75002,7.00108 -17.5,8.24023 -7.307,3.29257 -30.18951,14.07018 -51,24.01953 -13.50203,6.45521 -53.5634,24.98633 -54.01562,24.98633 -0.23449,0 -3.02631,1.19714 -6.20508,2.66016 -3.17881,1.46301 -10.7293,4.79476 -16.7793,7.40429 -2.00562,0.8651 -3.80627,1.70027 -5.40234,2.50391 1.03029,1.23808 1.80099,2.80503 2.47656,4.43555 10.70983,-4.62337 15.60728,-6.89379 39.92578,-18.51563 22.71549,-10.85578 33.01493,-15.65169 39,-18.16015 3.29998,-1.38311 8.69998,-3.78458 12,-5.33594 6.92118,-3.25371 16.01551,-7.41367 29.5,-13.49414 5.225,-2.35607 13.92846,-6.35673 19.3418,-8.89063 5.41334,-2.53392 9.98472,-4.60742 10.1582,-4.60742 0.17333,0 4.70392,-2.05006 10.06836,-4.55664 17.93684,-8.3811 21.64165,-9.66108 23.26953,-8.0332 0.78754,0.78901 1.15046,2.17634 0.80273,3.08203 -0.52791,1.3757 -10.69641,6.61253 -28.64062,14.75 -1.92499,0.87296 -7.93041,3.65188 -13.34375,6.17383 -5.41335,2.52195 -10.0829,4.58398 -10.37695,4.58398 -0.29409,0 -3.73865,1.52229 -7.65625,3.38281 -11.53315,5.47727 -23.82894,11.22813 -28.12305,13.15235 -2.19999,0.98583 -9.52372,4.41872 -16.27539,7.6289 -6.7516,3.2102 -12.43458,5.83594 -12.62695,5.83594 -0.19227,0 -5.4666,2.41709 -11.72266,5.37109 -10.77298,5.08683 -15.93928,7.47832 -28.125,13.01563 -11.82471,5.37324 -16.65361,7.425 -24.75,10.51953 l -1.33203,-3.12695 c 0.41088,1.07659 0.81995,2.12404 1.26953,3.03125 4.01147,6.99621 2.66655,15.26555 1.39453,22.81054 0.26976,1.50877 0.1293,2.87715 -0.30273,4.0625 0.64773,0.19688 1.21792,0.31182 1.625,0.3125 2.83654,0.004 27.45705,-7.94896 43.28515,-13.98437 45.22813,-17.24606 55.97453,-21.43885 59.29688,-23.12891 0.95502,-0.48586 2.61639,-0.88281 3.6914,-0.88281 1.07502,0 2.21214,-0.41592 2.52735,-0.92578 0.31514,-0.50986 2.25373,-1.46083 4.30859,-2.11133 4.25163,-1.34593 28.19889,-10.47131 32.73633,-12.47461 1.64999,-0.7285 9.075,-3.58239 16.5,-6.34375 23.26575,-8.65264 60.46344,-22.80196 64.05664,-24.36523 1.89309,-0.82361 4.77193,-2.04243 6.39648,-2.70899 l 2.95313,-1.21289 3.17773,-5.91992 c -1.98719,-8.21663 0.8458,-1.81672 -2.60937,-12.3418 -1.11844,-3.40693 -6.45338,-14.29395 -6.46094,-16.26562 -0.006,-1.97166 -11.87927,-12.01734 -12.21679,-14.0586 z m -9.20703,12.94726 c 1.60379,-0.006 2.45703,0.6295 2.45703,1.90625 0,2.62045 -5.21944,6.15523 -10.04688,6.80274 -0.93718,0.1257 -1.65288,0.21163 -2.19921,0.23242 -1.639,0.0625 -1.75391,-0.47418 -1.75391,-2.3711 0,-2.21585 0.77464,-2.99883 4.58203,-4.63086 3.0028,-1.28713 5.35714,-1.93373 6.96094,-1.93945 z"
         transform="scale(0.26458333)" />
      <path
         style="fill:#800000;stroke:#000000;stroke-width:0.264583px;stroke-linecap:butt;stroke-linejoin:miter;stroke-opacity:1"
         d="m 27.164112,105.58953 c 1.812567,-0.0643 2.124279,2.12054 2.750214,3.38361 1.061368,1.85108 0.705889,4.03912 0.369333,6.0354 0.349546,1.955 -1.873439,3.03619 -3.282057,1.75152 -0.325603,-1.376 -1.794609,-2.2816 -1.844775,-3.77663 -0.503283,-1.43257 -0.52005,-2.43959 -0.489286,-3.98094 0.618934,-1.22759 0.686048,-3.08108 2.183078,-3.06948 l 0.172276,-0.12376 z"
         id="path13457"
         sodipodi:nodetypes="cssscscsc" />
      <g
         id="g2672">
        <path
           id="path6649"
           style="fill:#1e1a1b;stroke-width:0.264583"
           d="m 104.6887,67.961742 c -0.20786,-0.0019 -0.39712,0.0295 -0.56431,0.09508 -5.535632,2.842187 -0.48388,0.438188 -15.852776,7.425387 -4.802188,2.18323 -9.74328,4.419111 -10.98021,4.96869 -1.236929,0.54958 -3.02287,1.356834 -3.96875,1.793687 -0.945891,0.436856 -6.899008,3.13677 -13.229166,6.000152 C 39.447156,97.583883 25.838731,104.2708 24.9561,105.51035 c -1.476591,2.07369 -1.767601,5.78816 -0.651125,8.31216 0.711612,1.6087 2.3275,3.36922 3.64164,3.96772 0.603337,0.27477 1.070809,0.45341 1.692401,0.47955 1.367507,0.0575 3.48007,-0.62302 9.420098,-2.64118 5.036827,-1.7113 6.695995,-2.33076 17.197916,-6.42338 2.473861,-0.96406 7.355416,-2.77905 10.847917,-4.03283 10.026088,-3.5993 16.994701,-6.274424 31.594968,-12.129498 3.734055,-1.279807 12.947495,-4.734389 15.022855,-6.147427 1.3516,-11.424328 -5.91611,-18.907506 -9.03407,-18.933728 z m -0.0413,2.995685 c 0.36581,0.0049 1.29046,0.214924 2.83549,1.814873 2.06003,2.133258 3.82751,4.70228 4.2571,11.629781 0.0724,1.16727 -1.72317,1.622444 -1.8464,1.698605 -0.45101,0.278737 -13.821797,5.460132 -14.090095,5.460132 -0.637457,0 -0.528885,-0.570902 -0.775663,-2.533695 -0.252969,-2.012044 -0.29549,-1.72445 -0.950845,-3.834908 -0.556588,-1.792415 -1.428638,-2.745953 -2.762623,-4.243667 2.758917,-1.152188 9.966736,-4.945571 10.811226,-5.689576 l 0.69815,-0.614434 -0.6289,-0.0087 c -0.77944,-0.01037 -6.870307,2.497698 -10.677907,4.396633 -0.828762,0.413317 -1.027788,0.580048 -1.044895,0.646471 -0.131247,-0.0833 -0.399215,-0.312364 -0.790133,-0.531752 L 88.403898,78.429887 93.894,75.887409 c 3.019557,-1.398183 6.63308,-3.075055 8.03052,-3.726387 l 2.54093,-1.183907 c 0,0 0.06,-0.02129 0.1819,-0.01965 z m -18.161683,8.45323 1.366844,0.799432 c 0.472562,0.276289 1.259188,1.153301 1.699118,1.492417 0.439931,0.339115 1.276974,1.779685 1.709458,2.624127 1.388822,2.711743 1.888198,4.186875 2.005043,5.858043 0.116837,1.671165 -0.256817,2.661335 -0.256817,2.661335 l -0.781348,0.320909 c -0.429828,0.17636 -1.191523,0.498841 -1.692403,0.716753 -0.9507,0.413617 -10.792589,4.157291 -16.948318,6.446637 -1.964531,0.73061 -3.929065,1.4857 -4.365624,1.67845 -1.200533,0.53004 -7.536577,2.94446 -8.661489,3.30057 -0.543682,0.17211 -1.056579,0.42372 -1.13998,0.55862 -0.08338,0.13491 -0.384262,0.24495 -0.668696,0.24495 -0.284428,0 -0.723999,0.10502 -0.976681,0.23356 -0.87904,0.44716 -3.722357,1.55651 -15.688966,6.11953 -3.380427,1.28899 -8.227327,2.88996 -10.384378,3.46594 0.277673,-0.97394 0.02901,-2.24875 0.242871,-3.19671 -0.133867,-1.41135 -0.142901,-2.9277 -0.790134,-4.21421 1.510323,-0.599 2.840148,-1.17655 5.325256,-2.3058 3.22414,-1.46508 4.591055,-2.09783 7.441408,-3.44372 1.655248,-0.78158 3.050716,-1.4211 3.101618,-1.4211 0.05087,0 1.55452,-0.69473 3.340881,-1.544095 1.786381,-0.84936 3.724117,-1.757645 4.306198,-2.01848 1.136149,-0.509116 4.389412,-2.030697 7.440889,-3.479892 1.036533,-0.492264 1.947919,-0.895035 2.025717,-0.895035 0.07781,0 1.313287,-0.545579 2.745568,-1.212844 1.432279,-0.667268 3.021214,-1.402523 3.530533,-1.633494 4.74774,-2.153039 7.438154,-3.538616 7.577831,-3.902603 0.09195,-0.239623 -0.0035,-0.606696 -0.212385,-0.815455 -0.43071,-0.43071 -1.410943,-0.09205 -6.156732,2.125453 -1.41934,0.663198 -2.618019,1.205609 -2.663919,1.205609 -0.04585,0 -1.255411,0.548613 -2.68769,1.219047 -1.432279,0.670428 -3.735071,1.728937 -5.117518,2.352314 -3.567772,1.608789 -5.973979,2.709444 -7.805209,3.570324 -0.87313,0.410462 -2.301881,1.045853 -3.175,1.411799 -1.58355,0.663698 -4.308609,1.932616 -10.31875,4.804872 -5.531754,2.64363 -7.2959,3.46861 -9.47384,4.42247 -0.293216,-0.41462 -0.707175,-0.76 -1.15135,-0.98237 0.264022,-0.12352 0.537514,-0.24865 0.835607,-0.37724 1.60073,-0.69043 3.598464,-1.57196 4.439525,-1.95905 0.841049,-0.38709 1.579756,-0.70383 1.64176,-0.70383 0.119648,0 10.71922,-4.903028 14.291632,-6.610969 5.506108,-2.632432 11.56044,-5.484008 13.49375,-6.355168 0.727599,-0.327858 2.811197,-1.3088 4.630207,-2.180227 1.819008,-0.871423 4.021661,-1.911948 4.894792,-2.312522 0.87312,-0.400577 2.71859,-1.266102 4.101043,-1.922879 1.382446,-0.656779 3.585108,-1.697461 4.894791,-2.313035 1.30969,-0.615574 2.753251,-1.279764 3.208073,-1.475881 z m -2.436026,3.425628 c -0.42434,0.0016 -1.047259,0.172567 -1.84175,0.513148 -1.007372,0.431807 -1.212329,0.638971 -1.212329,1.225248 0,0.501892 0.0304,0.643881 0.464056,0.627353 0.144538,-0.0055 0.333916,-0.02825 0.581874,-0.06149 1.277261,-0.171312 2.658237,-1.106564 2.658237,-1.799893 0,-0.337817 -0.225759,-0.505875 -0.650088,-0.504363 z m -54.42096,26.277465 c 0.362338,1.89742 0.875036,3.86674 0.337966,5.78053 -0.134303,0.29517 -0.230616,0.65579 -0.256844,0.99787 -0.196392,-0.0866 -0.39392,-0.18258 -0.572576,-0.29146 -1.519351,-0.92586 -2.326921,-2.05655 -2.86339,-4.01008 -0.08027,-0.59401 -0.114735,-2.46814 -0.01228,-3.15227 0.102345,-0.68413 0.315606,-0.98257 1.383896,-1.63091 0.455521,0.19293 0.87905,0.46386 1.218013,0.80512 0.549168,0.66581 0.573965,1.03666 0.765325,1.5012 z"
           sodipodi:nodetypes="scsssssssssssccscssssssccccsccccccscssssccsssscscscccsssssssssscsssssssccsssssssssccscssssscccscczccc" />
      </g>
      <path
         id="path824"
         style="fill:#ffffff;stroke-width:0.999999"
         d="m 395.51758,268.18555 c 1.38259,0.0185 4.87734,0.81234 10.7168,6.85937 7.78594,8.06271 14.46619,17.7724 16.08984,43.95508 0.27364,4.41172 -6.51277,6.13207 -6.97852,6.41992 -1.7046,1.0535 -52.23986,20.63672 -53.2539,20.63672 -2.40929,0 -1.99894,-2.15774 -2.93164,-9.57617 -0.95611,-7.60458 -1.11681,-6.51761 -3.59375,-14.49414 -2.10364,-6.77448 -5.39957,-10.37841 -10.44141,-16.03906 10.42741,-4.35472 37.66955,-18.69192 40.86133,-21.50391 l 2.63867,-2.32227 -2.37695,-0.0332 c -2.94592,-0.0392 -25.9665,9.44012 -40.35743,16.61719 -3.13233,1.56215 -3.88456,2.19231 -3.94921,2.44336 -0.49602,-0.31486 -1.50884,-1.18059 -2.98633,-2.00977 l -4.83008,-2.71094 20.75,-9.60937 c 11.4125,-5.28447 25.0699,-11.62225 30.35156,-14.08398 l 9.60352,-4.47461 c 0,0 0.22663,-0.0804 0.6875,-0.0742 z"
         transform="scale(0.26458333)"
         sodipodi:nodetypes="cssssssccccsccccccsc" />
    </g>
  </g>
</svg>
