<?xml version="1.0" encoding="UTF-8" standalone="no"?>
<!-- Created with Inkscape (http://www.inkscape.org/) -->

<svg
   width="20.088287mm"
   height="20.108335mm"
   viewBox="0 0 20.088288 20.108335"
   version="1.1"
   id="svg5"
   inkscape:version="1.2.2 (b0a8486541, 2022-12-01)"
   sodipodi:docname="bubble large.svg"
   xmlns:inkscape="http://www.inkscape.org/namespaces/inkscape"
   xmlns:sodipodi="http://sodipodi.sourceforge.net/DTD/sodipodi-0.dtd"
   xmlns="http://www.w3.org/2000/svg"
   xmlns:svg="http://www.w3.org/2000/svg">
  <sodipodi:namedview
     id="namedview7"
     pagecolor="#ffffff"
     bordercolor="#666666"
     borderopacity="1.0"
     inkscape:pageshadow="2"
     inkscape:pageopacity="0.0"
     inkscape:pagecheckerboard="0"
     inkscape:document-units="mm"
     showgrid="false"
     fit-margin-top="0"
     fit-margin-left="0"
     fit-margin-right="0"
     fit-margin-bottom="0"
     inkscape:zoom="0.64052329"
     inkscape:cx="-96.795856"
     inkscape:cy="368.44874"
     inkscape:window-width="2560"
     inkscape:window-height="1510"
     inkscape:window-x="1920"
     inkscape:window-y="54"
     inkscape:window-maximized="1"
     inkscape:current-layer="layer1"
     inkscape:showpageshadow="2"
     inkscape:deskcolor="#d1d1d1" />
  <defs
     id="defs2" />
  <g
     inkscape:label="Layer 1"
     inkscape:groupmode="layer"
     id="layer1"
     transform="translate(-15.138525,-16.676646)">
    <path
       style="fill:#000000;stroke-width:0.141932"
       d="m 155.12786,31.861295 c 0.007,-0.165343 0.0404,-0.198975 0.0857,-0.08575 0.041,0.102457 0.036,0.224874 -0.0112,0.272037 -0.0472,0.04716 -0.0807,-0.03667 -0.0746,-0.186286 z"
       id="path1555" />
    <path
       id="path1543"
       style="fill:#000000;stroke-width:0.0689192"
       d="m 23.859371,36.744947 c -0.459193,-0.057 -1.753378,-0.395582 -2.223186,-0.58163 -1.542899,-0.611007 -2.596756,-1.323525 -3.772795,-2.550816 -2.328017,-2.429463 -3.271022,-6.083681 -2.411653,-9.345337 0.952861,-3.616501 3.640518,-6.318477 7.218824,-7.257285 3.128119,-0.820696 6.346174,-0.111271 8.942231,1.971328 1.661216,1.332651 2.847874,3.257131 3.417527,5.542414 0.185559,0.744413 0.197494,0.878421 0.196436,2.205419 -9.71e-4,1.288446 -0.01724,1.480518 -0.184321,2.181413 -0.378242,1.586908 -1.075243,3.029624 -2.042444,4.227644 -0.965283,1.195645 -2.579955,2.381394 -3.988902,2.929285 -0.274814,0.106867 -0.499666,0.222248 -0.499666,0.256402 0,0.03415 -0.02996,0.04358 -0.06656,0.02096 -0.03661,-0.02262 -0.245951,0.01236 -0.465209,0.07775 -0.484307,0.144432 -0.40475,0.126464 -1.148551,0.259389 -0.564282,0.100842 -2.360316,0.138958 -2.971733,0.06307 z m 2.990015,-1.300518 c 3.571533,-0.683346 6.378021,-3.525221 7.074098,-7.16329 0.13015,-0.680226 0.131942,-2.308387 0.0034,-3.039058 -0.355016,-2.017213 -1.359898,-3.803191 -2.887448,-5.131848 -0.301331,-0.262098 -0.5795,-0.456996 -0.618157,-0.433106 -0.03865,0.02389 -0.05025,0.01103 -0.02578,-0.02859 0.02501,-0.04047 -0.159047,-0.192926 -0.420099,-0.347984 -1.591136,-0.945083 -2.709309,-1.296326 -4.36341,-1.370647 -1.660383,-0.0746 -2.964139,0.205418 -4.439926,0.953603 -2.098062,1.063664 -3.653348,2.89875 -4.40047,5.19213 -0.537133,1.648782 -0.523192,3.813853 0.03506,5.444628 0.836532,2.44373 2.612373,4.365307 4.950718,5.357009 0.788436,0.334379 1.389029,0.510623 2.040953,0.598919 0.298937,0.04049 0.636565,0.08672 0.750283,0.102734 0.359377,0.05062 1.761767,-0.03137 2.300823,-0.134506 z M 18.814659,29.0378 c -0.417909,-0.292715 -0.644261,-2.249066 -0.404939,-3.499884 0.327305,-1.710679 1.197448,-3.15286 2.545766,-4.219368 0.624387,-0.493887 1.24721,-0.839369 1.927361,-1.069112 0.564578,-0.190706 0.862369,-0.15234 1.030807,0.132805 0.263601,0.446245 0.104739,0.744699 -0.516049,0.969505 -1.065691,0.385915 -2.01984,1.067307 -2.656172,1.896867 -0.420881,0.548681 -0.852517,1.390408 -1.024912,1.998661 -0.162592,0.573678 -0.19903,2.20515 -0.0608,2.722314 0.148568,0.555839 0.13217,0.804078 -0.06621,1.002463 -0.196116,0.196118 -0.546291,0.225833 -0.774844,0.06575 z" />
  </g>
</svg>
