<?xml version="1.0" encoding="UTF-8" standalone="no"?>
<!-- Created with Inkscape (http://www.inkscape.org/) -->

<svg
   width="38.116669mm"
   height="86.339699mm"
   viewBox="0 0 38.116669 86.339699"
   version="1.1"
   id="svg5"
   inkscape:version="1.2.2 (b0a8486541, 2022-12-01)"
   sodipodi:docname="finger monster.svg"
   xmlns:inkscape="http://www.inkscape.org/namespaces/inkscape"
   xmlns:sodipodi="http://sodipodi.sourceforge.net/DTD/sodipodi-0.dtd"
   xmlns="http://www.w3.org/2000/svg"
   xmlns:svg="http://www.w3.org/2000/svg">
  <sodipodi:namedview
     id="namedview7"
     pagecolor="#ffffff"
     bordercolor="#666666"
     borderopacity="1.0"
     inkscape:pageshadow="2"
     inkscape:pageopacity="0.0"
     inkscape:pagecheckerboard="0"
     inkscape:document-units="mm"
     showgrid="false"
     inkscape:snap-global="false"
     inkscape:zoom="0.64052329"
     inkscape:cx="-185.78559"
     inkscape:cy="177.97948"
     inkscape:window-width="2560"
     inkscape:window-height="1510"
     inkscape:window-x="1920"
     inkscape:window-y="54"
     inkscape:window-maximized="1"
     inkscape:current-layer="layer1"
     inkscape:showpageshadow="2"
     inkscape:deskcolor="#d1d1d1" />
  <defs
     id="defs2">
    <pattern
       id="EMFhbasepattern"
       patternUnits="userSpaceOnUse"
       width="6"
       height="6"
       x="0"
       y="0" />
  </defs>
  <g
     inkscape:label="Layer 1"
     inkscape:groupmode="layer"
     id="layer1"
     transform="translate(-59.998922,-31.496785)">
    <g
       id="g981"
       transform="matrix(0.3926184,0,0,0.3926184,36.442241,19.130568)">
      <path
         id="path3430"
         style="fill:#fde5be;stroke-width:0.264583"
         d="m 113.19268,100.32137 c -0.90782,-3.469469 -1.8426,-7.270049 -2.07686,-8.445419 -0.39535,-1.983495 -3.56897,-9.441396 -5.73736,-13.482648 -0.9148,-1.704921 -1.91691,-2.992015 -2.91227,-3.797175 -1.27975,-1.035207 -2.548393,-1.274618 -3.605805,-0.583555 -1.799312,1.175929 -3.490704,4.163069 -3.82005,6.745563 -0.098,0.768438 0.03305,3.393215 0.291452,5.833128 0.258398,2.439922 0.40534,6.558946 0.326116,9.153485 -0.166492,5.452441 0.237772,9.244241 1.381104,12.948131 l 0.252178,0.81706 0.34308,7.88598 -1.315121,10.75753 c -1.158752,9.47732 -1.443021,11.18348 -2.389274,14.34408 -0.59073,1.97307 -1.649072,5.69969 -2.351851,8.28095 -1.350947,4.96197 -1.849537,6.04062 -3.550053,7.68463 l -0.786096,0.76059 -0.171894,-2.51434 c -0.09542,-1.39825 0.0032,-3.46033 0.222039,-4.64585 0.45832,-2.48308 0.588204,-4.88539 0.43156,-7.98809 -0.147002,-2.91175 -1.925892,-7.47167 -3.739761,-9.58605 -1.051125,-1.22526 -1.499218,-1.55 -3.030369,-2.19731 -3.052661,-1.29055 -8.113107,-1.05877 -9.933744,0.45483 -1.10021,0.91468 -1.953536,3.26317 -2.741096,7.54413 -0.377556,2.05225 -1.142524,5.28365 -1.69995,7.18088 -1.451321,4.9397 -1.673822,9.2175 -0.942137,18.12186 0.181051,2.20329 0.11809,4.91642 -0.191861,8.25717 -0.901617,9.71787 -0.37988,12.41565 3.749485,19.38491 5.229741,8.8264 10.607676,15.04686 19.648599,22.72615 l 3.257499,2.76687 0.559282,9.71589 c 0.307712,5.34378 0.64055,12.45713 0.739744,15.80773 0.0992,3.35061 0.280529,6.23672 0.402914,6.41368 0.32006,0.46277 0.636899,0.55897 1.343635,0.40757 0.801228,-0.17165 42.058235,-1.15275 43.471035,-1.03376 0.9036,0.0761 1.07391,2.6e-4 1.12549,-0.50041 0.0335,-0.32444 0.12832,-1.02479 0.21085,-1.55641 0.0825,-0.53163 0.12838,-1.86952 0.10174,-2.97317 -0.0705,-2.92279 -0.0147,-10.06858 0.0929,-11.85716 0.19911,-3.30803 0.3862,-3.74608 4.8289,-11.31594 4.42874,-7.54612 8.10276,-16.11101 9.88117,-23.03452 2.11882,-8.24858 2.78594,-16.33957 1.70152,-20.64534 -0.53298,-2.1162 -2.55457,-5.21304 -5.65996,-8.67093 -2.90339,-3.23294 -3.31355,-3.94881 -3.87696,-6.76531 -0.71029,-3.5508 -2.06094,-6.22731 -3.9999,-7.92761 -0.4941,-0.43335 -1.74644,-1.09746 -3.05059,-1.61732 -1.21687,-0.48502 -2.74857,-1.25188 -3.40392,-1.70387 -1.05551,-0.72803 -1.2848,-1.07779 -2.00711,-3.06635 -1.62041,-4.46098 -2.22408,-5.76278 -3.15547,-6.79973 -2.02354,-2.25291 -5.15145,-3.67072 -10.1992,-4.62378 -1.39339,-0.26308 -2.55276,-0.52863 -2.57611,-0.58975 -0.1877,-0.49157 -2.25075,-15.79673 -2.51311,-18.64397 -0.12001,-1.30231 -0.20167,-2.1925 -0.11246,-4.26325 0.0892,-2.07075 -0.51741,-4.39465 -2.81195,-13.16378 z"
         sodipodi:nodetypes="cssccccssssssssssccsssscsscssssscccssscssccsssssssscc" />
      <path
         id="path3432"
         style="fill:#000000;stroke:#000000;stroke-width:0.665001;stroke-miterlimit:4;stroke-dasharray:none"
         d="m 79.927592,133.32382 c 0.435833,0.16233 0.459485,0.36509 0.456457,1.06091 -0.0083,1.90703 -0.489172,4.38483 -0.891625,4.59338 -0.210041,0.10884 -1.073305,0.0711 -1.918136,-0.0838 -2.566713,-0.47064 -4.229351,-0.14644 -6.181661,1.20512 -0.798697,0.55292 -1.626969,0.35808 -1.531434,-0.36018 0.270252,-2.03211 0.674418,-3.51185 1.267095,-4.64278 0.627609,-1.19759 0.825913,-1.368 2.089663,-1.79501 1.485136,-0.50182 4.389708,-0.57006 6.122218,-0.1435 0.251076,0.0618 0.442136,0.11179 0.587438,0.16584 z m -1.307084,16.10266 c -0.413346,-0.2387 -1.340136,-0.30579 -2.819208,-0.21114 -2.731286,0.17476 -4.858548,0.91705 -6.352902,2.21665 -1.08978,0.94777 -1.200707,1.12297 -1.037482,1.63391 0.100546,0.31472 0.169669,0.7904 0.153804,1.05752 -0.04369,0.73448 0.642321,0.60659 1.604258,-0.29914 1.303793,-1.22761 3.339213,-1.91162 6.072306,-2.04129 2.292279,-0.10877 2.999171,-0.38893 2.556625,-1.01243 -0.09903,-0.13947 -0.09008,-0.4664 0.0199,-0.72655 0.113812,-0.26921 0.0507,-0.47431 -0.197306,-0.61753 z m 37.276132,-36.76293 -0.90328,-3.76457 c -0.49693,-2.14081 -1.52132,-6.21038 -2.27649,-9.04377 -0.75516,-2.8334 -1.56965,-6.174132 -1.80998,-7.423188 -0.59244,-3.079161 -5.38932,-13.812067 -7.39605,-16.548649 -0.41144,-0.561086 -0.83835,-1.011001 -1.27306,-1.349857 l -1e-5,7e-6 c -1.88373,-1.468385 -3.914953,-0.854712 -5.479528,1.799502 -1.326527,2.25038 -1.631976,4.924246 -1.109578,9.722119 0.255681,2.348216 0.420561,6.845403 0.365778,9.993944 -0.105278,6.050702 0.225865,9.016712 1.440672,12.907282 l 0.26391,1.34941 c 0.46806,4.09449 0.04946,5.33365 0.260506,7.02456 l -1.305303,10.78075 c -1.219397,10.07091 -1.389376,11.06372 -2.581113,15.08716 -0.701637,2.36881 -1.741916,6.04889 -2.311644,8.17789 -0.569737,2.129 -1.301324,4.34147 -1.625923,4.91692 -0.718479,1.27365 -2.727988,3.44001 -3.060604,3.29939 -0.34053,-0.14396 -0.5347,-5.87929 -0.241733,-7.13998 0.43373,-1.86638 0.734498,-6.24636 0.575279,-8.37448 -0.189315,-2.53048 -2.064556,-7.36773 -3.599456,-9.28491 -0.918516,-1.1473 -1.265363,-1.38868 -3.107548,-2.16206 -1.787598,-0.7503 -2.372038,-0.86898 -4.237919,-0.85917 -2.558194,0.0134 -4.440754,0.51346 -5.373229,1.42682 -1.045783,1.02434 -1.621896,2.70552 -2.538006,7.40613 -0.464848,2.38514 -1.203614,5.50278 -1.641476,6.92844 -0.437863,1.42566 -0.899666,3.16297 -1.02632,3.86092 -0.394237,2.17255 -0.40639,6.97348 -0.03124,12.27259 0.279065,3.94205 0.256012,6.20645 -0.102368,10.04941 -0.25443,2.72833 -0.386187,6.35004 -0.292704,8.04847 0.148484,2.69782 0.331669,3.48318 1.449965,6.21561 1.755692,4.2898 6.289594,11.41073 10.385613,16.3112 2.296007,2.74695 6.965832,7.3133 11.350326,11.09905 1.845858,1.59379 3.459927,3.0975 3.586637,3.34194 0.262876,0.50707 0.989121,12.05172 1.303691,20.71911 0.116464,3.20906 0.258411,7.11471 0.31533,8.67917 0.102571,2.82001 0.254065,3.31476 0.831683,2.71473 0.371919,-0.38632 0.136504,-8.89266 -0.620189,-22.39156 l -0.578519,-10.31537 -3.771584,-3.2535 c -8.916154,-7.69054 -13.413962,-12.7977 -18.51983,-21.02868 -4.625777,-7.45702 -5.21935,-10.09983 -4.387294,-19.53113 0.348502,-3.95025 0.372972,-6.53563 0.105043,-11.04973 -0.423239,-7.13083 -0.298028,-10.54022 0.493386,-13.43608 0.328995,-1.20384 0.948831,-3.51865 1.377542,-5.14424 0.667692,-2.53163 0.835966,-2.95119 1.173087,-2.92476 0.216471,0.0169 0.761784,-0.14872 1.211508,-0.3681 3.504945,-1.7098 3.769023,-1.7741 5.854425,-1.41977 3.504363,0.59545 3.831126,0.33365 4.32644,-3.46554 0.14364,-1.10171 0.343844,-2.03666 0.444621,-2.07754 0.84171,-0.3415 3.86077,5.44022 4.354503,8.33897 0.358008,2.10185 0.232879,6.22651 -0.271536,8.95789 -0.401362,2.17338 -0.310075,7.25298 0.166471,9.27547 0.220344,0.93519 0.895599,0.60922 2.781026,-1.34282 2.168952,-2.24559 2.723588,-3.36157 3.97879,-8.01 0.591882,-2.19191 1.646866,-5.94141 2.344881,-8.33215 1.258365,-4.31002 1.87639,-8.38218 3.715996,-24.4947 0.265637,-4.5365 0.308807,-4.38906 -0.0097,-8.35277 -0.0477,-0.77274 -0.07526,-0.8823 -0.136832,-1.06619 -1.566873,-4.67911 -1.737944,-6.13583 -1.626061,-13.84902 0.04571,-3.151017 -0.12631,-7.597843 -0.382273,-9.88201 -0.492139,-4.39176 -0.236757,-6.845525 0.920491,-8.84991 l 0.552194,-0.95633 0.678015,0.810685 c 1.155881,1.381732 2.491941,2.235537 4.077771,2.605772 l 1.50633,0.351825 1.46918,3.084948 c 0.80803,1.696608 1.33472,3.095659 1.17025,3.109561 -0.16447,0.0139 -0.71647,-0.125826 -1.22656,-0.31096 -0.51009,-0.185133 -1.46379,-0.313245 -2.11923,-0.284813 -0.94519,0.04099 -1.18065,0.146886 -1.13829,0.512164 0.04,0.344779 0.22238,0.499752 0.72485,0.617102 0.6169,0.144061 0.6317,0.191706 0.18561,0.586904 -0.60275,0.533993 -0.30292,0.797683 0.93493,0.822806 0.51442,0.01045 1.70632,0.332535 2.64875,0.716018 1.98143,0.806246 2.05428,0.908645 2.62503,3.681378 0.20746,1.00788 1.15368,4.83686 2.10278,8.50912 0.94909,3.67226 1.67877,6.80662 1.6211,6.96493 -0.0577,0.15828 -0.86307,0.045 -1.78924,-0.25154 -0.92616,-0.29658 -2.26397,-0.61518 -2.9731,-0.70839 -1.3385,-0.17595 -2.03297,0.19545 -1.3499,0.72224 0.21636,0.16686 0.40143,0.53076 0.41137,0.80865 0.0158,0.44147 0.15482,0.53065 1.10173,0.70806 1.3147,0.24629 3.92685,1.3379 4.95281,2.06939 0.69398,0.4948 0.94236,0.99517 0.80688,2.67224 -0.13547,1.67707 -0.0213,2.65535 0.0986,4.14371 0.2428,3.01348 2.25989,17.76433 2.63106,19.24087 l 0.17822,0.71044 2.52593,0.4165 c 3.47219,0.57241 7.82715,2.21582 9.53617,3.59896 1.17351,0.94975 1.38429,1.33093 2.91853,5.27002 0.90959,2.3353 1.92428,4.52161 2.25477,4.85867 0.3305,0.33708 2.10987,1.32442 3.95413,2.19399 2.8937,1.36435 3.4703,1.72301 4.20762,2.61759 1.4236,1.72727 2.13784,3.37724 2.73607,6.32003 0.64575,3.17649 1.12765,4.01732 4.33362,7.56823 2.732,3.02595 4.33776,5.3769 4.97453,7.28376 1.3259,3.9704 0.67533,12.2989 -1.66473,21.32011 -1.25568,4.8407 -6.25627,16.48068 -9.13865,21.27143 -4.00994,6.66495 -4.79891,8.17465 -5.11541,9.7922 -0.31934,1.63216 -0.50826,8.59264 -0.4137,15.2449 0.0462,3.25096 0.1643,4.2958 0.49171,4.35627 0.57509,0.1062 0.57562,0.0977 0.5692,-6.01111 -0.0144,-13.65621 -0.0311,-13.53439 2.4396,-17.82599 1.01153,-1.75711 2.55894,-4.37693 3.43862,-5.82194 1.23978,-2.03646 2.33022,-4.35305 4.84855,-10.30222 2.84467,-6.71848 3.36245,-8.12815 4.15655,-11.31292 2.09993,-8.4221 2.71089,-15.88455 1.66557,-20.3413 -0.47962,-2.04485 -2.02206,-4.40555 -5.53921,-8.47625 -3.42663,-3.96596 -3.31553,-3.7488 -4.42206,-8.66488 -0.466,-2.07043 -1.90188,-4.6399 -3.31034,-5.92378 -0.57,-0.51957 -1.82001,-1.19301 -3.64733,-1.96553 -1.92756,-0.8149 -3.00926,-1.40588 -3.52893,-1.9284 -0.46194,-0.46447 -1.32805,-2.25895 -2.25802,-4.67715 -1.694,-4.40491 -2.35969,-5.31202 -5.03393,-6.86059 -1.84132,-1.06623 -4.4201,-1.91002 -7.80717,-2.5555 -1.83911,-0.3505 -2.14891,-0.47066 -2.31714,-0.89709 -0.30205,-0.76576 -2.18058,-14.18371 -2.56887,-18.34887 l -0.0528,-3.80588 z M 101.41598,75.154023 c 0.13647,0.108532 0.28845,0.247786 0.46853,0.423982 0.91141,0.891767 1.68175,2.132369 1.48359,2.389308 -0.0645,0.0836 -0.55556,0.05676 -1.09091,-0.05952 -1.09115,-0.236985 -1.26894,-0.361445 -2.0828,-1.457487 -0.813182,-1.095139 -0.797532,-1.425699 0.0762,-1.583827 0.46675,-0.08447 0.73608,-0.03816 1.14542,0.287542 z"
         sodipodi:nodetypes="ssscscssssssssscssssssccssssssssccccsssssssccsssssssssssssscccsssscccsscsssssscccssccccccssssssssssccssssscscccssssssssscssssssccssssssssscccccssssscc" />
      <g
         id="g8417">
        <path
           id="path6343"
           style="opacity:1;fill:#ff0000;stroke:none;stroke-width:1.00157;stroke-linecap:butt;stroke-linejoin:miter;stroke-miterlimit:4;stroke-dasharray:none;stroke-opacity:1"
           d="m 278.67773,119.04297 -8.19531,4.29297 17.17383,17.95508 -24.19922,-8.5879 -3.51367,4.6836 22.63867,13.27148 -26.93164,-6.24414 4.68359,12.48828 20.29688,0.78125 -10.53906,9.75782 3.51172,8.19531 24.19921,-21.85547 c 0,0 17.69176,1.50343 26.54102,1.16992 6.54712,-0.24674 12.96395,-2.37543 19.51563,-2.34179 9.05294,0.0465 18.38982,0.5144 26.93164,3.51367 8.04205,2.82379 16.44317,6.68662 21.85742,13.26953 2.64072,3.2107 3.69758,7.59468 4.29297,11.70898 1.07077,7.39938 -0.48238,20.32142 -1.38282,26.67383 -7.5151,2.63384 -16.02619,2.06848 -23.98828,1.42773 -8.27229,-0.66569 -16.39167,-3.03451 -24.19726,-5.85351 -6.95015,-2.51005 -13.28391,-6.47917 -19.90625,-9.75781 -5.475,-2.71061 -16.39258,-8.19727 -16.39258,-8.19727 l -7.80664,4.29492 -11.31836,1.56055 -6.2461,18.73438 c 0,0 4.15779,6.18849 4.6836,9.75781 0.61412,4.16878 -0.25272,8.63392 -1.95117,12.49023 -1.00735,2.28717 -4.6836,5.85352 -4.6836,5.85352 l 3.9043,16.39258 -1.95313,8.58789 c 0,0 4.16092,3.38727 6.2461,5.07421 4.67574,3.78278 9.1532,7.82756 14.05078,11.31836 6.37871,4.5465 12.8858,9.01577 19.90625,12.49024 3.98504,1.97222 8.42273,2.88317 12.48828,4.68359 4.68191,2.07338 13.66211,7.02539 13.66211,7.02539 l -1.5918,5.35352 c -2.64719,1.9417 -10.99005,7.84251 -16.36328,9.08789 -4.31668,1.0005 -8.94392,0.17992 -13.26953,-0.78125 -12.02792,-2.67264 -24.0547,-6.88749 -34.34765,-13.66016 -5.68703,-3.742 -9.50276,-9.75584 -14.44141,-14.4414 -2.53958,-2.40943 -5.24527,-4.63915 -7.80664,-7.02539 -3.70274,-3.44957 -10.92774,-10.53907 -10.92774,-10.53907 l -15.22265,-13.26953 -3.51172,5.85352 c 0,0 10.92869,10.53838 12.09961,12.09961 1.17092,1.56122 -18.73438,-5.07422 -18.73438,-5.07422 l -1.17187,7.80664 18.73437,6.24609 -16.00195,5.07227 -0.39062,9.36914 16.7832,-7.80664 -14.05078,21.4668 8.19726,4.68359 7.02539,-15.61328 c 0,0 10.86499,5.08908 16.39258,7.41601 10.55483,4.44324 21.18965,8.72213 32.00391,12.49024 8.35521,2.91128 16.63574,6.39994 25.37109,7.80664 6.1668,0.99307 12.57908,1.45265 18.73438,0.39062 1.16335,-0.20072 2.61455,-0.65606 4.08593,-1.19336 l -0.57422,1.58204 c 0,0 13.57043,5.00523 20.6875,5.46484 13.09241,0.84548 26.53524,-1.07116 39.0293,-5.07422 8.14813,-2.61063 16.35007,-6.29782 22.63867,-12.09961 3.18297,-2.93656 7.02539,-10.92773 7.02539,-10.92773 l -7.41601,-35.51758 10.53906,-1.17188 5.85352,-9.36718 7.02539,-2.73243 -6.63477,-6.63476 13.66016,-4.68359 -12.09961,-8.19532 8.97851,-4.68554 -13.27148,-5.4629 5.85547,-10.92968 -14.83203,-1.56055 0.39062,-13.66016 -12.88086,5.07422 -5.07422,-14.83203 c 0,0 -0.70399,0.801 -1.80859,1.97852 0.17438,-4.85818 0.27378,-14.30943 -1.3125,-19.54297 -1.84452,-6.08565 -4.94201,-12.23982 -9.75781,-16.39258 -4.1534,-3.58156 -10.15439,-4.14863 -15.22266,-6.24414 -6.25198,-2.58494 -12.16969,-6.17136 -18.73437,-7.80664 -8.11505,-2.02149 -16.7369,-0.93328 -24.98047,-2.3418 -5.28762,-0.90345 -10.29171,-3.21191 -15.61133,-3.90234 -9.80635,-1.27276 -29.66406,-0.39063 -29.66406,-0.39063 z"
           transform="scale(0.26458333)" />
        <circle
           style="fill:#ffffff;stroke:none;stroke-width:0.665001;stroke-linejoin:round;stroke-miterlimit:4;stroke-dasharray:none;stop-color:#000000"
           id="path7630"
           cx="101.75588"
           cy="67.362617"
           r="4.3447976" />
        <circle
           style="fill:#000000;stroke:#000000;stroke-width:0.665001;stroke-linejoin:round;stroke-miterlimit:4;stroke-dasharray:none;stop-color:#000000"
           id="path7628"
           cx="99.674759"
           cy="65.573578"
           r="1.3874143" />
        <path
           style="fill:none;stroke:#ff8080;stroke-width:1.565;stroke-linecap:butt;stroke-linejoin:miter;stroke-miterlimit:4;stroke-dasharray:none;stroke-opacity:1"
           d="m 79.30168,55.642615 c 1.022305,2.774828 5.695702,10.223053 11.975576,13.874144"
           id="path7887" />
        <path
           style="fill:none;stroke:#aa0000;stroke-width:1.265;stroke-linecap:butt;stroke-linejoin:miter;stroke-miterlimit:4;stroke-dasharray:none;stroke-opacity:1"
           d="m 78.571462,63.675013 0.146045,5.987788 2.482741,-2.336697 0.584174,4.527352 1.606478,-1.752523 0.730219,3.943178 1.460436,-1.898568 1.022305,3.943178 1.898568,-3.066915 2.04461,4.235264"
           id="path8068" />
      </g>
    </g>
  </g>
</svg>
