<?xml version="1.0" encoding="UTF-8" standalone="no"?>
<!-- Created with Inkscape (http://www.inkscape.org/) -->

<svg
   width="48.683334mm"
   height="28.427679mm"
   viewBox="0 0 48.683335 28.427679"
   version="1.1"
   id="svg5"
   inkscape:version="1.2.2 (b0a8486541, 2022-12-01)"
   sodipodi:docname="lips top.svg"
   xmlns:inkscape="http://www.inkscape.org/namespaces/inkscape"
   xmlns:sodipodi="http://sodipodi.sourceforge.net/DTD/sodipodi-0.dtd"
   xmlns="http://www.w3.org/2000/svg"
   xmlns:svg="http://www.w3.org/2000/svg">
  <sodipodi:namedview
     id="namedview7"
     pagecolor="#ffffff"
     bordercolor="#666666"
     borderopacity="1.0"
     inkscape:pageshadow="2"
     inkscape:pageopacity="0.0"
     inkscape:pagecheckerboard="0"
     inkscape:document-units="mm"
     showgrid="false"
     fit-margin-top="0"
     fit-margin-left="0"
     fit-margin-right="0"
     fit-margin-bottom="0"
     inkscape:zoom="0.64052329"
     inkscape:cx="332.5406"
     inkscape:cy="543.30577"
     inkscape:window-width="2560"
     inkscape:window-height="1510"
     inkscape:window-x="0"
     inkscape:window-y="54"
     inkscape:window-maximized="1"
     inkscape:current-layer="layer1"
     inkscape:showpageshadow="2"
     inkscape:deskcolor="#d1d1d1" />
  <defs
     id="defs2">
    <inkscape:path-effect
       effect="bend_path"
       id="path-effect1095"
       is_visible="true"
       lpeversion="1"
       bendpath="M 3.2399326,67.107437 C 72.945108,83.04065 140.1082,87.184848 203.23987,65.868215"
       prop_scale="1"
       scale_y_rel="false"
       vertical="false"
       hide_knot="false"
       bendpath-nodetypes="cc" />
  </defs>
  <g
     inkscape:label="Layer 1"
     inkscape:groupmode="layer"
     id="layer1"
     transform="translate(-6.3396731,-4.7871865)">
    <path
       style="fill:#800000;stroke-width:0.0644892"
       d="M 7.6442228,16.583021 C 6.976118,15.997306 6.2117573,14.864412 6.3578015,14.690777 c 0.036357,-0.04323 0.7003706,-0.460679 1.4669934,-0.935069 0.8320324,-0.514859 1.543348,-0.968948 1.8761878,-1.184771 0.3741593,-0.242613 0.7732823,-0.501421 1.3502973,-0.88228 0.510747,-0.337115 1.079756,-0.724729 1.433855,-0.973613 0.397635,-0.279479 0.744927,-0.526026 1.128102,-0.8006906 1.802669,-1.2921584 4.004234,-2.590815 5.710164,-3.3706753 3.837864,-1.7544632 4.560294,-2.080374 5.887411,-1.4794548 0.557692,0.2525235 0.508895,0.2415382 1.793865,1.282928 0.507455,0.4112658 1.452071,0.8412435 2.175952,0.9864292 0.84645,0.1697691 1.423748,0.1605655 2.011754,-0.094237 0.344192,-0.1504821 0.697445,-0.3886322 1.110337,-0.7304788 0.401365,-0.3322992 0.919311,-0.7116961 1.12985,-0.8214762 0.772412,-0.4027471 1.641761,-0.4736045 3.035161,-0.2976566 0.693947,0.087627 1.222062,0.263482 2.314871,0.720634 0.689647,0.2884994 1.902408,0.8539229 3.098906,1.3848184 1.099812,0.4879949 2.470213,1.0735781 2.909421,1.2918416 2.337821,1.1617726 5.16985,3.3216031 7.950908,5.9093811 0.55633,0.517666 0.646696,0.619122 0.545842,0.659868 -0.06586,0.02661 -1.18953,0.23152 -2.497719,0.398567 -1.485843,0.189731 -2.591639,0.28243 -3.246566,0.338714 -0.578563,0.04972 -1.186505,0.09364 -1.800013,0.128877 -2.301073,0.132153 -4.393127,0.149427 -6.22566,0.122138 -1.783092,-0.02655 -2.814767,-0.102824 -4.963681,-0.431148 -0.81838,-0.125033 -1.89445,-0.2752 -2.226498,-0.299414 -0.34483,-0.02515 -0.766567,-0.02858 -1.226059,-0.01497 -0.719291,0.02121 -1.558921,0.08494 -2.336694,0.180611 -1.57643,0.193899 -2.338789,0.399751 -4.139667,1.072881 -1.307348,0.488655 -1.728776,0.566313 -3.222058,0.586182 -2.075367,0.02761 -2.685479,0.112315 -5.822569,0.503292 -3.750322,0.467404 -6.4615571,-0.06613 -7.9362722,-1.358979 z"
       id="path26665" />
  </g>
</svg>
