<?xml version="1.0" encoding="UTF-8" standalone="no"?>
<!-- Created with Inkscape (http://www.inkscape.org/) -->

<svg
   width="47.625mm"
   height="14.731756mm"
   viewBox="0 0 47.625 14.731756"
   version="1.1"
   id="svg1"
   xml:space="preserve"
   inkscape:version="1.2.2 (b0a8486541, 2022-12-01)"
   sodipodi:docname="moustache.svg"
   xmlns:inkscape="http://www.inkscape.org/namespaces/inkscape"
   xmlns:sodipodi="http://sodipodi.sourceforge.net/DTD/sodipodi-0.dtd"
   xmlns="http://www.w3.org/2000/svg"
   xmlns:svg="http://www.w3.org/2000/svg"><sodipodi:namedview
     id="namedview1"
     pagecolor="#ffffff"
     bordercolor="#000000"
     borderopacity="0.25"
     inkscape:showpageshadow="2"
     inkscape:pageopacity="0.0"
     inkscape:pagecheckerboard="0"
     inkscape:deskcolor="#d1d1d1"
     inkscape:document-units="mm"
     inkscape:zoom="1.0627876"
     inkscape:cx="381.07332"
     inkscape:cy="549.49832"
     inkscape:window-width="2560"
     inkscape:window-height="1510"
     inkscape:window-x="0"
     inkscape:window-y="54"
     inkscape:window-maximized="1"
     inkscape:current-layer="layer1"
     showgrid="false" /><defs
     id="defs1" /><g
     inkscape:label="Layer 1"
     inkscape:groupmode="layer"
     id="layer1"
     transform="translate(-3.8883389,-3.0865282)"><path
       style="fill:#000000;stroke-width:1.23676"
       d="M 12.256869,17.317163 C 5.1107758,15.392638 1.7150076,9.7057217 5.3773974,5.7960704 6.2257631,4.8904291 7.4496273,4.7739277 7.0961865,5.6324571 6.5596942,6.9356309 6.6059935,7.259679 7.4491462,8.1028318 8.9728032,9.6264887 10.233612,9.3215634 14.624494,6.3674788 20.368268,2.5031992 23.462785,2.1295423 26.558633,4.9264547 l 1.213766,1.0965596 0.926085,-0.9666307 c 2.954357,-3.0836833 6.0536,-2.6268519 13.14035,1.9369013 3.374311,2.1729985 4.807516,2.4410956 6.106348,1.1422591 0.874029,-0.874021 0.923673,-1.1962548 0.385671,-2.5030869 -0.353429,-0.8585294 0.87043,-0.742028 1.718797,0.1636133 3.387272,3.6159619 0.643523,9.0484226 -5.63675,11.1603796 -4.889204,1.644184 -9.176291,0.922807 -15.230027,-2.56269 l -1.475688,-0.84964 -2.941862,1.635142 c -4.608553,2.561515 -8.479095,3.223057 -12.508454,2.137901 z"
       id="path1" /></g></svg>
