<?xml version="1.0" encoding="UTF-8" standalone="no"?>
<!-- Generator: Adobe Illustrator 15.0.2, SVG Export Plug-In . SVG Version: 6.00 Build 0)  -->

<svg
   version="1.1"
   id="svg2"
   inkscape:version="1.2.2 (b0a8486541, 2022-12-01)"
   sodipodi:docname="tealight base.svg"
   x="0px"
   y="0px"
   width="500.387px"
   height="512.5px"
   viewBox="0 0 500.387 512.5"
   xml:space="preserve"
   xmlns:inkscape="http://www.inkscape.org/namespaces/inkscape"
   xmlns:sodipodi="http://sodipodi.sourceforge.net/DTD/sodipodi-0.dtd"
   xmlns="http://www.w3.org/2000/svg"
   xmlns:svg="http://www.w3.org/2000/svg"><defs
     id="defs4957" /><ellipse
     fill="#FFFFFF"
     cx="248.693"
     cy="282.25"
     rx="241"
     ry="68"
     id="ellipse4941" /><sodipodi:namedview
     inkscape:window-height="1510"
     showgrid="false"
     objecttolerance="10"
     borderopacity="1"
     id="namedview24"
     inkscape:window-width="2560"
     fit-margin-right="5"
     fit-margin-bottom="5"
     inkscape:zoom="1.5855316"
     inkscape:cx="124.24855"
     inkscape:cy="163.35215"
     inkscape:window-x="0"
     inkscape:window-y="54"
     inkscape:window-maximized="1"
     inkscape:current-layer="svg2"
     guidetolerance="10"
     inkscape:pageopacity="0"
     inkscape:pageshadow="2"
     fit-margin-top="5"
     fit-margin-left="5"
     bordercolor="#666666"
     gridtolerance="10"
     pagecolor="#ffffff"
     inkscape:pagecheckerboard="0"
     inkscape:showpageshadow="2"
     inkscape:deskcolor="#d1d1d1">
	</sodipodi:namedview><g
     id="g548"><path
       id="path5"
       inkscape:connector-curvature="0"
       fill="#eaeaea"
       d="m 8.775919,274.57375 c 0,0 -0.672,141.16 2.016,150.565 2.688,9.41 4.728,28.185 49.07,47.724 79.315001,34.957 214.031001,35.358 306.512001,17.479 100.828,-19.496 120.32,-51.762 120.32,-51.762 l 2.016,-166.699 c 0,0 -12.77,28.901 -91.418,49.069 -24.948,6.396 -137.272,23.521 -230.555,16.129 -135.781001,-10.747 -157.961001,-62.505 -157.961001,-62.505 z" /><path
       id="path7"
       inkscape:connector-curvature="0"
       fill="#eaeaea"
       d="m 11.630919,264.15275 c 0,0 -6.551,-21.676 41.845,-39.824 48.397001,-18.148 174.430001,-41.34 263.160001,-29.746 88.727,11.598 154.266,42.348 161.319,53.438 7.06,11.095 4.539,36.806 4.539,36.806 0,0 -15.629,-20.168 -48.397,-31.258 -32.77,-11.09 -92.758,-26.719 -139.646,-30.246 -46.883,-3.531 -126.539,4.031 -154.266,9.578 -27.728,5.543 -74.609001,16.133 -91.750001,25.711 -17.142,9.577 -32.771,23.188 -32.771,23.188 z" /><path
       id="path11"
       inkscape:connector-curvature="0"
       fill="none"
       stroke="#000000"
       stroke-width="10.0827"
       stroke-linecap="round"
       d="m 487.45192,267.52275 c 0,-42.02 -137.289,-76.973 -229.969,-75.629 -122.328,1.773 -246.523001,28.223 -246.523001,76.625 0,48.402 118.000001,71.668 236.105001,69.91 118.934,-1.773 240.387,-28.886 240.387,-70.906 z" /><path
       id="path13"
       inkscape:connector-curvature="0"
       fill="none"
       stroke="#000000"
       stroke-width="10.0827"
       stroke-linecap="round"
       d="m 487.45192,267.52275 c 3.734,16.078 2.806,48.953 2.562,81.66 -0.31,42.031 -0.789,83.765 -2.668,89.183 -3.34,9.63 -62.152,64.078 -244.652,64.078 -182.496001,0 -222.676001,-56.112 -225.172001,-60.051 -9.328,-14.723 -6.974,-36.172 -7.402,-61.279 -0.168,-9.586 0.773,-99.188 1.008,-107.884" /><path
       id="path15"
       inkscape:connector-curvature="0"
       fill="none"
       stroke="#000000"
       stroke-width="4.0331"
       stroke-linecap="round"
       d="m 487.45192,298.44575 c 0,-42.021 -137.289,-76.974 -229.969,-75.634 -122.328,1.777 -246.523001,28.223 -246.523001,76.625" /><path
       id="path22"
       inkscape:connector-curvature="0"
       fill="none"
       stroke="#000000"
       stroke-width="8.0662"
       stroke-linecap="round"
       d="m 248.07292,285.32775 c 0,0 -11.43,-9.074 -5.379,-34.281 6.051,-25.207 6.723,-32.266 6.723,-32.266" /></g></svg>
