<?xml version="1.0" encoding="utf-8"?>
<!-- Generator: Adobe Illustrator 15.0.2, SVG Export Plug-In . SVG Version: 6.00 Build 0)  -->
<!DOCTYPE svg PUBLIC "-//W3C//DTD SVG 1.1//EN" "http://www.w3.org/Graphics/SVG/1.1/DTD/svg11.dtd">
<svg version="1.1"
	 id="svg2" xmlns:rdf="http://www.w3.org/1999/02/22-rdf-syntax-ns#" xmlns:cc="http://creativecommons.org/ns#" xmlns:svg="http://www.w3.org/2000/svg" xmlns:dc="http://purl.org/dc/elements/1.1/" xmlns:sodipodi="http://sodipodi.sourceforge.net/DTD/sodipodi-0.dtd" xmlns:inkscape="http://www.inkscape.org/namespaces/inkscape" inkscape:version="0.48.2 r9819" sodipodi:docname="file-Volumes-ramdisk-a.svg"
	 xmlns="http://www.w3.org/2000/svg" xmlns:xlink="http://www.w3.org/1999/xlink" x="0px" y="0px" width="500.387px"
	 height="512.5px" viewBox="0 0 500.387 512.5" enable-background="new 0 0 500.387 512.5" xml:space="preserve">
<ellipse fill="#FFFFFF" cx="248.693" cy="282.25" rx="241" ry="68"/>
<sodipodi:namedview  inkscape:window-height="750" showgrid="false" objecttolerance="10" borderopacity="1" id="namedview24" inkscape:window-width="1086" fit-margin-right="5" fit-margin-bottom="5" inkscape:zoom="0.28028504" inkscape:cx="252.35392" inkscape:cy="136.65625" inkscape:window-x="0" inkscape:window-y="0" inkscape:window-maximized="0" inkscape:current-layer="svg2" guidetolerance="10" inkscape:pageopacity="0" inkscape:pageshadow="2" fit-margin-top="5" fit-margin-left="5" bordercolor="#666666" gridtolerance="10" pagecolor="#ffffff">
	</sodipodi:namedview>
<g id="Layer_2" transform="translate(-45.146081,-45.15625)">
	<path id="path5" inkscape:connector-curvature="0" fill="#EAEAEA" d="M53.922,319.73c0,0-0.672,141.16,2.016,150.565
		c2.688,9.41,4.728,28.185,49.07,47.724c79.315,34.957,214.031,35.358,306.512,17.479c100.828-19.496,120.32-51.762,120.32-51.762
		l2.016-166.699c0,0-12.77,28.901-91.418,49.069c-24.948,6.396-137.272,23.521-230.555,16.129
		C76.102,371.488,53.922,319.73,53.922,319.73z"/>
	<path id="path7" inkscape:connector-curvature="0" fill="#EAEAEA" d="M56.777,309.309c0,0-6.551-21.676,41.845-39.824
		c48.397-18.148,174.43-41.34,263.16-29.746c88.727,11.598,154.266,42.348,161.319,53.438c7.06,11.095,4.539,36.806,4.539,36.806
		s-15.629-20.168-48.397-31.258c-32.77-11.09-92.758-26.719-139.646-30.246c-46.883-3.531-126.539,4.031-154.266,9.578
		c-27.728,5.543-74.609,16.133-91.75,25.711c-17.142,9.577-32.771,23.188-32.771,23.188L56.777,309.309L56.777,309.309z"/>
</g>
<g id="Layer_1" transform="translate(-45.146081,-45.15625)">
</g>
<g id="Layer_3" transform="translate(-45.146081,-45.15625)">
	
		<path id="path11" inkscape:connector-curvature="0" fill="none" stroke="#000000" stroke-width="10.0827" stroke-linecap="round" d="
		M532.598,312.679c0-42.02-137.289-76.973-229.969-75.629c-122.328,1.773-246.523,28.223-246.523,76.625
		c0,48.402,118,71.668,236.105,69.91C411.145,381.812,532.598,354.699,532.598,312.679z"/>
	
		<path id="path13" inkscape:connector-curvature="0" fill="none" stroke="#000000" stroke-width="10.0827" stroke-linecap="round" d="
		M532.598,312.679c3.734,16.078,2.806,48.953,2.562,81.66c-0.31,42.031-0.789,83.765-2.668,89.183
		c-3.34,9.63-62.152,64.078-244.652,64.078c-182.496,0-222.676-56.112-225.172-60.051c-9.328-14.723-6.974-36.172-7.402-61.279
		c-0.168-9.586,0.773-99.188,1.008-107.884"/>
	
		<path id="path15" inkscape:connector-curvature="0" fill="none" stroke="#000000" stroke-width="4.0331" stroke-linecap="round" d="
		M532.598,343.602c0-42.021-137.289-76.974-229.969-75.634c-122.328,1.777-246.523,28.223-246.523,76.625"/>
</g>
<g id="Layer_4" transform="translate(-45.146081,-45.15625)">
	<path id="path18" inkscape:connector-curvature="0" fill="#FFFFFF" d="M275.07,301.582c-30.176-4.664-61.387-52.16-30.25-103.516
		c51.759-85.367,44.363-146.535,44.363-146.535s112.927,220.473,5.379,249.379"/>
	
		<path id="path20" inkscape:connector-curvature="0" fill="none" stroke="#000000" stroke-width="6.0496" stroke-linecap="round" d="
		M275.07,301.582c-30.176-4.664-61.387-52.16-30.25-103.516c51.759-85.367,44.363-146.535,44.363-146.535
		s112.927,220.473,5.379,249.379"/>
	
		<path id="path22" inkscape:connector-curvature="0" fill="none" stroke="#000000" stroke-width="8.0662" stroke-linecap="round" d="
		M293.219,330.484c0,0-11.43-9.074-5.379-34.281s6.723-32.266,6.723-32.266"/>
</g>
</svg>
